<?xml version="1.0" encoding="UTF-8" standalone="no"?><!DOCTYPE svg PUBLIC "-//W3C//DTD SVG 1.1//EN" "http://www.w3.org/Graphics/SVG/1.1/DTD/svg11.dtd"><svg width="100%" height="100%" viewBox="0 0 2302 440" version="1.1" xmlns="http://www.w3.org/2000/svg" xmlns:xlink="http://www.w3.org/1999/xlink" xml:space="preserve" xmlns:serif="http://www.serif.com/" style="fill-rule:evenodd;clip-rule:evenodd;stroke-linecap:round;stroke-linejoin:round;stroke-miterlimit:10;"><g><path d="M227.187,135.571c-9.675,-30.467 -19.646,-30.467 -29.946,-0l-108.458,283.767c-5.263,13.483 -13.675,19.545 -26.088,19.975l-44.75,-0c-16.412,-0.821 -21.762,-10.3 -15.242,-30.059l151.975,-384.029c9.442,-16.825 28.571,-25.225 57.388,-25.225c28.571,0 47.387,9.042 56.425,27.108l155.758,384.042c6.096,18.079 1.325,28.163 -12.8,28.163l-46.787,-0.042c-12.821,-0.425 -21.854,-6.45 -27.113,-19.933l-110.362,-283.767Z" style="fill:#fff;fill-rule:nonzero;"/><path d="M1007.82,411.15l-155.779,-384.041c-9.042,-18.067 -27.854,-27.109 -56.442,-27.109c-28.796,0 -47.916,8.396 -57.379,25.221l-133.496,337.35l-119.287,-158.529l130.771,-155.196c4.325,-5.546 7.283,-9.937 9.062,-13.483c2.204,-4.392 3.3,-8.921 3.3,-13.479c0,-3.504 -0.883,-6.859 -2.721,-10.071c-2.041,-3.421 -5.262,-6.104 -9.708,-8c-2.967,-1.204 -6.513,-2.146 -10.788,-2.8c-4.07,-0.638 -9.037,-0.954 -15.229,-0.954c-6.05,-0 -10.95,0.241 -14.996,0.737c-4.279,0.517 -7.85,1.229 -10.92,2.188c-3.734,1.125 -7.059,2.758 -9.796,4.821c-2.738,2.05 -5.163,4.616 -6.588,6.8l-120.646,148.875l-0.025,89.812l126.738,170.292c2.221,3.208 12.058,15.691 21.692,15.691c4.541,0 70.787,0.038 70.787,0.038c12.404,-0.429 20.7,-6.492 25.958,-19.975l108.463,-283.767c10.292,-30.466 20.275,-30.466 29.946,0l110.341,283.767c5.267,13.483 14.309,19.542 27.134,19.967l48.083,0.125c15.654,-0 17.608,-10.2 11.525,-28.28" style="fill:#fff;fill-rule:nonzero;"/><path d="M1344.66,89.259l-18.892,-42.283l-19,42.283l37.892,0Zm-23.167,-53.212l8.792,-0l37.896,83.741l-10.109,0l-9.729,-21.971l-45.262,0.001l-9.859,21.97l-9.612,0l37.883,-83.741Z" style="fill:#fff;fill-rule:nonzero;"/><path d="M1374.48,107.672l5.817,-6.888c8.675,7.842 16.987,11.754 28.504,11.754c11.162,0 18.537,-5.941 18.537,-14.129l0,-0.246c0,-7.712 -4.162,-12.116 -21.625,-15.791c-19.12,-4.154 -27.912,-10.334 -27.912,-24l-0,-0.229c-0,-13.067 11.525,-22.688 27.321,-22.688c12.116,0 20.787,3.446 29.216,10.217l-5.458,7.246c-7.725,-6.296 -15.442,-9.03 -23.992,-9.03c-10.808,0 -17.691,5.934 -17.691,13.425l-0,0.234c-0,7.841 4.266,12.237 22.558,16.154c18.529,4.037 27.075,10.804 27.075,23.512l0,0.246c0,14.25 -11.875,23.513 -28.383,23.513c-13.184,-0 -23.984,-4.396 -33.967,-13.3" style="fill:#fff;fill-rule:nonzero;"/><path d="M1524.38,78.45l0,-0.233c0,-18.892 -13.771,-34.325 -32.775,-34.325c-19.004,-0 -32.55,15.2 -32.55,34.079l0,0.246c0,18.887 13.779,34.32 32.788,34.32c19.004,0 32.537,-15.2 32.537,-34.087m-75.062,-0l-0,-0.233c-0,-22.93 17.216,-42.996 42.525,-42.996c25.3,-0 42.283,19.833 42.283,42.75l-0,0.246c-0,22.925 -17.225,42.995 -42.521,42.995c-25.3,0 -42.287,-19.837 -42.287,-42.762" style="fill:#fff;fill-rule:nonzero;"/><path d="M1547.33,78.45l-0,-0.233c-0,-23.521 17.575,-42.996 42.041,-42.996c15.084,-0 24.113,5.341 32.417,13.187l-6.4,6.879c-7.021,-6.645 -14.854,-11.395 -26.133,-11.395c-18.413,-0 -32.196,14.962 -32.196,34.079l-0,0.246c-0,19.241 13.9,34.32 32.196,34.32c11.4,0 18.887,-4.391 26.837,-11.991l6.171,6.05c-8.663,8.796 -18.167,14.616 -33.25,14.616c-23.992,0 -41.683,-18.887 -41.683,-42.762" style="fill:#fff;fill-rule:nonzero;"/><rect x="1636.54" y="36.643" width="9.383" height="83.146" style="fill:#fff;"/><path d="M1721.22,89.259l-18.883,-42.283l-19.004,42.283l37.887,0Zm-23.166,-53.212l8.791,-0l37.9,83.741l-10.1,0l-9.741,-21.971l-45.254,0.001l-9.863,21.97l-9.617,0l37.884,-83.741Z" style="fill:#fff;fill-rule:nonzero;"/><path d="M1749.63,78.45l0,-0.233c0,-23.521 17.579,-42.996 42.042,-42.996c15.087,-0 24.117,5.341 32.429,13.187l-6.408,6.879c-7.021,-6.645 -14.854,-11.395 -26.134,-11.395c-18.412,-0 -32.195,14.962 -32.195,34.079l-0,0.246c-0,19.241 13.904,34.32 32.195,34.32c11.405,0 18.888,-4.391 26.838,-11.991l6.171,6.05c-8.663,8.796 -18.163,14.616 -33.25,14.616c-23.992,0 -41.688,-18.887 -41.688,-42.762" style="fill:#fff;fill-rule:nonzero;"/><path d="M1838,36.641l60.104,-0l0,8.554l-50.716,-0l-0,28.387l45.371,0l-0,8.55l-45.371,0l-0,29.096l51.308,0l0,8.559l-60.696,-0l0,-83.146Z" style="fill:#fff;fill-rule:nonzero;"/><path d="M1290.73,179.195l9.388,-0l-0,49.65l47.737,-49.65l12.121,-0l-35.633,36.345l37.171,46.792l-11.75,0l-31.955,-40.258l-17.691,17.933l-0,22.325l-9.388,0l0,-83.137Z" style="fill:#fff;fill-rule:nonzero;"/><path d="M1438.51,220.997l-0,-0.233c-0,-18.883 -13.779,-34.329 -32.788,-34.329c-19.004,-0 -32.541,15.204 -32.541,34.092l-0,0.237c-0,18.888 13.779,34.329 32.779,34.329c19.004,0 32.55,-15.208 32.55,-34.096m-75.071,0l-0,-0.233c-0,-22.925 17.225,-43 42.521,-43c25.304,0 42.287,19.838 42.287,42.763l0,0.237c0,22.921 -17.216,43.004 -42.525,43.004c-25.287,0 -42.283,-19.837 -42.283,-42.771" style="fill:#fff;fill-rule:nonzero;"/><path d="M1465.12,179.195l9.496,-0l30.296,45.37l30.287,-45.37l9.505,-0l-0,83.137l-9.388,0l0,-67.337l-30.287,44.541l-0.471,0l-30.292,-44.429l0,67.225l-9.146,0l0,-83.137Z" style="fill:#fff;fill-rule:nonzero;"/><path d="M1563.96,227.537l-0,-48.342l9.383,0l-0,47.746c-0,17.929 9.621,28.029 25.421,28.029c15.316,0 25.054,-9.267 25.054,-27.433l-0,-48.342l9.383,0l0,47.621c0,24.237 -13.896,36.825 -34.679,36.825c-20.55,-0 -34.562,-12.588 -34.562,-36.104" style="fill:#fff;fill-rule:nonzero;"/><path d="M1652.45,179.195l8.792,-0l52.379,66.629l0,-66.629l9.146,-0l-0,83.137l-7.483,0l-53.688,-68.175l0,68.175l-9.146,0l0,-83.137Z" style="fill:#fff;fill-rule:nonzero;"/><rect x="1744.16" y="179.197" width="9.388" height="83.137" style="fill:#fff;"/><path d="M1774.93,179.195l9.383,-0l-0,49.65l47.742,-49.65l12.116,-0l-35.629,36.345l37.171,46.792l-11.754,0l-31.954,-40.258l-17.692,17.933l-0,22.325l-9.383,0l-0,-83.137Z" style="fill:#fff;fill-rule:nonzero;"/><path d="M1910.7,231.805l-18.883,-42.279l-19.005,42.279l37.888,-0Zm-23.158,-53.208l8.791,-0l37.892,83.733l-10.1,-0l-9.733,-21.967l-45.263,0l-9.858,21.967l-9.613,-0l37.884,-83.733Z" style="fill:#fff;fill-rule:nonzero;"/><path d="M1984.47,170.637l-8.546,0l-13.066,-14.016l8.554,-0l8.904,7.125l8.917,-7.125l8.304,-0l-13.067,14.016Zm-45.371,50.359l0,-0.229c0,-23.513 17.579,-43.005 42.05,-43.005c15.084,0 24.109,5.35 32.417,13.192l-6.408,6.888c-7.005,-6.655 -14.842,-11.405 -26.13,-11.405c-18.416,0 -32.187,14.963 -32.187,34.088l-0,0.242c-0,19.241 13.896,34.325 32.187,34.325c11.405,-0 18.884,-4.396 26.846,-12l6.175,6.058c-8.662,8.788 -18.175,14.617 -33.254,14.617c-24.004,-0 -41.696,-18.896 -41.696,-42.771" style="fill:#fff;fill-rule:nonzero;"/><path d="M2027.49,179.195l8.783,-0l52.388,66.629l-0,-66.629l9.141,-0l0,83.137l-7.487,0l-53.683,-68.175l-0,68.175l-9.142,0l-0,-83.137Z" style="fill:#fff;fill-rule:nonzero;"/><path d="M2132.01,156.51l9.383,4.271l-13.654,11.041l-7.608,0l11.879,-15.312Zm-12.821,22.683l9.379,0l0,83.138l-9.379,-0l-0,-83.138Z" style="fill:#fff;fill-rule:nonzero;"/><path d="M2146.27,220.997l0,-0.233c0,-23.512 17.588,-43 42.055,-43c15.083,0 24.112,5.346 32.425,13.192l-6.417,6.883c-7.013,-6.65 -14.85,-11.404 -26.129,-11.404c-18.409,-0 -32.192,14.967 -32.192,34.092l0,0.237c0,19.242 13.9,34.329 32.192,34.329c11.404,0 18.891,-4.396 26.841,-12l6.171,6.059c-8.662,8.783 -18.166,14.616 -33.25,14.616c-23.991,0 -41.696,-18.9 -41.696,-42.771" style="fill:#fff;fill-rule:nonzero;"/><path d="M2234.66,179.195l9.383,-0l-0,36.937l47.979,0l0,-36.937l9.383,-0l0,83.137l-9.383,0l0,-37.404l-47.979,-0l-0,37.404l-9.383,0l-0,-83.137Z" style="fill:#fff;fill-rule:nonzero;"/><path d="M1344.66,374.367l-18.892,-42.28l-19,42.28l37.892,-0Zm-23.167,-53.213l8.792,0l37.896,83.742l-10.109,-0l-9.729,-21.979l-45.262,-0l-9.859,21.979l-9.612,-0l37.883,-83.742Z" style="fill:#fff;fill-rule:nonzero;"/><path d="M1373.06,363.555l-0,-0.237c-0,-22.8 16.746,-42.992 41.692,-42.992c14.012,0 22.687,4.038 30.995,11.038l-6.05,7.129c-6.42,-5.579 -13.545,-9.492 -25.295,-9.492c-18.417,0 -31.596,15.554 -31.596,34.088l-0,0.229c-0,19.837 12.708,34.567 32.896,34.567c9.495,-0 18.291,-3.684 23.995,-8.317l0,-20.671l-25.295,0l-0,-8.425l34.32,0l0,33.133c-7.72,6.896 -19.362,12.717 -33.383,12.717c-26.121,0 -42.279,-19.012 -42.279,-42.767" style="fill:#fff;fill-rule:nonzero;"/><path d="M1466.9,321.746l60.104,0l0,8.559l-50.716,-0l-0,28.379l45.371,-0l-0,8.558l-45.371,0l-0,29.096l51.308,-0l0,8.558l-60.696,0l0,-83.15Z" style="fill:#fff;fill-rule:nonzero;"/><path d="M1543.53,321.746l8.779,0l52.387,66.638l0,-66.638l9.142,0l0,83.15l-7.479,0l-53.696,-68.183l0,68.183l-9.133,0l-0,-83.15Z" style="fill:#fff;fill-rule:nonzero;"/><path d="M1656.38,330.421l-27.921,0l-0,-8.675l65.333,0l0,8.675l-27.921,0l0,74.475l-9.491,0l-0,-74.475Z" style="fill:#fff;fill-rule:nonzero;"/><path d="M1707.1,370.094l0,-48.35l9.384,0l-0,47.746c-0,17.946 9.62,28.033 25.416,28.033c15.321,0 25.063,-9.262 25.063,-27.429l-0,-48.35l9.387,0l0,47.629c0,24.234 -13.9,36.821 -34.691,36.821c-20.546,0 -34.559,-12.587 -34.559,-36.1" style="fill:#fff;fill-rule:nonzero;"/><path d="M1830.53,364.153c12.47,0 21.383,-6.421 21.383,-17.104l-0,-0.242c-0,-10.212 -7.842,-16.387 -21.267,-16.387l-25.646,0l0,33.733l25.53,0Zm-34.917,-42.408l35.75,0c10.212,0 18.404,3.092 23.633,8.313c4.046,4.041 6.421,9.866 6.421,16.404l0,0.233c0,13.775 -9.504,21.854 -22.571,24.229l25.529,33.971l-11.516,0l-24.113,-32.313l-23.746,0l0,32.313l-9.387,0l-0,-83.15Z" style="fill:#fff;fill-rule:nonzero;"/><path d="M1147.16,7.07l0,425.62" style="fill:none;fill-rule:nonzero;stroke:#c6c6c6;stroke-width:10.78px;"/></g></svg>