<svg width="29" height="280" viewBox="0 0 29 280" fill="none" xmlns="http://www.w3.org/2000/svg">
<path d="M0.22319 265.005C0.29385 264.934 0.377758 264.878 0.470119 264.84C0.562481 264.801 0.661486 264.782 0.761469 264.782C0.861452 264.782 0.960455 264.801 1.05282 264.84C1.14518 264.878 1.22909 264.934 1.29975 265.005L13.6954 277.401L13.6954 245.761C13.6954 245.559 13.7755 0.36554 13.9182 0.222839C14.0609 0.0801392 14.2544 0 14.4562 0C14.6579 0 14.8515 0.0801392 14.9941 0.222839C15.1368 0.36554 15.217 0.559082 15.217 0.760864L15.217 277.401L27.6126 265.005C27.6833 264.934 27.7672 264.878 27.8596 264.84C27.9519 264.802 28.0509 264.782 28.1509 264.782C28.2508 264.782 28.3498 264.802 28.4422 264.84C28.5345 264.878 28.6185 264.934 28.6891 265.005C28.7598 265.076 28.8159 265.159 28.8542 265.252C28.8924 265.344 28.9121 265.443 28.9121 265.543C28.9121 265.643 28.8924 265.742 28.8542 265.834C28.8159 265.927 28.7598 266.011 28.6891 266.081L14.9944 279.777C14.9238 279.848 14.8399 279.904 14.7475 279.942C14.6552 279.98 14.5562 280 14.4562 280C14.3562 280 14.2572 279.98 14.1648 279.942C14.0725 279.904 13.9886 279.848 13.9179 279.777L0.22319 266.081C0.152452 266.011 0.0963345 265.927 0.0580463 265.834C0.0197582 265.742 5.34058e-05 265.643 5.34058e-05 265.543C5.34058e-05 265.443 0.0197582 265.344 0.0580463 265.252C0.0963345 265.159 0.152452 265.075 0.22319 265.005Z" fill="#22FFAF"/>
</svg>
