<svg width="92" height="52" viewBox="0 0 92 52" fill="none" xmlns="http://www.w3.org/2000/svg">
<path d="M13.2752 10.8387C13.5112 11.2667 13.8122 11.5277 14.1732 11.6217C14.6222 11.7377 15.1822 11.5997 15.7932 11.2217C17.9142 10.0857 19.3802 7.86075 19.5382 5.54675C19.5852 4.02675 18.8543 3.24575 17.0963 2.94375C15.6153 3.39975 14.0002 5.12275 13.2422 7.06175C12.6682 8.53075 12.6802 9.87275 13.2752 10.8387ZM23.9433 8.02075C22.5073 11.6997 18.4892 14.0947 14.4232 14.0947C13.3512 14.0947 12.2762 13.9287 11.2442 13.5757C9.72725 13.1277 8.65625 12.1567 8.15525 10.7697C7.53525 9.05175 7.88625 6.90975 9.07125 5.17875C11.1632 1.86375 14.7003 -0.121251 18.3003 0.00574906C18.3003 0.00574906 20.3832 0.038749 20.9632 0.692749C21.1072 0.864749 21.1983 1.46475 21.1933 1.69375C22.5443 2.08275 23.4452 2.59575 24.1322 3.73075C24.7002 4.96175 24.6333 6.48475 23.9433 8.02075ZM19.2372 35.6537C18.9192 29.2987 18.6283 23.4217 17.8363 18.4327C17.6653 17.8047 16.9512 16.3787 14.0162 16.6987C12.8682 16.8337 12.0522 17.3307 11.5222 18.2217C9.41025 21.8477 7.71425 25.7417 6.19725 29.4107C3.45825 36.1497 1.47125 41.8648 0.0262493 49.5158C-0.0667507 49.9578 0.0882493 50.3078 0.477249 50.5298C1.09225 50.8588 1.79525 51.0228 2.49825 51.0228C3.18525 51.0228 3.87125 50.8647 4.46925 50.5487L4.53825 50.5127L4.81925 49.4667C7.25525 40.3687 9.36525 32.4887 13.6902 23.9217C14.1132 28.6717 14.2932 33.1818 14.4852 37.9468C14.5592 39.7888 14.6352 41.6947 14.7272 43.6057C14.7702 44.4407 14.7852 45.3997 14.8002 46.3277C14.8132 47.1607 14.8272 48.0217 14.8602 48.7747C14.8782 49.4887 15.2402 50.0798 15.8792 50.4408C16.7382 50.9258 17.9973 50.9277 18.8713 50.4457C19.9263 49.8657 19.8373 48.3047 19.6593 45.1937C19.6173 44.4577 19.3522 37.9477 19.2372 35.6537ZM85.1619 24.6477L88.4159 21.2047H91.575L88.3019 24.7427L91.8209 31.0617H88.6619L86.1079 26.5587L85.1619 27.4857V31.0617H82.3049V16.7777H85.1619V24.6477ZM77.5939 25.0267C77.5939 23.6077 77.0829 23.0587 76.1559 23.0587C75.3419 23.0587 74.5289 23.5887 74.5289 25.0267H77.5939ZM71.4829 26.1617C71.4829 22.6047 73.6589 20.9967 76.3069 20.9967C79.2969 20.9967 80.5449 22.8127 80.5449 25.5567C80.5449 25.8777 80.5259 26.5027 80.4889 26.8427H74.491C74.548 28.4697 75.229 29.0757 76.478 29.0757C77.499 29.0757 77.8969 28.5077 78.0859 27.6757L80.4889 28.2617C80.1289 30.0967 78.6529 31.2887 76.3069 31.2887C72.6559 31.2887 71.4829 28.8297 71.4829 26.1617ZM74.8689 20.2397L72.9579 17.1367L74.8879 17.0427L76.269 18.8397L77.7069 17.0237L79.5799 17.1367L77.5939 20.2397H74.8689ZM64.2929 31.0617L60.8119 21.2047H63.8959L65.9959 28.3187H66.0719L68.172 21.2047H71.104L67.6229 31.0617H64.2929ZM57.3689 26.0667C57.3689 23.9107 56.7819 23.1537 55.5139 23.1537C54.2279 23.1537 53.5089 23.9667 53.5089 26.1047C53.5089 28.2997 54.0579 29.1697 55.4579 29.1697C56.7059 29.1697 57.3689 28.3757 57.3689 26.0667ZM50.5199 26.1807C50.5199 23.0207 52.1659 20.9967 55.5899 20.9967C59.0149 20.9967 60.3389 23.0587 60.3389 25.9727C60.3389 29.1887 58.8629 31.2887 55.3249 31.2887C51.7489 31.2887 50.5199 29.1317 50.5199 26.1807ZM48.7979 31.0617H45.9409V16.7777H48.7979V31.0617ZM32.3759 24.3647C32.3759 20.0127 34.6839 17.1177 38.9789 17.1177C42.0439 17.1177 44.2199 18.5937 44.3709 22.0367L41.7029 22.2647C41.5329 20.3157 40.7009 19.5207 38.9409 19.5207C36.7089 19.5207 35.3839 20.9587 35.3839 24.2127C35.3839 27.5807 36.5759 28.8857 38.7329 28.8857C40.7009 28.8857 41.3819 27.8647 41.7029 26.4267L44.3329 26.8807C43.8979 30.1537 41.155 31.2887 38.695 31.2887C34.154 31.2887 32.3759 28.6027 32.3759 24.3647ZM38.9219 15.0557L40.341 13.6747L42.2709 13.8067L40.2459 16.4937H37.5979L35.6679 13.8067L37.5599 13.6937L38.9219 15.0557ZM83.9959 40.1247H81.1389V49.9818H83.9959V40.1247ZM84.299 37.0977C84.299 35.9997 83.656 35.3757 82.577 35.3757C81.48 35.3757 80.8549 35.9997 80.8549 37.0977C80.8549 38.1947 81.48 38.8377 82.577 38.8377C83.656 38.8377 84.299 38.1947 84.299 37.0977ZM79.0009 43.2467C79.0009 40.9947 78.055 39.9167 75.88 39.9167C74.536 39.9167 73.4579 40.4457 72.7389 41.1087L72.588 40.1247H70.0519V49.9818H72.909V43.0007C73.288 42.6597 74.063 42.2248 74.839 42.2248C75.728 42.2248 76.145 42.6787 76.145 43.7377V49.9818H79.0009V43.2467ZM64.0929 50.2087C66.5329 50.2087 68.4439 49.1308 68.4439 46.8978C68.4439 44.5898 66.6089 44.2107 64.9819 43.9087C63.7519 43.6817 62.9579 43.5297 62.9579 42.7547C62.9579 42.2057 63.3549 41.8088 64.3009 41.8088C65.3409 41.8088 65.7579 42.3947 65.9849 43.2467L68.2739 42.5648C67.8009 40.9008 66.571 39.9167 64.339 39.9167C62.125 39.9167 60.2329 40.9568 60.2329 43.1138C60.2329 45.5168 62.2199 45.8947 63.7899 46.1787C64.9249 46.3867 65.6819 46.5947 65.6819 47.3517C65.6819 47.9947 65.152 48.3167 64.187 48.3167C62.844 48.3167 62.4469 47.5787 62.2199 46.8027L59.9119 47.5977C60.2329 49.2437 61.5759 50.2087 64.0929 50.2087ZM58.4169 40.1247H55.5599V49.9818H58.4169V40.1247ZM59.9309 35.9247H56.8849L55.466 38.9897L57.3759 39.1597L59.9309 35.9247ZM53.8769 47.4847C53.4979 47.7117 52.8169 47.9387 52.2489 47.9387C51.3409 47.9387 51.0949 47.4848 51.0949 46.6138V42.2057H53.7059V40.1247H51.0949V36.8327L48.2379 37.2108V40.1247H46.7629V42.2057H48.2379V47.0117C48.2379 49.2627 49.3169 50.2087 51.3789 50.2087C52.6279 50.2087 53.7819 49.8308 54.2739 49.5088L53.8769 47.4847ZM39.4409 49.9818L42.9219 40.1247H39.9899L37.8899 47.2388H37.8139L35.7139 40.1247H32.6299L36.1109 49.9818H39.4409Z" fill="white"/>
</svg>
