<svg width="172" height="197" viewBox="0 0 172 197" fill="none" xmlns="http://www.w3.org/2000/svg">
<mask id="mask0_226_154" style="mask-type:luminance" maskUnits="userSpaceOnUse" x="1" y="0" width="170" height="197">
<path d="M170.883 0H1.11694V197H170.883V0Z" fill="white"/>
</mask>
<g mask="url(#mask0_226_154)">
<mask id="mask1_226_154" style="mask-type:luminance" maskUnits="userSpaceOnUse" x="1" y="0" width="170" height="197">
<path d="M1.11694 0H170.883V197H1.11694V0Z" fill="white"/>
</mask>
<g mask="url(#mask1_226_154)">
<path d="M45.7923 82.6955H40.3196V108.888H30.1559V82.6955H26.3362V73.7409H30.1559V72.7335C30.0328 70.9364 30.283 69.1331 30.8904 67.4378C31.498 65.7425 32.4496 64.1918 33.6853 62.8835C36.5836 60.4593 40.3068 59.2556 44.0723 59.5256H45.7476V68.6592C44.3095 68.4134 42.8319 68.7257 41.6151 69.5323C41.1579 70.0546 40.8143 70.6668 40.6066 71.3299C40.3989 71.993 40.3316 72.6921 40.4089 73.3827V73.6961H45.7923V82.6507V82.6955Z" fill="white"/>
<path d="M50.5502 81.733C51.7133 79.1872 53.5524 77.011 55.8666 75.4424C58.0948 73.9739 60.7051 73.1953 63.372 73.2038C65.5444 73.1516 67.6924 73.6687 69.6042 74.7037C71.2997 75.6372 72.7179 77.0043 73.7144 78.6661V73.7411H83.9674V108.865H73.7144V103.895C72.6799 105.55 71.2425 106.914 69.5372 107.858C67.6341 108.897 65.4941 109.421 63.3274 109.38C60.6741 109.39 58.0776 108.611 55.8666 107.142C53.5459 105.532 51.7077 103.318 50.5502 100.739C49.2017 97.7448 48.5378 94.4865 48.6068 91.2024C48.5376 87.9324 49.2017 84.6889 50.5502 81.7106M71.57 84.9119C70.9143 84.1827 70.1133 83.6 69.2187 83.2011C68.3241 82.8022 67.3557 82.596 66.3764 82.596C65.3972 82.596 64.4291 82.8022 63.5342 83.2011C62.6396 83.6 61.8386 84.1827 61.1829 84.9119C59.6515 86.6472 58.8509 88.9101 58.9492 91.2248C58.8531 93.566 59.6519 95.8561 61.1829 97.6273C61.8348 98.3625 62.6347 98.951 63.5297 99.354C64.4248 99.7569 65.3952 99.9653 66.3764 99.9653C67.3577 99.9653 68.3281 99.7569 69.2232 99.354C70.1185 98.951 70.9181 98.3625 71.57 97.6273C73.1124 95.8805 73.9138 93.5993 73.8037 91.2696C73.9138 88.9396 73.1124 86.6584 71.57 84.9119Z" fill="white"/>
<path d="M142.157 77.367C144.642 80.4705 145.891 84.3863 145.664 88.3587V108.887H135.456V89.7915C135.576 87.8165 134.954 85.868 133.713 84.3292C132.461 83.0986 130.777 82.4093 129.022 82.4093C127.268 82.4093 125.584 83.0986 124.332 84.3292C123.099 85.8712 122.485 87.8195 122.612 89.7915V108.887H112.336V73.7404H122.612V78.352C123.667 76.7814 125.115 75.5155 126.811 74.6807C128.65 73.7447 130.691 73.2759 132.753 73.3151C134.515 73.2448 136.271 73.5678 137.894 74.2609C139.516 74.954 140.965 75.9995 142.135 77.3223" fill="white"/>
<path d="M87.0057 61.5627L86.4026 60.4434H97.5714L97.7501 60.8239C99.1219 63.6119 100.279 66.5007 101.212 69.4651H90.9371C89.8868 66.6925 88.6091 64.012 87.1174 61.4507" fill="white"/>
<path d="M104.049 88.8291C104.067 98.5029 101.874 108.052 97.6378 116.745L97.4591 117.125H86.2903L86.8934 116.096C91.7065 107.818 94.2425 98.4093 94.2425 88.8291C94.2805 83.7774 93.6188 78.7447 92.2768 73.875H102.284C103.461 78.772 104.053 83.7919 104.049 88.8291Z" fill="white"/>
<path d="M86.0001 4.47727C102 4.58661 117.705 8.80498 131.616 16.7296C145.526 24.6541 157.176 36.0203 165.455 49.7425L165.656 50.0783H170.883L170.258 48.9814C161.709 34.1504 149.431 21.8235 134.647 13.2294C119.863 4.63528 103.091 0.0739628 86.0001 0C68.91 0.076207 52.1382 4.63845 37.3549 13.2324C22.5716 21.8262 10.2932 34.1517 1.7424 48.9814L1.11694 50.0783H6.34396L6.545 49.7425C14.7316 35.937 26.3621 24.5043 40.293 16.5679C54.2238 8.63155 69.9757 4.4648 86.0001 4.47727Z" fill="white"/>
<path d="M86.0001 197C103.092 196.931 119.866 192.371 134.65 183.777C149.435 175.182 161.712 162.853 170.258 148.019L170.883 146.922H165.656L165.455 147.28C157.188 161.011 145.54 172.384 131.626 180.306C117.713 188.228 102.002 192.435 86.0001 192.523C69.9965 192.431 54.2848 188.219 40.3716 180.293C26.4586 172.367 14.8107 160.992 6.545 147.258L6.34396 146.899H1.11694L1.7424 148.019C10.2966 162.845 22.5758 175.168 37.3582 183.762C52.1406 192.355 68.9109 196.919 86.0001 197Z" fill="white"/>
<path d="M85.9999 175.173C97.0237 175.168 107.912 172.742 117.9 168.066C127.887 163.39 136.732 156.578 143.81 148.108L144.815 146.899H138.895L138.672 147.146C132.018 154.531 123.892 160.434 114.819 164.475C105.746 168.516 95.9285 170.604 85.9999 170.604C76.0715 170.604 66.2534 168.516 57.1805 164.475C48.1074 160.434 39.9814 154.531 33.3277 147.146L33.1043 146.899H27.1848L28.19 148.108C35.2704 156.575 44.1147 163.386 54.1019 168.062C64.0891 172.738 74.9767 175.165 85.9999 175.173Z" fill="white"/>
<path d="M86.0005 26.3932C95.9256 26.4156 105.737 28.5139 114.807 32.5537C123.876 36.5936 132.005 42.4859 138.673 49.8541L138.896 50.078H144.816L143.81 48.8691C136.734 40.4013 127.892 33.5911 117.906 28.9184C107.92 24.2459 97.0326 21.8242 86.0117 21.8242C74.9907 21.8242 64.1036 24.2459 54.1175 28.9184C44.1314 33.5911 35.2889 40.4013 28.213 48.8691L27.2078 50.078H33.1272L33.3506 49.8541C40.0164 42.4899 48.1417 36.5998 57.2072 32.5602C66.2728 28.5206 76.0792 26.4201 86.0005 26.3932Z" fill="white"/>
<path d="M61.0045 135.751L58.7707 131.721H58.525V135.751H55.5094V124.781H60.2673C61.0389 124.754 61.8055 124.915 62.5011 125.251C63.0785 125.519 63.5612 125.957 63.886 126.505C64.1925 127.051 64.3469 127.67 64.3328 128.296C64.3489 129 64.1373 129.692 63.7297 130.266C63.3001 130.873 62.6648 131.302 61.9426 131.475L64.3998 135.751H61.0045ZM58.5473 129.639H60.0439C60.2097 129.65 60.3761 129.629 60.5334 129.575C60.6906 129.521 60.8356 129.436 60.9598 129.326C61.0695 129.214 61.1539 129.081 61.208 128.934C61.2618 128.788 61.2839 128.631 61.2725 128.475C61.2792 128.321 61.2529 128.167 61.195 128.024C61.1371 127.881 61.0494 127.753 60.9375 127.647C60.8115 127.54 60.6656 127.459 60.5086 127.409C60.3513 127.36 60.1858 127.341 60.0216 127.356H58.525V129.594L58.5473 129.639Z" fill="white"/>
<path d="M75.6577 133.96H71.7933L71.2125 135.751H68.1299L72.0837 124.781H75.5683L79.5221 135.751H76.2385L75.6577 133.96ZM74.8982 131.721L73.7143 128.184L72.5974 131.631L74.8982 131.721Z" fill="white"/>
<path d="M90.7801 125.475C91.6167 125.918 92.3073 126.594 92.7682 127.423C93.2444 128.293 93.4834 129.274 93.4606 130.266C93.4633 131.257 93.2011 132.231 92.7012 133.086C92.2283 133.911 91.5412 134.592 90.7131 135.056C89.7897 135.537 88.7601 135.776 87.7199 135.75H83.498V124.781H87.7869C88.8262 124.764 89.8538 125.002 90.7801 125.475ZM89.6409 132.325C89.9063 132.056 90.1111 131.733 90.2422 131.378C90.3731 131.022 90.427 130.643 90.4004 130.266C90.4392 129.884 90.3926 129.498 90.2635 129.136C90.1343 128.775 89.9262 128.447 89.6541 128.176C89.382 127.906 89.0532 127.7 88.6913 127.573C88.3297 127.447 87.9444 127.403 87.5635 127.445H86.5136V133.064H87.5635C88.3263 133.103 89.0735 132.838 89.6409 132.325Z" fill="white"/>
<path d="M100.922 124.781H97.9062V135.751H100.922V124.781Z" fill="white"/>
<path d="M108.115 135.146C107.268 134.678 106.571 133.98 106.104 133.132C105.588 132.258 105.325 131.258 105.345 130.244C105.339 129.224 105.601 128.22 106.104 127.333C106.578 126.496 107.274 125.806 108.115 125.341C108.978 124.869 109.946 124.623 110.929 124.625C111.914 124.609 112.886 124.857 113.744 125.341C114.585 125.806 115.28 126.496 115.754 127.333C116.251 128.222 116.505 129.226 116.491 130.244C116.507 131.255 116.253 132.252 115.754 133.132C115.273 133.976 114.57 134.673 113.721 135.146C112.874 135.641 111.909 135.896 110.929 135.885C109.942 135.892 108.971 135.637 108.115 135.146ZM112.806 132.281C113.239 131.686 113.473 130.969 113.473 130.232C113.473 129.496 113.239 128.778 112.806 128.184C112.579 127.924 112.296 127.721 111.979 127.589C111.661 127.457 111.317 127.4 110.974 127.423C110.632 127.408 110.29 127.468 109.974 127.6C109.657 127.731 109.374 127.931 109.142 128.184C108.667 128.761 108.427 129.497 108.472 130.244C108.428 130.983 108.668 131.712 109.142 132.281C109.368 132.541 109.651 132.744 109.969 132.876C110.287 133.008 110.631 133.065 110.974 133.042C111.316 133.057 111.657 132.996 111.974 132.865C112.29 132.733 112.574 132.534 112.806 132.281Z" fill="white"/>
</g>
</g>
</svg>
