<svg width="77" height="88" viewBox="0 0 77 88" fill="none" xmlns="http://www.w3.org/2000/svg">
<g clip-path="url(#clip0_204_679)">
<mask id="mask0_204_679" style="mask-type:luminance" maskUnits="userSpaceOnUse" x="0" y="0" width="77" height="88">
<path d="M0.5 0H76.5V88H0.5V0Z" fill="white"/>
</mask>
<g mask="url(#mask0_204_679)">
<path d="M20.5 36.94H18.05V48.64H13.5V36.94H11.79V32.94H13.5V32.49C13.4449 31.6872 13.5569 30.8817 13.8288 30.1244C14.1008 29.3671 14.5268 28.6744 15.08 28.09C16.3775 27.0071 18.0443 26.4694 19.73 26.59H20.48V30.67C19.8362 30.5602 19.1747 30.6997 18.63 31.06C18.4253 31.2933 18.2715 31.5668 18.1785 31.863C18.0855 32.1592 18.0554 32.4715 18.09 32.78V32.92H20.5V36.92V36.94Z" fill="white"/>
<path d="M22.63 36.51C23.1507 35.3728 23.974 34.4007 25.01 33.7C26.0075 33.044 27.1761 32.6962 28.37 32.7C29.3425 32.6767 30.3041 32.9077 31.16 33.37C31.919 33.787 32.5539 34.3977 33 35.14V32.94H37.59V48.63H33V46.41C32.5369 47.1491 31.8934 47.7582 31.13 48.18C30.278 48.644 29.32 48.8784 28.35 48.86C27.1622 48.8646 25.9998 48.5165 25.01 47.86C23.9711 47.141 23.1482 46.1521 22.63 45C22.0263 43.6625 21.7291 42.207 21.76 40.74C21.729 39.2793 22.0263 37.8304 22.63 36.5M32.04 37.93C31.7465 37.6043 31.3879 37.344 30.9874 37.1658C30.5869 36.9876 30.1534 36.8955 29.715 36.8955C29.2766 36.8955 28.8432 36.9876 28.4426 37.1658C28.0421 37.344 27.6835 37.6043 27.39 37.93C26.7044 38.7052 26.346 39.716 26.39 40.75C26.347 41.7958 26.7046 42.8188 27.39 43.61C27.6818 43.9384 28.0399 44.2013 28.4406 44.3813C28.8413 44.5613 29.2757 44.6544 29.715 44.6544C30.1543 44.6544 30.5887 44.5613 30.9894 44.3813C31.3902 44.2013 31.7482 43.9384 32.04 43.61C32.7305 42.8297 33.0893 41.8107 33.04 40.77C33.0893 39.7292 32.7305 38.7102 32.04 37.93Z" fill="white"/>
<path d="M63.64 34.5601C64.7523 35.9464 65.3116 37.6956 65.21 39.4701V48.6401H60.64V40.1101C60.6937 39.2279 60.4155 38.3575 59.86 37.6701C59.2993 37.1204 58.5453 36.8125 57.76 36.8125C56.9748 36.8125 56.2208 37.1204 55.66 37.6701C55.1081 38.3589 54.8335 39.2292 54.89 40.1101V48.6401H50.29V32.9401H54.89V35.0001C55.3626 34.2985 56.0108 33.733 56.77 33.3601C57.5934 32.942 58.5068 32.7326 59.43 32.7501C60.219 32.7187 61.005 32.863 61.7314 33.1726C62.4577 33.4822 63.1063 33.9492 63.63 34.5401" fill="white"/>
<path d="M38.9502 27.5L38.6802 27H43.6802L43.7602 27.17C44.3743 28.4154 44.8925 29.7058 45.3102 31.03H40.7102C40.24 29.7915 39.668 28.5941 39.0002 27.45" fill="#FF7900"/>
<path d="M46.5799 39.68C46.5882 44.0013 45.6064 48.2671 43.7099 52.15L43.6299 52.32H38.6299L38.8999 51.86C41.0546 48.1625 42.1899 43.9595 42.1899 39.68C42.2069 37.4234 41.9107 35.1753 41.3099 33H45.7899C46.3167 35.1875 46.5819 37.4299 46.5799 39.68Z" fill="white"/>
<path d="M38.5 2C45.6629 2.04884 52.6937 3.93319 58.9209 7.4731C65.1481 11.013 70.3638 16.0903 74.07 22.22L74.16 22.37H76.5L76.22 21.88C72.3928 15.255 66.8962 9.74856 60.278 5.90957C53.6597 2.07058 46.151 0.0330392 38.5 0C30.8492 0.0340417 23.3409 2.072 16.7228 5.9109C10.1047 9.74979 4.60798 15.2556 0.78 21.88L0.5 22.37H2.84L2.93 22.22C6.59495 16.0531 11.8016 10.9461 18.0381 7.4009C24.2746 3.85572 31.3263 1.99443 38.5 2Z" fill="#FF7900"/>
<path d="M38.5 88C46.1514 87.969 53.6609 85.9323 60.2795 82.0931C66.8981 78.2539 72.3943 72.7464 76.22 66.12L76.5 65.63H74.16L74.07 65.79C70.3691 71.9238 65.1543 77.0038 58.9257 80.5427C52.6971 84.0816 45.6637 85.9608 38.5 86C31.3356 85.9588 24.3019 84.0777 18.0733 80.5371C11.8448 76.9964 6.63036 71.915 2.93 65.78L2.84 65.62H0.5L0.78 66.12C4.60951 72.743 10.1066 78.2478 16.7243 82.0864C23.342 85.9251 30.8496 87.9639 38.5 88Z" fill="#FF7900"/>
<path d="M38.4999 78.25C43.435 78.2476 48.3095 77.1639 52.7807 75.0751C57.2519 72.9864 61.2112 69.9433 64.3799 66.16L64.8299 65.62H62.1799L62.0799 65.73C59.1012 69.0289 55.4634 71.6661 51.4017 73.4711C47.3399 75.2761 42.9447 76.2088 38.4999 76.2088C34.0552 76.2088 29.6599 75.2761 25.5982 73.4711C21.5364 71.6661 17.8986 69.0289 14.9199 65.73L14.8199 65.62H12.1699L12.6199 66.16C15.7896 69.9423 19.749 72.9846 24.22 75.0732C28.691 77.1619 33.5651 78.2462 38.4999 78.25Z" fill="#FF7900"/>
<path d="M38.5002 11.79C42.9434 11.8 47.3357 12.7373 51.396 14.5419C55.4563 16.3465 59.0953 18.9786 62.0802 22.27L62.1802 22.37H64.8302L64.3802 21.83C61.2124 18.0474 57.2539 15.0053 52.7834 12.918C48.3128 10.8308 43.439 9.74902 38.5052 9.74902C33.5714 9.74902 28.6975 10.8308 24.227 12.918C19.7565 15.0053 15.7979 18.0474 12.6302 21.83L12.1802 22.37H14.8302L14.9302 22.27C17.9143 18.9804 21.5518 16.3493 25.6102 14.5448C29.6686 12.7403 34.0587 11.802 38.5002 11.79Z" fill="#FF7900"/>
<path d="M27.3101 60.64L26.3101 58.84H26.2001V60.64H24.8501V55.74H26.9801C27.3255 55.7278 27.6687 55.7999 27.9801 55.95C28.2386 56.0697 28.4547 56.265 28.6001 56.51C28.7373 56.7539 28.8064 57.0302 28.8001 57.31C28.8073 57.6247 28.7126 57.9334 28.5301 58.19C28.3378 58.4611 28.0534 58.653 27.7301 58.73L28.8301 60.64H27.3101ZM26.2101 57.91H26.8801C26.9543 57.915 27.0288 57.9053 27.0992 57.8812C27.1696 57.8572 27.2345 57.8194 27.2901 57.77C27.3392 57.7203 27.377 57.6606 27.4012 57.5951C27.4253 57.5296 27.4352 57.4596 27.4301 57.39C27.4331 57.3211 27.4213 57.2525 27.3954 57.1886C27.3695 57.1248 27.3302 57.0673 27.2801 57.02C27.2237 56.9723 27.1584 56.9363 27.0881 56.914C27.0177 56.8917 26.9436 56.8835 26.8701 56.89H26.2001V57.89L26.2101 57.91Z" fill="white"/>
<path d="M33.87 59.84H32.14L31.88 60.64H30.5L32.27 55.74H33.83L35.6 60.64H34.13L33.87 59.84ZM33.53 58.84L33 57.26L32.5 58.8L33.53 58.84Z" fill="white"/>
<path d="M40.6399 56.05C41.0144 56.2478 41.3236 56.55 41.5299 56.92C41.7431 57.3087 41.8501 57.7468 41.8399 58.19C41.8411 58.6328 41.7237 59.0679 41.4999 59.45C41.2882 59.8184 40.9806 60.1225 40.6099 60.33C40.1965 60.5448 39.7356 60.6514 39.2699 60.64H37.3799V55.74H39.2999C39.7652 55.7324 40.2252 55.8388 40.6399 56.05ZM40.1299 59.11C40.2487 58.9896 40.3404 58.8453 40.3991 58.6867C40.4577 58.528 40.4818 58.3587 40.4699 58.19C40.4873 58.0194 40.4664 57.847 40.4086 57.6855C40.3508 57.524 40.2576 57.3775 40.1358 57.2567C40.014 57.1359 39.8668 57.0439 39.7048 56.9873C39.5429 56.9308 39.3704 56.9112 39.1999 56.93H38.7299V59.44H39.1999C39.5414 59.4576 39.8759 59.3389 40.1299 59.11Z" fill="white"/>
<path d="M45.1801 55.74H43.8301V60.64H45.1801V55.74Z" fill="white"/>
<path d="M48.4001 60.37C48.0211 60.161 47.709 59.849 47.5001 59.47C47.2692 59.0799 47.1514 58.6332 47.1601 58.18C47.1576 57.7243 47.2748 57.276 47.5001 56.88C47.7122 56.5059 48.0237 56.1979 48.4001 55.99C48.7866 55.7792 49.2199 55.6691 49.6601 55.67C50.101 55.6632 50.5359 55.7736 50.9201 55.99C51.2965 56.1979 51.608 56.5059 51.8201 56.88C52.0424 57.2768 52.1562 57.7252 52.1501 58.18C52.1573 58.6317 52.0433 59.0772 51.8201 59.47C51.6047 59.8474 51.2899 60.1587 50.9101 60.37C50.5309 60.5908 50.0989 60.7049 49.6601 60.7C49.2183 60.7032 48.7836 60.5894 48.4001 60.37ZM50.5001 59.09C50.6943 58.8244 50.799 58.504 50.799 58.175C50.799 57.846 50.6943 57.5255 50.5001 57.26C50.3988 57.144 50.2721 57.053 50.1299 56.994C49.9877 56.935 49.8337 56.9097 49.6801 56.92C49.5269 56.9133 49.3741 56.9403 49.2324 56.9991C49.0908 57.0578 48.9637 57.1469 48.8601 57.26C48.6473 57.5176 48.5401 57.8464 48.5601 58.18C48.5406 58.5104 48.6479 58.8359 48.8601 59.09C48.9614 59.206 49.0881 59.297 49.2303 59.356C49.3726 59.4149 49.5265 59.4403 49.6801 59.43C49.8333 59.4366 49.9861 59.4096 50.1278 59.3509C50.2695 59.2922 50.3966 59.2031 50.5001 59.09Z" fill="white"/>
</g>
</g>
<defs>
<clipPath id="clip0_204_679">
<rect width="76" height="88" fill="white" transform="translate(0.5)"/>
</clipPath>
</defs>
</svg>
