<svg width="31" height="19" viewBox="0 0 31 19" fill="none" xmlns="http://www.w3.org/2000/svg">
<path d="M0 15.2C0 17.2987 1.70132 19 3.8 19L27.6364 19V19C27.6364 16.9013 25.935 15.2 23.8364 15.2L0 15.2V15.2Z" fill="#252525"/>
<path d="M0 -0.000195265C0 2.09849 1.70132 3.7998 3.8 3.7998L27.6364 3.7998V3.7998C27.6364 1.70112 25.935 -0.000195265 23.8364 -0.000195265L0 -0.000195265V-0.000195265Z" fill="#252525"/>
<path d="M0 7.5999C0 9.69859 1.70132 11.3999 3.8 11.3999L30.4 11.3999V11.3999C30.4 9.30122 28.6987 7.5999 26.6 7.5999L0 7.5999V7.5999Z" fill="#252525"/>
</svg>
