<svg width="218" height="102" viewBox="0 0 218 102" fill="none" xmlns="http://www.w3.org/2000/svg">
<path d="M23.6243 19.7292V33.5397H18.0135V20.4197C18.0135 16.0793 15.8479 14.0077 12.3043 14.0077C8.26849 14.0077 5.61076 16.4739 5.61076 21.3076V33.5397H0V0H5.61076V12.2321C7.48102 10.2592 10.3356 9.17409 13.6824 9.17409C19.2931 9.17409 23.6243 12.4294 23.6243 19.7292Z" fill="white"/>
<path d="M53.5483 23.2802H34.6488C35.3379 26.8315 38.2909 29.1004 42.4252 29.1004C45.1813 29.1004 47.2485 28.2125 49.0203 26.4369L52.0717 29.8895C49.9062 32.4543 46.5594 33.8354 42.3267 33.8354C34.2551 33.8354 29.0381 28.6071 29.0381 21.406C29.0381 14.2048 34.3535 9.0752 41.5393 9.0752C48.6265 9.0752 53.7451 14.0075 53.7451 21.6033C53.6467 22.0965 53.6467 22.787 53.5483 23.2802ZM34.5504 19.5317H48.2328C47.7406 16.0791 45.0829 13.6129 41.4408 13.6129C37.7988 13.7116 35.141 16.0791 34.5504 19.5317Z" fill="white"/>
<path d="M73.0382 9.17383V14.5994C72.546 14.5007 72.1523 14.5007 71.7585 14.5007C67.4274 14.5007 64.7697 17.0655 64.7697 21.9978V33.7367H59.1589V9.46976H64.5728V13.021C66.0493 10.4562 69.0024 9.17383 73.0382 9.17383Z" fill="white"/>
<path d="M129.343 23.2802H110.444C111.133 26.8315 114.086 29.1004 118.22 29.1004C120.976 29.1004 123.043 28.2125 124.815 26.4369L127.866 29.8895C125.701 32.4543 122.354 33.8354 118.121 33.8354C110.05 33.8354 104.833 28.6071 104.833 21.406C104.833 14.2048 110.148 9.0752 117.334 9.0752C124.421 9.0752 129.54 14.0075 129.54 21.6033C129.343 22.0965 129.343 22.787 129.343 23.2802ZM110.345 19.5317H124.027C123.535 16.0791 120.878 13.6129 117.235 13.6129C113.495 13.7116 110.837 16.0791 110.345 19.5317Z" fill="white"/>
<path d="M132.099 31.1719L134.265 26.8315C136.43 28.2125 139.679 29.199 142.632 29.199C146.175 29.199 147.652 28.2125 147.652 26.5356C147.652 21.8992 132.788 26.2396 132.788 16.671C132.788 12.1332 136.923 9.0752 143.419 9.0752C146.668 9.0752 150.31 9.86437 152.475 11.1468L150.31 15.4872C148.046 14.1061 145.683 13.7116 143.419 13.7116C139.974 13.7116 138.399 14.7967 138.399 16.4737C138.399 21.406 153.263 17.0655 153.263 26.4369C153.263 30.9746 149.129 33.934 142.337 33.934C138.202 33.934 134.265 32.7503 132.099 31.1719Z" fill="white"/>
<path d="M114.184 51.8889V53.3686H120.779V57.9063H114.282V67.8695H108.671V57.9063H104.734V53.2699H108.671V51.6916C108.671 46.6606 111.723 43.3066 117.334 43.3066C119.302 43.3066 121.173 43.7012 122.452 44.589L120.877 48.8308C119.991 48.239 118.909 47.8444 117.727 47.8444C115.365 47.943 114.184 49.2254 114.184 51.8889Z" fill="white"/>
<path d="M130.425 87.893V101.703H124.815V88.5836C124.815 84.2431 122.649 82.1716 119.105 82.1716C115.07 82.1716 112.412 84.6377 112.412 89.4714V101.703H106.801V77.5352H112.215V80.6919C114.085 78.5217 117.038 77.3379 120.483 77.3379C126.193 77.3379 130.425 80.5932 130.425 87.893Z" fill="white"/>
<path d="M137.612 68.165H143.222V101.705H137.612V68.165Z" fill="white"/>
<path d="M149.916 70.2358C149.916 68.3615 151.491 66.8818 153.558 66.8818C155.625 66.8818 157.2 68.2629 157.2 70.1372C157.2 72.1101 155.724 73.6884 153.558 73.6884C151.491 73.5898 149.916 72.1101 149.916 70.2358ZM150.703 77.5356H156.314V101.704H150.703V77.5356Z" fill="white"/>
<path d="M187.517 87.893V101.703H181.907V88.5836C181.907 84.2431 179.741 82.1716 176.197 82.1716C172.162 82.1716 169.504 84.6377 169.504 89.4714V101.703H163.893V77.5352H169.307V80.6919C171.177 78.5217 174.13 77.3379 177.576 77.3379C183.186 77.3379 187.517 80.5932 187.517 87.893Z" fill="white"/>
<path d="M217.442 91.4443H198.542C199.231 94.9955 202.184 97.2644 206.318 97.2644C209.075 97.2644 211.142 96.3766 212.914 94.601L215.965 98.0536C213.799 100.618 210.453 101.999 206.22 101.999C198.148 101.999 192.931 96.7712 192.931 89.57C192.931 82.3689 198.247 77.2393 205.433 77.2393C212.52 77.2393 217.638 82.1716 217.638 89.7673C217.54 90.2605 217.54 90.9511 217.442 91.4443ZM198.542 87.6957H212.225C211.732 84.2431 209.075 81.777 205.433 81.777C201.692 81.777 199.034 84.1445 198.542 87.6957Z" fill="white"/>
<path d="M75.5972 55.5368C75.5972 48.3357 81.0111 43.2061 88.3936 43.2061C95.8747 43.2061 101.289 48.3357 101.289 55.5368C101.289 62.738 95.8747 67.9662 88.3936 67.9662C81.0111 67.9662 75.5972 62.8366 75.5972 55.5368ZM95.5794 55.5368C95.5794 50.9005 92.5279 47.9411 88.3936 47.9411C84.3578 47.9411 81.3064 50.9005 81.3064 55.5368C81.3064 60.1732 84.3578 63.1326 88.3936 63.1326C92.5279 63.1326 95.5794 60.1732 95.5794 55.5368Z" fill="white"/>
<path d="M88.3936 31.0729C92.5279 31.0729 95.5794 34.0323 95.5794 38.6687H101.289C101.289 31.4675 95.8747 26.3379 88.3936 26.3379C81.0111 26.3379 75.5972 31.4675 75.5972 38.6687H81.3064C81.3064 34.0323 84.3578 31.0729 88.3936 31.0729Z" fill="white"/>
<path d="M88.3936 14.2047C92.5279 14.2047 95.5794 17.1641 95.5794 21.8005H101.289C101.289 14.5993 95.8747 9.46973 88.3936 9.46973C81.0111 9.46973 75.5972 14.5993 75.5972 21.8005H81.3064C81.3064 17.1641 84.3578 14.2047 88.3936 14.2047Z" fill="white"/>
<path d="M88.3936 84.8366C95.8747 84.8366 101.289 79.707 101.289 72.4072H95.5794C95.5794 77.0436 92.5279 80.003 88.3936 80.003C84.3578 80.003 81.3064 77.0436 81.3064 72.4072H75.5972C75.5972 79.707 81.0111 84.8366 88.3936 84.8366Z" fill="white"/>
<path d="M88.3936 101.802C95.8747 101.802 101.289 96.6729 101.289 89.373H95.5794C95.5794 94.0094 92.5279 96.9688 88.3936 96.9688C84.3578 96.9688 81.3064 94.0094 81.3064 89.373H75.5972C75.5972 96.6729 81.0111 101.802 88.3936 101.802Z" fill="white"/>
</svg>
