<svg width="26" height="25" viewBox="0 0 26 25" fill="none" xmlns="http://www.w3.org/2000/svg">
<path d="M8.66772 12.5C8.66772 10.1989 10.6073 8.333 13.0005 8.333C15.3938 8.333 17.3344 10.1989 17.3344 12.5C17.3344 14.8011 15.3938 16.667 13.0005 16.667C10.6073 16.667 8.66772 14.8011 8.66772 12.5ZM6.32489 12.5C6.32489 16.045 9.31354 18.9186 13.0005 18.9186C16.6875 18.9186 19.6762 16.045 19.6762 12.5C19.6762 8.95497 16.6875 6.08138 13.0005 6.08138C9.31354 6.08138 6.32489 8.95497 6.32489 12.5ZM18.3803 5.82694C18.3803 6.65489 19.0786 7.32734 19.9408 7.32734C20.8019 7.32734 21.5013 6.65489 21.5013 5.82694C21.5013 4.99899 20.8029 4.32754 19.9408 4.32754C19.0786 4.32754 18.3803 4.99899 18.3803 5.82694ZM7.74781 22.6747C6.48031 22.6191 5.79143 22.4162 5.33358 22.2445C4.7266 22.0174 4.29395 21.7468 3.8382 21.3096C3.3835 20.8724 3.10101 20.4564 2.86579 19.8728C2.68727 19.4326 2.47619 18.7702 2.41843 17.5515C2.35543 16.2338 2.34282 15.838 2.34282 12.5C2.34282 9.16196 2.35648 8.76717 2.41843 7.44851C2.47619 6.22981 2.68832 5.56846 2.86579 5.12722C3.10206 4.54362 3.3835 4.12763 3.8382 3.68942C4.2929 3.25222 4.72555 2.98061 5.33358 2.75444C5.79143 2.58279 6.48031 2.37985 7.74781 2.32431C9.11822 2.26373 9.52987 2.25162 13.0005 2.25162C16.4722 2.25162 16.8828 2.26474 18.2543 2.32431C19.5218 2.37985 20.2096 2.5838 20.6685 2.75444C21.2755 2.98061 21.7081 3.25222 22.1639 3.68942C22.6186 4.12662 22.9 4.54362 23.1363 5.12722C23.3148 5.56745 23.5259 6.22981 23.5837 7.44851C23.6467 8.76717 23.6593 9.16196 23.6593 12.5C23.6593 15.837 23.6467 16.2328 23.5837 17.5515C23.5259 18.7702 23.3138 19.4326 23.1363 19.8728C22.9 20.4564 22.6186 20.8724 22.1639 21.3096C21.7092 21.7468 21.2755 22.0174 20.6685 22.2445C20.2107 22.4162 19.5218 22.6191 18.2543 22.6747C16.8839 22.7353 16.4722 22.7474 13.0005 22.7474C9.52987 22.7474 9.11822 22.7353 7.74781 22.6747M7.6407 0.075727C6.25663 0.136309 5.31152 0.347334 4.48508 0.656301C3.63028 0.975364 2.90569 1.40347 2.18216 2.09814C1.45967 2.79281 1.01442 3.4895 0.68258 4.3124C0.361242 5.10703 0.141767 6.01575 0.0787592 7.34653C0.0147017 8.67932 0 9.10541 0 12.5C0 15.8946 0.0147017 16.3207 0.0787592 17.6535C0.141767 18.9842 0.361242 19.893 0.68258 20.6876C1.01442 21.5095 1.45862 22.2072 2.18216 22.9019C2.90464 23.5965 3.62923 24.0236 4.48508 24.3437C5.31257 24.6527 6.25663 24.8637 7.6407 24.9243C9.02791 24.9849 9.47001 25 13.0005 25C16.5321 25 16.9742 24.9859 18.3604 24.9243C19.7444 24.8637 20.6895 24.6527 21.516 24.3437C22.3708 24.0236 23.0954 23.5965 23.8189 22.9019C24.5414 22.2072 24.9856 21.5095 25.3185 20.6876C25.6398 19.893 25.8603 18.9842 25.9223 17.6535C25.9853 16.3197 26 15.8946 26 12.5C26 9.10541 25.9853 8.67932 25.9223 7.34653C25.8593 6.01575 25.6398 5.10703 25.3185 4.3124C24.9856 3.49051 24.5414 2.79382 23.8189 2.09814C23.0964 1.40347 22.3708 0.975364 21.517 0.656301C20.6895 0.347334 19.7444 0.135299 18.3614 0.075727C16.9752 0.0151454 16.5321 0 13.0016 0C9.47001 0 9.02791 0.0141357 7.6407 0.075727" fill="black"/>
</svg>
