<svg width="24" height="24" viewBox="0 0 24 24" fill="none" xmlns="http://www.w3.org/2000/svg">
<g clip-path="url(#clip0_117_17199)">
<path d="M7.77724 11.6649C7.77724 9.51756 9.51756 7.7763 11.6649 7.7763C13.8123 7.7763 15.5535 9.51756 15.5535 11.6649C15.5535 13.8123 13.8123 15.5535 11.6649 15.5535C9.51756 15.5535 7.77724 13.8123 7.77724 11.6649ZM5.67511 11.6649C5.67511 14.9731 8.35672 17.6547 11.6649 17.6547C14.9731 17.6547 17.6547 14.9731 17.6547 11.6649C17.6547 8.35672 14.9731 5.67511 11.6649 5.67511C8.35672 5.67511 5.67511 8.35672 5.67511 11.6649ZM16.492 5.43766C16.492 6.2103 17.1186 6.83783 17.8922 6.83783C18.6648 6.83783 19.2923 6.2103 19.2923 5.43766C19.2923 4.66503 18.6658 4.03844 17.8922 4.03844C17.1186 4.03844 16.492 4.66503 16.492 5.43766ZM6.95184 21.1599C5.81456 21.108 5.19645 20.9186 4.78563 20.7585C4.24102 20.5465 3.85282 20.2939 3.44388 19.886C3.03589 19.478 2.78243 19.0898 2.57137 18.5451C2.41119 18.1343 2.2218 17.5162 2.16998 16.3789C2.11344 15.1493 2.10214 14.78 2.10214 11.6649C2.10214 8.54988 2.11438 8.18146 2.16998 6.9509C2.2218 5.81362 2.41213 5.19645 2.57137 4.78469C2.78337 4.24008 3.03589 3.85187 3.44388 3.44294C3.85187 3.03495 4.24008 2.78149 4.78563 2.57043C5.19645 2.41025 5.81456 2.22086 6.95184 2.16903C8.18146 2.1125 8.55082 2.10119 11.6649 2.10119C14.78 2.10119 15.1484 2.11344 16.3789 2.16903C17.5162 2.22086 18.1334 2.41119 18.5451 2.57043C19.0898 2.78149 19.478 3.03495 19.8869 3.44294C20.2949 3.85093 20.5474 4.24008 20.7594 4.78469C20.9196 5.19551 21.109 5.81362 21.1608 6.9509C21.2173 8.18146 21.2286 8.54988 21.2286 11.6649C21.2286 14.779 21.2173 15.1484 21.1608 16.3789C21.109 17.5162 20.9186 18.1343 20.7594 18.5451C20.5474 19.0898 20.2949 19.478 19.8869 19.886C19.4789 20.2939 19.0898 20.5465 18.5451 20.7585C18.1343 20.9186 17.5162 21.108 16.3789 21.1599C15.1493 21.2164 14.78 21.2277 11.6649 21.2277C8.55082 21.2277 8.18146 21.2164 6.95184 21.1599ZM6.85573 0.0706679C5.61386 0.127202 4.76585 0.32413 4.0243 0.612455C3.25732 0.910203 2.60718 1.30971 1.95797 1.95797C1.30971 2.60623 0.910203 3.25638 0.612455 4.0243C0.32413 4.76585 0.127202 5.61386 0.0706679 6.85573C0.0131913 8.09949 0 8.49711 0 11.6649C0 14.8327 0.0131913 15.2304 0.0706679 16.4741C0.127202 17.716 0.32413 18.564 0.612455 19.3055C0.910203 20.0725 1.30877 20.7236 1.95797 21.3719C2.60623 22.0201 3.25638 22.4187 4.0243 22.7174C4.76679 23.0057 5.61386 23.2026 6.85573 23.2592C8.10043 23.3157 8.49711 23.3298 11.6649 23.3298C14.8337 23.3298 15.2304 23.3166 16.4741 23.2592C17.716 23.2026 18.564 23.0057 19.3055 22.7174C20.0725 22.4187 20.7227 22.0201 21.3719 21.3719C22.0201 20.7236 22.4187 20.0725 22.7174 19.3055C23.0057 18.564 23.2036 17.716 23.2592 16.4741C23.3157 15.2294 23.3289 14.8327 23.3289 11.6649C23.3289 8.49711 23.3157 8.09949 23.2592 6.85573C23.2026 5.61386 23.0057 4.76585 22.7174 4.0243C22.4187 3.25732 22.0201 2.60718 21.3719 1.95797C20.7236 1.30971 20.0725 0.910203 19.3065 0.612455C18.564 0.32413 17.716 0.12626 16.475 0.0706679C15.2313 0.0141336 14.8337 0 11.6659 0C8.49711 0 8.10043 0.0131913 6.85573 0.0706679Z" fill="white"/>
</g>
<defs>
<clipPath id="clip0_117_17199">
<rect width="23.3298" height="23.3298" fill="white"/>
</clipPath>
</defs>
</svg>
