<svg width="28" height="26" viewBox="0 0 28 26" fill="none" xmlns="http://www.w3.org/2000/svg">
<path d="M0 3.0202C0 2.14476 0.315324 1.42254 0.945946 0.853535C1.57657 0.284503 2.39641 0 3.40541 0C4.39641 0 5.19819 0.280117 5.81081 0.840404C6.44143 1.41818 6.75676 2.17103 6.75676 3.09899C6.75676 3.93939 6.45046 4.63971 5.83784 5.2C5.20722 5.77778 4.37838 6.06667 3.35135 6.06667H3.32432C2.33332 6.06667 1.53154 5.77778 0.918919 5.2C0.306297 4.62222 0 3.89561 0 3.0202ZM0.351351 26V8.45656H6.35135V26H0.351351ZM9.67568 26H15.6757V16.204C15.6757 15.5912 15.7478 15.1185 15.8919 14.7859C16.1441 14.1906 16.527 13.6872 17.0405 13.2758C17.5541 12.8643 18.1982 12.6586 18.973 12.6586C20.991 12.6586 22 13.9805 22 16.6242V26H28V15.9414C28 13.3502 27.3694 11.3848 26.1081 10.0455C24.8468 8.70606 23.1802 8.03636 21.1081 8.03636C18.7838 8.03636 16.973 9.00808 15.6757 10.9515V11.004H15.6487L15.6757 10.9515V8.45656H9.67568C9.7117 9.01683 9.72973 10.7589 9.72973 13.6828C9.72973 16.6067 9.7117 20.7124 9.67568 26Z" fill="black"/>
</svg>
