<svg width="24" height="24" viewBox="0 0 24 24" fill="none" xmlns="http://www.w3.org/2000/svg">
<path d="M0 2.97211C0 2.20622 0.268065 1.57437 0.804171 1.07656C1.34028 0.578736 2.03724 0.329834 2.89502 0.329834C3.73749 0.329834 4.4191 0.574899 4.93991 1.06508C5.47602 1.57056 5.74408 2.22919 5.74408 3.04104C5.74408 3.77628 5.48369 4.38897 4.96288 4.87915C4.42678 5.38462 3.72216 5.63736 2.84906 5.63736H2.82609C1.98361 5.63736 1.302 5.38462 0.781195 4.87915C0.260391 4.37367 0 3.73798 0 2.97211ZM0.298692 23.0764V7.72821H5.39944V23.0764H0.298692ZM8.22552 23.0764H13.3263V14.5062C13.3263 13.9701 13.3875 13.5565 13.5101 13.2655C13.7245 12.7447 14.05 12.3043 14.4866 11.9444C14.9231 11.5844 15.4707 11.4044 16.1294 11.4044C17.8449 11.4044 18.7027 12.5609 18.7027 14.8738V23.0764H23.8035V14.2765C23.8035 12.0095 23.2674 10.2901 22.1951 9.11828C21.1229 7.94648 19.706 7.36059 17.9445 7.36059C15.9685 7.36059 14.4291 8.21071 13.3263 9.91096V9.95691H13.3033L13.3263 9.91096V7.72821H8.22552C8.25615 8.21836 8.27147 9.74245 8.27147 12.3005C8.27147 14.8585 8.25615 18.4505 8.22552 23.0764Z" fill="white"/>
</svg>
