<svg width="193" height="80" viewBox="0 0 193 80" fill="none" xmlns="http://www.w3.org/2000/svg">
<path d="M64.7161 0.0139999V79.386H71.9231V30.559H80.9731V23.295H71.9231V7.264H83.4671V0L64.7161 0.0139999ZM170.216 0.00399971V7.269H177.802V79.413H185.01V7.326H192.598V0.0620003L170.216 0.00399971ZM133.258 0.00200081V33.324C133.258 40.819 136.099 48.997 136.099 48.997C136.099 48.997 136.259 49.377 135.989 49.51C135.709 49.648 135.527 49.448 135.469 49.331C135.469 49.331 134.35 46.389 132.983 43.521C131.399 40.195 129.569 36.831 129.153 36.055C124.222 26.824 119.409 17.997 119.237 5.355L119.134 0.00200081H112.358V79.414H119.565V44.749C119.565 36.149 116.937 28.42 116.937 28.42C116.907 28.366 116.785 28.036 117.077 27.903C117.406 27.753 117.563 28.084 117.563 28.084C117.563 28.084 118.671 30.745 119.834 33.292C121.114 36.096 122.622 39.152 122.807 39.498C128.257 49.697 133.486 59.83 133.729 74.96L133.785 79.411L140.609 79.414V0.00200081H133.258ZM45.3691 0.00200081V33.324C45.3691 40.819 48.2091 48.997 48.2091 48.997C48.2091 48.997 48.3691 49.377 48.0991 49.51C47.8191 49.648 47.6391 49.448 47.5791 49.331C47.5791 49.331 46.4591 46.389 45.0931 43.521C43.5101 40.195 41.6791 36.831 41.2631 36.055C36.3331 26.824 31.5191 17.997 31.3471 5.355L31.2431 0.00200081H24.4701V79.414H31.6751V44.749C31.6751 36.149 29.0471 28.42 29.0471 28.42C29.0191 28.366 28.8951 28.036 29.1881 27.903C29.5161 27.753 29.6751 28.084 29.6751 28.084C29.6751 28.084 30.7831 30.745 31.9451 33.292C33.2251 36.096 34.7321 39.152 34.9191 39.498C40.3691 49.697 45.5981 59.83 45.8401 74.96L45.8951 79.411L52.7201 79.414V0.00200081H45.3691ZM160.704 0.667L160.563 0.00300026L153.555 0.00200081L153.723 0.659C157.179 15.229 157.311 28.463 154.111 39.987C150.572 52.5794 150.321 65.8692 153.384 78.586L153.581 79.414H160.563L160.368 78.594C157.302 65.8713 157.551 52.5746 161.093 39.976C164.64 27.197 163.771 13.592 160.704 0.667ZM98.7861 0.667L98.6451 0.00300026L91.6371 0.00200081L91.8051 0.659C95.2621 15.229 95.3931 28.463 92.1931 39.987C88.6537 52.5795 88.4037 65.8693 91.4671 78.586L91.6631 79.414H98.6451L98.4501 78.594C95.3837 65.8713 95.6333 52.5746 99.1751 39.976C102.722 27.197 101.853 13.592 98.7861 0.667ZM9.44609 0.667L9.30509 0.00300026L2.29509 0.00200081L2.46509 0.659C5.92109 15.229 6.05309 28.463 2.85309 39.987C-0.686626 52.5794 -0.936937 65.8693 2.12609 78.586L2.32409 79.414H9.30409L9.10909 78.594C6.04334 65.8712 6.29365 52.5744 9.83609 39.976C13.3821 27.197 12.5131 13.592 9.44609 0.667Z" fill="white"/>
</svg>
