<svg width="22" height="25" viewBox="0 0 22 25" fill="none" xmlns="http://www.w3.org/2000/svg">
<path d="M20.5771 23.84V21.8007C20.5771 18.422 17.4464 15.6829 13.5848 15.6829H7.9923C4.13071 15.6829 1 18.422 1 21.8007V23.84M15.6829 5.89429C15.6829 7.19233 15.1672 8.43721 14.2494 9.35507C13.3315 10.2729 12.0866 10.7886 10.7886 10.7886C9.49053 10.7886 8.24565 10.2729 7.32779 9.35507C6.40993 8.43721 5.89429 7.19233 5.89429 5.89429C5.89429 4.59624 6.40993 3.35136 7.32779 2.4335C8.24565 1.51565 9.49053 1 10.7886 1C12.0866 1 13.3315 1.51565 14.2494 2.4335C15.1672 3.35136 15.6829 4.59624 15.6829 5.89429Z" stroke="white" stroke-width="2" stroke-linecap="round" stroke-linejoin="round"/>
</svg>
