<?xml version="1.0" encoding="UTF-8" standalone="no"?><!DOCTYPE svg PUBLIC "-//W3C//DTD SVG 1.1//EN" "http://www.w3.org/Graphics/SVG/1.1/DTD/svg11.dtd"><svg width="100%" height="100%" viewBox="0 0 2105 458" version="1.1" xmlns="http://www.w3.org/2000/svg" xmlns:xlink="http://www.w3.org/1999/xlink" xml:space="preserve" xmlns:serif="http://www.serif.com/" style="fill-rule:evenodd;clip-rule:evenodd;stroke-linejoin:round;stroke-miterlimit:2;"><g><rect x="9.854" y="152.105" width="102.971" height="249.225" style="fill:#fff;"/><path d="M432.757,259.176l0,142.154l-102.971,0l0,-124.383c0,-30.984 -11.846,-42.829 -30.529,-42.829c-20.958,-0 -38.725,13.212 -38.725,50.116l0,117.096l-102.975,0l0,-249.225l97.958,0l0,24.604c19.596,-19.596 46.021,-29.162 75.18,-29.162c57.412,-0 102.062,33.262 102.062,111.629" style="fill:#fff;fill-rule:nonzero;"/><path d="M774.458,401.33l-102.97,0l-0,-338.075l102.97,0l0,338.075Zm-185.9,-236.012l0,0.454l54.221,0l0,75.179l-51.029,0l0,160.379l-102.975,0l0,-160.379l-34.171,0l0,-75.179l34.171,0l0,-1.367c0,-64.245 40.1,-105.708 111.175,-105.708c21.871,0 46.021,4.104 61.054,12.304l-24.604,71.534c-6.833,-3.188 -15.033,-5.921 -23.233,-5.921c-14.584,-0 -24.609,8.654 -24.609,28.704" style="fill:#fff;fill-rule:nonzero;"/><path d="M1092.46,152.104l-0,249.225l-97.958,-0l-0,-23.692c-18.684,19.138 -43.742,28.25 -70.625,28.25c-59.688,0 -104.796,-35.083 -104.796,-116.183l-0,-137.6l102.975,-0l-0,119.829c-0,35.542 12.3,47.383 32.35,47.383c17.766,0 35.083,-13.212 35.083,-50.116l0,-117.096l102.971,-0Z" style="fill:#fff;fill-rule:nonzero;"/><path d="M1124.79,276.49c0,-75.634 61.054,-128.942 147.167,-128.942c60.6,-0 106.166,27.792 122.566,73.812l-79.737,39.184c-10.479,-23.238 -25.517,-32.804 -43.283,-32.804c-23.238,-0 -42.375,16.4 -42.375,48.75c-0,32.808 19.137,49.208 42.375,49.208c17.766,-0 32.804,-9.571 43.283,-32.804l79.737,39.183c-16.4,46.017 -61.966,73.808 -122.566,73.808c-86.113,0 -147.167,-53.304 -147.167,-129.395" style="fill:#f00065;fill-rule:nonzero;"/><path d="M2104.03,259.176l-0,142.154l-102.971,0l-0,-124.383c-0,-30.984 -11.85,-42.829 -30.525,-42.829c-20.963,-0 -38.733,13.212 -38.733,50.116l-0,117.096l-102.971,0l-0,-249.225l97.958,0l0,24.604c19.596,-19.596 46.021,-29.162 75.183,-29.162c57.409,-0 102.059,33.262 102.059,111.629" style="fill:#f00065;fill-rule:nonzero;"/><path d="M122.679,61.337c0,33.875 -27.462,61.338 -61.337,61.338c-33.88,-0 -61.342,-27.463 -61.342,-61.338c-0,-33.875 27.462,-61.337 61.342,-61.337c33.875,-0 61.337,27.462 61.337,61.337" style="fill:#f00065;fill-rule:nonzero;"/><path d="M1773.17,280.287l-0.075,5.2c-0.025,1.596 -1.338,2.87 -2.934,2.85c-1.596,-0.025 -2.871,-1.338 -2.85,-2.934l0,-0.012l0.004,-0.092l0.088,-5.012l0.004,-0.096c0.029,-1.592 1.342,-2.858 2.933,-2.829c1.592,0.029 2.859,1.333 2.83,2.925" style="fill:#f00065;fill-rule:nonzero;"/><path d="M1746.48,389.219l-2.954,4.908l-0.063,0.1c-4.887,8.113 -15.425,10.73 -23.541,5.842c-8.117,-4.887 -10.729,-15.425 -5.842,-23.542c1.167,-1.937 2.704,-3.595 4.408,-4.879l3.738,-2.8l0.942,-0.704c7.075,-5.3 17.112,-3.862 22.412,3.217c4.021,5.366 4.154,12.441 0.9,17.858" style="fill:#f00065;fill-rule:nonzero;"/><path d="M1647.79,456.933l-5.913,0.775c-13.987,1.838 -26.812,-8.016 -28.65,-22.004c-1.758,-13.421 7.242,-25.775 20.33,-28.375l1.183,-0.229l4.171,-0.821l0.575,-0.112c13.946,-2.738 27.471,6.35 30.208,20.295c2.738,13.946 -6.35,27.471 -20.296,30.209c-0.512,0.1 -1.1,0.191 -1.608,0.262" style="fill:#f00065;fill-rule:nonzero;"/><path d="M1533.33,424.638l-4.417,-3.383c-5.454,-4.175 -6.487,-11.983 -2.313,-17.438c3.542,-4.625 9.696,-6.075 14.809,-3.862l0.621,0.271l4.333,1.875l0.158,0.071c6.655,2.879 9.713,10.604 6.838,17.258c-2.879,6.654 -10.604,9.712 -17.258,6.833c-0.988,-0.425 -1.95,-1.004 -2.771,-1.625" style="fill:#f00065;fill-rule:nonzero;"/><path d="M1462.74,336.318l-2.134,-5.029c-2.275,-5.354 0.225,-11.537 5.579,-13.812c5.359,-2.275 11.542,0.225 13.817,5.583c0.196,0.467 0.358,0.938 0.487,1.413l0.075,0.3l1.196,4.62l0.113,0.425c1.404,5.417 -1.85,10.946 -7.267,12.35c-4.925,1.275 -9.942,-1.3 -11.867,-5.85" style="fill:#f00065;fill-rule:nonzero;"/><path d="M1451.07,220.051l1.608,-5.679c3.492,-12.312 16.305,-19.467 28.621,-15.975c12.317,3.492 19.471,16.304 15.979,28.621c-0.441,1.554 -1.029,3.025 -1.745,4.404l-0.088,0.158l-2.05,3.871l-0.683,1.296c-5.825,11.013 -19.475,15.217 -30.484,9.396c-9.583,-5.067 -14.004,-16.067 -11.158,-26.092" style="fill:#f00065;fill-rule:nonzero;"/><path d="M1525.09,121.83l5.196,-3.175c13.967,-8.537 32.213,-4.137 40.75,9.834c8.538,13.966 4.138,32.212 -9.833,40.75c-0.842,0.516 -1.7,0.983 -2.571,1.404l-0.412,0.196l-3.721,1.791l-1.392,0.671c-14.6,7.021 -32.133,0.879 -39.154,-13.725c-6.575,-13.662 -1.496,-29.962 11.137,-37.746" style="fill:#f00065;fill-rule:nonzero;"/><path d="M1648.48,99.509l5.942,1.404c15.929,3.759 25.792,19.721 22.033,35.65c-3.512,14.871 -17.658,24.455 -32.483,22.6l-1.717,-0.22l-4.087,-0.53l-0.392,-0.05c-16.404,-2.108 -27.996,-17.12 -25.883,-33.525c2.108,-16.408 17.121,-27.995 33.525,-25.887c1.029,0.133 2.075,0.329 3.062,0.558" style="fill:#f00065;fill-rule:nonzero;"/><path d="M1746.95,170.884l2.754,5.017c4.159,7.583 1.388,17.104 -6.196,21.266c-5.675,3.113 -12.433,2.342 -17.22,-1.42l-0.917,-0.73l-3.683,-2.9c-7.313,-5.762 -8.567,-16.358 -2.809,-23.666c5.763,-7.309 16.359,-8.567 23.667,-2.804c1.812,1.425 3.254,3.15 4.308,5.05l0.096,0.187Z" style="fill:#f00065;fill-rule:nonzero;"/><path d="M1754.35,287.859l-0.659,-5.421c-0.704,-5.775 3.413,-11.029 9.188,-11.729c5.775,-0.704 11.025,3.413 11.729,9.188c0.058,0.5 0.083,1 0.075,1.491l-0.008,0.309l-0.13,4.77l-0.012,0.442c-0.15,5.592 -4.804,10.004 -10.4,9.854c-5.083,-0.137 -9.192,-4 -9.783,-8.904" style="fill:#f00065;fill-rule:nonzero;"/><path d="M1671.16,277.044c0,30.054 -24.362,54.416 -54.416,54.416c-30.055,0 -54.421,-24.362 -54.421,-54.416c-0,-30.054 24.366,-54.417 54.421,-54.417c30.054,0 54.416,24.363 54.416,54.417" style="fill:#f00065;fill-rule:nonzero;"/></g></svg>