<svg width="2105" height="458" viewBox="0 0 2105 458" fill="none" xmlns="http://www.w3.org/2000/svg">
<path d="M112.825 152.105H9.854V401.33H112.825V152.105Z" fill="white"/>
<path d="M432.757 259.176V401.33H329.786V276.947C329.786 245.963 317.94 234.118 299.257 234.118C278.299 234.118 260.532 247.33 260.532 284.234V401.33H157.557V152.105H255.515V176.709C275.111 157.113 301.536 147.547 330.695 147.547C388.107 147.547 432.757 180.809 432.757 259.176Z" fill="white"/>
<path d="M774.458 401.33H671.488V63.255H774.458V401.33ZM588.558 165.318V165.772H642.779V240.951H591.75V401.33H488.775V240.951H454.604V165.772H488.775V164.405C488.775 100.16 528.875 58.697 599.95 58.697C621.821 58.697 645.971 62.801 661.004 71.001L636.4 142.535C629.567 139.347 621.367 136.614 613.167 136.614C598.583 136.614 588.558 145.268 588.558 165.318Z" fill="white"/>
<path d="M1092.46 152.104V401.329H994.502V377.637C975.818 396.775 950.76 405.887 923.877 405.887C864.189 405.887 819.081 370.804 819.081 289.704V152.104H922.056V271.933C922.056 307.475 934.356 319.316 954.406 319.316C972.172 319.316 989.489 306.104 989.489 269.2V152.104H1092.46Z" fill="white"/>
<path d="M1124.79 276.49C1124.79 200.856 1185.84 147.548 1271.96 147.548C1332.56 147.548 1378.12 175.34 1394.52 221.36L1314.79 260.544C1304.31 237.306 1289.27 227.74 1271.5 227.74C1248.27 227.74 1229.13 244.14 1229.13 276.49C1229.13 309.298 1248.27 325.698 1271.5 325.698C1289.27 325.698 1304.31 316.127 1314.79 292.894L1394.52 332.077C1378.12 378.094 1332.56 405.885 1271.96 405.885C1185.84 405.885 1124.79 352.581 1124.79 276.49Z" fill="white"/>
<path d="M2104.03 259.176V401.33H2001.06V276.947C2001.06 245.963 1989.21 234.118 1970.53 234.118C1949.57 234.118 1931.8 247.33 1931.8 284.234V401.33H1828.83V152.105H1926.79V176.709C1946.38 157.113 1972.81 147.547 2001.97 147.547C2059.38 147.547 2104.03 180.809 2104.03 259.176Z" fill="white"/>
<path d="M122.679 61.337C122.679 95.212 95.217 122.675 61.342 122.675C27.462 122.675 0 95.212 0 61.337C0 27.462 27.462 0 61.342 0C95.217 0 122.679 27.462 122.679 61.337Z" fill="white"/>
<path d="M1773.17 280.287L1773.09 285.487C1773.07 287.083 1771.76 288.357 1770.16 288.337C1768.56 288.312 1767.29 286.999 1767.31 285.403V285.391L1767.31 285.299L1767.4 280.287L1767.41 280.191C1767.44 278.599 1768.75 277.333 1770.34 277.362C1771.93 277.391 1773.2 278.695 1773.17 280.287Z" fill="#F00065"/>
<path d="M1746.48 389.219L1743.53 394.127L1743.46 394.227C1738.58 402.34 1728.04 404.957 1719.92 400.069C1711.8 395.182 1709.19 384.644 1714.08 376.527C1715.25 374.59 1716.78 372.932 1718.49 371.648L1722.23 368.848L1723.17 368.144C1730.24 362.844 1740.28 364.282 1745.58 371.361C1749.6 376.727 1749.73 383.802 1746.48 389.219Z" fill="white"/>
<path d="M1647.79 456.933L1641.88 457.708C1627.89 459.546 1615.07 449.692 1613.23 435.704C1611.47 422.283 1620.47 409.929 1633.56 407.329L1634.74 407.1L1638.91 406.279L1639.49 406.167C1653.43 403.429 1666.96 412.517 1669.69 426.462C1672.43 440.408 1663.34 453.933 1649.4 456.671C1648.89 456.771 1648.3 456.862 1647.79 456.933Z" fill="white"/>
<path d="M1533.33 424.638L1528.91 421.255C1523.46 417.08 1522.43 409.272 1526.6 403.817C1530.14 399.192 1536.3 397.742 1541.41 399.955L1542.03 400.226L1546.36 402.101L1546.52 402.172C1553.18 405.051 1556.23 412.776 1553.36 419.43C1550.48 426.084 1542.76 429.142 1536.1 426.263C1535.11 425.838 1534.15 425.259 1533.33 424.638Z" fill="white"/>
<path d="M1462.74 336.318L1460.61 331.289C1458.33 325.935 1460.83 319.752 1466.19 317.477C1471.54 315.202 1477.73 317.702 1480 323.06C1480.2 323.527 1480.36 323.998 1480.49 324.473L1480.56 324.773L1481.76 329.393L1481.87 329.818C1483.28 335.235 1480.02 340.764 1474.61 342.168C1469.68 343.443 1464.67 340.868 1462.74 336.318Z" fill="white"/>
<path d="M1451.07 220.051L1452.68 214.372C1456.17 202.06 1468.98 194.905 1481.3 198.397C1493.62 201.889 1500.77 214.701 1497.28 227.018C1496.84 228.572 1496.25 230.043 1495.53 231.422L1495.45 231.58L1493.4 235.451L1492.71 236.747C1486.89 247.76 1473.24 251.964 1462.23 246.143C1452.65 241.076 1448.22 230.076 1451.07 220.051Z" fill="white"/>
<path d="M1525.09 121.83L1530.29 118.655C1544.25 110.118 1562.5 114.518 1571.04 128.489C1579.57 142.455 1575.17 160.701 1561.2 169.239C1560.36 169.755 1559.5 170.222 1558.63 170.643L1558.22 170.839L1554.5 172.63L1553.11 173.301C1538.51 180.322 1520.97 174.18 1513.95 159.576C1507.38 145.914 1512.46 129.614 1525.09 121.83Z" fill="white"/>
<path d="M1648.48 99.509L1654.42 100.913C1670.35 104.672 1680.21 120.634 1676.46 136.563C1672.94 151.434 1658.8 161.018 1643.97 159.163L1642.26 158.943L1638.17 158.413L1637.78 158.363C1621.37 156.255 1609.78 141.243 1611.89 124.838C1614 108.43 1629.01 96.843 1645.42 98.951C1646.45 99.084 1647.49 99.28 1648.48 99.509Z" fill="white"/>
<path d="M1746.95 170.884L1749.7 175.901C1753.86 183.484 1751.09 193.005 1743.51 197.167C1737.83 200.28 1731.07 199.509 1726.29 195.747L1725.37 195.017L1721.69 192.117C1714.37 186.355 1713.12 175.759 1718.88 168.451C1724.64 161.142 1735.24 159.884 1742.55 165.647C1744.36 167.072 1745.8 168.797 1746.85 170.697L1746.95 170.884Z" fill="white"/>
<path d="M1754.35 287.859L1753.69 282.438C1752.99 276.663 1757.1 271.409 1762.88 270.709C1768.65 270.005 1773.9 274.122 1774.61 279.897C1774.67 280.397 1774.69 280.897 1774.68 281.388L1774.68 281.697L1774.55 286.467L1774.53 286.909C1774.38 292.501 1769.73 296.913 1764.13 296.763C1759.05 296.626 1754.94 292.763 1754.35 287.859Z" fill="white"/>
<path d="M1671.16 277.044C1671.16 307.098 1646.8 331.46 1616.74 331.46C1586.69 331.46 1562.32 307.098 1562.32 277.044C1562.32 246.99 1586.69 222.627 1616.74 222.627C1646.8 222.627 1671.16 246.99 1671.16 277.044Z" fill="white"/>
</svg>
