<?xml version="1.0" encoding="UTF-8" standalone="no"?><!DOCTYPE svg PUBLIC "-//W3C//DTD SVG 1.1//EN" "http://www.w3.org/Graphics/SVG/1.1/DTD/svg11.dtd"><svg width="100%" height="100%" viewBox="0 0 1845 464" version="1.1" xmlns="http://www.w3.org/2000/svg" xmlns:xlink="http://www.w3.org/1999/xlink" xml:space="preserve" xmlns:serif="http://www.serif.com/" style="fill-rule:evenodd;clip-rule:evenodd;stroke-linejoin:round;stroke-miterlimit:2;"><rect x="0" y="345.065" width="1840.62" height="118.933" style="fill:#fff;"/><path d="M1.39,48.538l-0,256.945l241.666,0l0,-27.083l-204.862,0l-0,-229.862l-36.804,-0Z" style="fill:#fff;fill-rule:nonzero;"/><path d="M172.223,142.288l27.779,-0l49.304,-93.055l-39.583,0l-37.5,93.055Z" style="fill:#fff;fill-rule:nonzero;"/><path d="M700.696,167.288l-0,-90.28l120.137,0c0,0 58.334,-2.083 58.334,45.834c-0,44.446 -47.917,44.446 -47.917,44.446l-130.554,-0Zm154.862,29.862c0,0 64.584,-18.058 64.584,-75.696c-0,-77.779 -86.809,-73.612 -86.809,-73.612l-169.441,-0l-0,258.337l36.804,0l-0,-108.337l106.946,-0l80.554,107.641l45.137,0l-77.775,-108.333Z" style="fill:#fff;fill-rule:nonzero;"/><path d="M981.946,47.15l-0,258.333l229.167,0l-0,-27.779l-190.28,0l0,-90.275l143.75,0l0,-29.166l-143.75,-0l0,-83.334l190.28,0l-0,-27.779l-229.167,-0Z" style="fill:#fff;fill-rule:nonzero;"/><path d="M1174.31,7.567l-65.279,-0l-27.779,31.945l93.058,-31.945Z" style="fill:#fff;fill-rule:nonzero;"/><path d="M1348.61,206.177l61.112,-125.696l62.5,125.696l-123.612,0Zm86.804,-159.721l-51.388,0l-131.946,259.721l44.446,0l33.334,-65.971l158.333,0l35.417,65.971l44.445,0l-132.641,-259.721Z" style="fill:#fff;fill-rule:nonzero;"/><path d="M1602.78,47.842l0,256.946l241.667,-0l-0,-27.084l-204.859,0l0,-229.862l-36.808,-0Z" style="fill:#fff;fill-rule:nonzero;"/><path d="M450.004,295.763c-74.404,-0 -134.721,-58.605 -134.721,-130.905c0,-72.295 60.317,-130.904 134.721,-130.904c74.404,0 134.721,58.609 134.721,130.904c0,72.3 -60.317,130.905 -134.721,130.905m-0.354,-295.763c-98.383,0 -178.137,73.513 -178.137,164.2c-0,90.679 79.754,164.2 178.137,164.2c98.379,0 178.133,-73.521 178.133,-164.2c0,-90.687 -79.754,-164.2 -178.133,-164.2" style="fill:#fff;fill-rule:nonzero;"/><path d="M104.515,403.05l-42.013,0l0,-26.042l39.929,0c0,0 19.446,0.005 19.446,12.85c0,12.846 -17.362,13.192 -17.362,13.192m1.737,-36.108l-58.683,-0l-0,78.816l14.933,0l0,-32.983l43.75,0c0,0 31.25,0.346 31.25,-22.917c0,-23.262 -31.25,-22.916 -31.25,-22.916" style="fill:#fff;fill-rule:nonzero;"/><path d="M256.598,404.792l-42.013,-0l0,-26.042l38.888,0c-0,0 21.529,-1.042 21.529,12.846c0,13.887 -18.404,13.196 -18.404,13.196m7.637,9.375c0,-0 26.392,-0 26.392,-22.571c0,-22.571 -34.725,-22.917 -34.725,-22.917l-57.292,0l0,79.513l15.975,-0l0,-34.025l30.9,-0l31.946,34.025l19.096,-0l-32.292,-34.025Z" style="fill:#fff;fill-rule:nonzero;"/><path d="M395.833,440.208c-18.604,0 -33.679,-14.925 -33.679,-33.333c0,-18.408 15.075,-33.333 33.679,-33.333c18.605,-0 33.68,14.925 33.68,33.333c-0,18.408 -15.075,33.333 -33.68,33.333m-0.345,-75.35c-26.655,0 -48.267,18.813 -48.267,42.013c-0,23.204 21.612,42.017 48.267,42.017c26.654,-0 48.262,-18.813 48.262,-42.017c0,-23.2 -21.608,-42.013 -48.262,-42.013" style="fill:#fff;fill-rule:nonzero;"/><path d="M493.75,448.192l0,-79.513l76.388,0l-0,10.071l-59.721,0l-0,22.567l55.554,-0l-0,9.725l-55.554,-0l-0,37.15l-16.667,-0Z" style="fill:#fff;fill-rule:nonzero;"/><path d="M636.11,367.292l82.988,-0l-0,9.025l-67.017,-0l0,24.308l57.988,-0l-0,9.375l-57.988,-0l0,26.733l69.1,0l0,9.375l-85.071,0l0,-78.816Z" style="fill:#fff;fill-rule:nonzero;"/><path d="M838.194,380.833l2.779,-10.766c-0,-0 -17.363,-3.471 -25,-3.471c-7.642,-0 -38.542,3.471 -38.542,21.179c0,25 51.734,22.917 51.734,39.238c-0,16.32 -40.275,10.066 -47.917,7.637l-2.083,11.113c-0,-0 17.016,3.125 28.82,3.125c11.805,-0 39.238,-4.163 39.238,-23.263c-0,-25.35 -51.392,-22.917 -51.392,-38.542c0,-14.237 35.417,-8.679 42.363,-6.25" style="fill:#fff;fill-rule:nonzero;"/><path d="M964.929,380.833l2.779,-10.766c0,-0 -17.358,-3.471 -25,-3.471c-7.641,-0 -38.541,3.471 -38.541,21.179c-0,25 51.733,22.917 51.733,39.238c0,16.32 -40.275,10.066 -47.917,7.637l-2.083,11.113c0,-0 17.017,3.125 28.821,3.125c11.804,-0 39.237,-4.163 39.237,-23.263c0,-25.35 -51.391,-22.917 -51.391,-38.542c-0,-14.237 35.416,-8.679 42.362,-6.25" style="fill:#fff;fill-rule:nonzero;"/><rect x="1039.93" y="370.415" width="15.279" height="79.513" style="fill:#fff;"/><path d="M1166.32,442.638c-18.604,-0 -33.679,-14.925 -33.679,-33.334c-0,-18.408 15.075,-33.333 33.679,-33.333c18.604,-0 33.679,14.925 33.679,33.333c0,18.409 -15.075,33.334 -33.679,33.334m-0.346,-75.35c-26.654,-0 -48.267,18.812 -48.267,42.012c0,23.204 21.613,42.017 48.267,42.017c26.65,-0 48.263,-18.813 48.263,-42.017c-0,-23.2 -21.613,-42.012 -48.263,-42.012" style="fill:#fff;fill-rule:nonzero;"/><path d="M1266.32,448.192l-0,-79.513l15.975,0l62.496,62.5l-0,-62.5l14.933,0l0,79.513l-15.279,-0l-63.021,-63.021l0,63.021l-15.104,-0Z" style="fill:#fff;fill-rule:nonzero;"/><path d="M1427.61,448.192l0,-79.513l15.975,0l62.496,62.5l0,-62.5l14.934,0l-0,79.513l-15.28,-0l-63.02,-63.021l-0,63.021l-15.105,-0Z" style="fill:#fff;fill-rule:nonzero;"/><path d="M1586.63,368.683l82.992,0l0,9.025l-67.017,0l0,24.309l57.984,-0l-0,9.375l-57.984,-0l0,26.733l69.1,0l0,9.375l-85.075,0l0,-78.817Z" style="fill:#fff;fill-rule:nonzero;"/><path d="M1730.9,367.633l0,79.167l75,0l0,-9.025l-59.375,0l0,-70.142l-15.625,0Z" style="fill:#fff;fill-rule:nonzero;"/><path d="M1676.39,248.888l-7.638,-0l0,-11.809l7.638,0c-0,0 7.466,-0.866 7.466,6.425c0,6.596 -7.466,5.384 -7.466,5.384m5.729,-15.975l-19.617,-0l0,32.641l6.25,0l0,-11.633l11.629,-0c0,-0 11.459,0.521 11.459,-10.242c-0,-10.762 -9.721,-10.766 -9.721,-10.766" style="fill:#fff;fill-rule:nonzero;"/><path d="M1708.75,253.575l5.658,-14.933l5.367,14.933l-11.025,0Zm15.208,11.629l7.462,0l-13.366,-32.637l-7.988,-0l-13.191,32.637l7.462,0l2.504,-6.596l14.746,0l2.371,6.596Z" style="fill:#fff;fill-rule:nonzero;"/><path d="M1758.16,248.888l-7.638,-0l0,-11.809l7.638,0c-0,0 7.466,-0.866 7.466,6.425c0,6.596 -7.466,5.384 -7.466,5.384m8.25,4.454c3.262,-0.929 7.2,-3.346 7.2,-9.663c-0,-10.762 -9.721,-10.766 -9.721,-10.766l-19.617,-0l0,32.641l6.25,0l0,-11.633l8.238,-0l7.908,11.633l7.983,0l-8.241,-12.212Z" style="fill:#fff;fill-rule:nonzero;"/><rect x="1792.02" y="232.74" width="7.117" height="32.292" style="fill:#fff;"/><path d="M1838.54,242.462l5.554,-3.995c-0,-0 -4.858,-6.596 -17.534,-6.596c-12.674,-0 -13.716,7.983 -13.716,10.241c-0,11.288 24.479,7.984 24.479,14.584c0,6.6 -17.188,5.212 -21.179,-0.692l-5.033,3.817c-0,-0 5.204,6.079 16.837,6.079c11.633,-0 17.05,-6.775 17.05,-10.246c0,-11.979 -25.208,-8.333 -25.208,-14.062c-0,-5.73 14.929,-5.205 18.75,0.87" style="fill:#fff;fill-rule:nonzero;"/></svg>