<?xml version="1.0" encoding="UTF-8" standalone="no"?><!DOCTYPE svg PUBLIC "-//W3C//DTD SVG 1.1//EN" "http://www.w3.org/Graphics/SVG/1.1/DTD/svg11.dtd"><svg width="100%" height="100%" viewBox="0 0 3036 1063" version="1.1" xmlns="http://www.w3.org/2000/svg" xmlns:xlink="http://www.w3.org/1999/xlink" xml:space="preserve" xmlns:serif="http://www.serif.com/" style="fill-rule:evenodd;clip-rule:evenodd;stroke-linejoin:round;stroke-miterlimit:2;"><g><path d="M506.125,52.973c-9.717,0.879 -100.258,10.896 -109.083,12.063c-8.85,1.029 -11.538,10.2 -11.538,10.2c-40.354,137.616 -80.687,275.487 -120.996,413.612c0,0 -1.704,6.129 -5.879,6.675c-4.179,0.55 -5.892,-5.146 -5.892,-5.146c-40.304,-127.575 -80.583,-254.895 -120.837,-381.962c-0,-0 -2.675,-8.458 -11.496,-7.175c-8.833,1.15 -99.008,14.787 -108.658,16.446c-11.746,1.85 -11.746,13.662 -11.746,13.662l-0,921.254c-0,0 -0,11.813 11.746,9.967c11.725,-1.933 82.196,-12.65 93.962,-14.296c11.759,-1.725 11.75,-13.537 11.75,-13.537l0,-543.304c0,-0 0,-5.905 5.879,-6.759c4.571,-0.662 5.88,5.05 5.88,5.05c26.491,79.829 53,159.767 79.512,239.813c0,-0 2.871,8.479 11.667,7.287c8.791,-1.246 67.658,-8.946 76.5,-10.008c8.829,-1.121 11.637,-10.329 11.637,-10.329c26.542,-86.996 53.096,-173.879 79.659,-260.654c0.004,-0 1.541,-6.088 5.904,-6.596c5.891,-0.688 5.887,5.216 5.887,5.216l0,543.305c0,-0 0.004,11.812 11.792,10.458c11.792,-1.442 82.554,-9.213 94.358,-10.363c11.796,-1.229 11.796,-13.041 11.796,-13.041l0,-921.259c0,0 -0.012,-11.812 -11.804,-10.579" style="fill:#fff;fill-rule:nonzero;"/><path d="M1653.96,355.372c11.85,0.083 82.925,1.425 94.767,1.796c11.842,0.283 11.842,-11.517 11.846,-11.521l-0,-274.629c-0,-8.834 -5.917,-14.884 -5.921,-14.884c-15.792,-16.133 -31.588,-32.229 -47.383,-48.287c-0,-0 -5.921,-6.029 -14.809,-6.188c-7.8,-0.787 -210.308,-2.162 -219.183,-1.47c-8.875,0.041 -14.804,5.987 -14.804,5.987c-15.796,15.842 -31.588,31.725 -47.384,47.642c0,-0 -5.925,5.921 -5.925,14.808l0,809.142c0,8.887 5.925,14.675 5.925,14.679c15.796,15.571 31.588,31.179 47.384,46.829c-0,0.004 5.929,5.871 14.804,5.833c8.875,-0.695 211.383,0.684 219.183,1.467c8.888,0.163 14.809,-5.625 14.809,-5.625c15.795,-15.442 31.591,-30.846 47.383,-46.204c-0,-0 5.921,-5.758 5.921,-14.592l-0,-274.629c-0,0 -0,-11.812 -11.846,-12.1c-11.842,-0.371 -82.917,-1.717 -94.767,-1.792c-11.846,-0.162 -11.846,11.65 -11.846,11.65l0,212.596c0,0 0,11.809 -11.845,11.671c-11.85,-0.225 -82.93,-0.7 -94.784,-0.637c-11.85,-0.017 -11.85,-11.83 -11.846,-11.83l0,-685.07c0,-0 0,-11.821 11.846,-11.805c11.859,-0.062 82.934,0.413 94.784,0.638c11.845,0.142 11.845,11.962 11.845,11.958l0,212.6c0,0 0,11.804 11.846,11.967" style="fill:#fff;fill-rule:nonzero;"/><path d="M2068.4,27.536l0,389.766c0,0 0.004,11.805 -11.833,11.142c-11.825,-0.742 -82.85,-4.346 -94.688,-4.804c-11.833,-0.538 -11.845,-12.338 -11.841,-12.342l-0,-389.766c-0.004,0.004 0.012,-11.809 -11.829,-12.33c-11.85,-0.6 -82.9,-3.333 -94.738,-3.645c-11.842,-0.396 -11.842,11.42 -11.842,11.416l0,921.267c0,0.004 0.009,11.796 11.85,12.192c11.838,0.312 82.896,3.045 94.73,3.645c11.837,0.517 11.829,-11.283 11.829,-11.283l-0,-389.758c-0,0.004 0.004,-11.821 11.841,-11.279c11.846,0.454 82.863,4.054 94.688,4.8c11.833,0.658 11.833,12.483 11.833,12.483l0,389.758c0,0 0,11.804 11.829,12.492c11.846,0.6 82.817,5.062 94.646,5.954c11.825,0.8 11.825,-10.992 11.825,-10.992l0,-921.266c0,0.004 0,-11.813 -11.825,-12.617c-11.821,-0.892 -82.791,-5.358 -94.633,-5.958c-11.842,-0.688 -11.842,11.125 -11.842,11.125" style="fill:#fff;fill-rule:nonzero;"/><path d="M919.693,124.838l-0,-94.492c-0,0.004 -0.008,-11.817 -11.833,-11.071c-11.9,-0.537 -295.58,21.859 -307.305,24.259c-11.804,1.125 -11.816,12.941 -11.816,12.937l-0,921.267c-0,0.004 0.012,11.796 11.816,10.671c11.725,-2.405 295.413,-24.8 307.313,-24.263c11.825,-0.746 11.825,-12.542 11.825,-12.542l-0,-94.487c-0,0.008 -0,-11.817 -11.825,-11.079c-11.863,0.291 -179.192,12.491 -189.192,13.775c-11.816,0.979 -11.821,-10.825 -11.821,-10.825l0,-271.646c0,-0 0,-11.821 11.821,-12.8c9.804,-1.096 141.85,-10.975 153.7,-11.475c11.829,-0.788 11.829,-12.583 11.829,-12.588l0,-94.491c0,0.004 -0.012,-11.817 -11.833,-11.029c-11.846,0.495 -143.912,10.375 -153.696,11.47c-11.816,0.98 -11.821,-10.825 -11.821,-10.825l0,-271.645c0,-0 0,-11.825 11.821,-12.805c10.009,-1.112 147.567,-11.504 189.192,-13.775c7.446,-0.47 11.825,-12.541 11.825,-12.541" style="fill:#fff;fill-rule:nonzero;"/><path d="M3023.7,235.788c-5.825,-0.929 -187.842,-29.921 -370.575,-50.813c-182.621,-22.166 -365.954,-36.229 -371.825,-36.687c-11.825,-0.929 -11.829,-12.729 -11.829,-12.729l-0,-94.492c-0,0.004 0.008,-11.817 11.829,-10.888c5.867,0.434 192.154,14.784 376.242,37.213c184.2,21.125 366.196,50.333 366.158,50.287c-0.004,0 11.733,1.85 11.733,13.667c0,11.813 0.009,94.492 0.009,94.492c-0,-0 -0.004,11.796 -11.742,9.95" style="fill:#fff;fill-rule:nonzero;"/><path d="M3023.7,1062.56c-5.825,-0.934 -187.842,-29.925 -370.575,-50.813c-182.621,-22.167 -365.954,-36.233 -371.825,-36.687c-11.825,-0.934 -11.829,-12.734 -11.829,-12.738l-0,-94.492c-0,0.005 0.008,-11.816 11.829,-10.887c5.867,0.433 192.154,14.779 376.242,37.212c184.2,21.125 366.196,50.334 366.158,50.288c0,-0.004 11.742,1.854 11.742,13.671l-0,94.483c-0,0 -0.004,11.808 -11.742,9.963" style="fill:#fff;fill-rule:nonzero;"/><path d="M3023.7,294.845c0.008,-0.1 -82.2,-12.679 -93.971,-14.291c-11.746,-1.725 -11.746,10.091 -11.746,10.091l0,448.821c0.005,0.004 0,11.813 -11.75,10.108c-11.754,-1.783 -82.316,-11.637 -94.1,-13.133c-11.779,-1.583 -11.779,-13.392 -11.779,-13.396l0,-448.825c0,0.004 0.009,-11.812 -11.762,-13.371c-11.763,-1.641 -82.417,-10.625 -94.213,-11.983c-11.779,-1.433 -11.779,10.383 -11.779,10.383l0,510.859c0,8.887 5.896,15.458 5.896,15.458c15.704,17.654 31.412,35.346 47.112,53.079c0,0 5.892,6.654 14.709,7.779c8.887,0.484 209.937,28.567 217.608,30.384c8.813,1.333 14.683,-3.675 14.683,-3.675c15.659,-13.359 31.317,-26.675 46.971,-39.954c0,-0 5.867,-4.98 5.863,-13.813l-0,-510.854c-0,-11.817 -11.742,-13.667 -11.742,-13.667" style="fill:#fff;fill-rule:nonzero;"/><path d="M1278.66,479.265c-0.871,-1.008 -1.412,-2.304 -1.412,-3.754c-0,-1.492 0.579,-2.859 1.495,-3.917c16.475,-16.837 32.95,-33.633 49.425,-50.383c0,-0.004 5.905,-5.988 5.905,-14.85l-0,-336.634c0.004,-8.845 -5.905,-14.625 -5.905,-14.625c-15.795,-15.437 -31.587,-30.841 -47.383,-46.204c0,0 -5.929,-5.775 -14.808,-5.546c-8.909,-0.8 -264.75,9.446 -275.275,11.059c-11.842,0.646 -11.85,12.462 -11.85,12.458l-0,921.267c-0,0.004 0.016,11.796 11.85,11.15c11.821,-0.729 82.837,-4.25 94.687,-4.688c11.834,-0.525 11.838,-12.325 11.834,-12.325l-0,-389.758c-0,0.004 -0.009,-11.821 11.837,-12.321c11.842,-0.621 94.733,-3.637 94.733,-3.533c0,-0.004 11.842,-0.371 11.842,11.441l0,389.759c0,-0 0.008,11.8 11.85,11.441c11.838,-0.441 82.913,-2.22 94.754,-2.37c11.85,-0.238 11.834,-12.038 11.834,-12.038l-0,-392.725c-0,-8.842 -5.917,-14.646 -5.917,-14.642c-16.5,-16.133 -33,-32.216 -49.496,-48.262m-63.025,-72.896c0,0 0,11.796 -11.842,12.175c-11.841,0.3 -82.9,2.946 -94.733,3.533c-11.833,0.5 -11.837,-11.295 -11.837,-11.295l-0,-271.65c-0,-11.821 11.837,-12.33 11.837,-12.325c31.575,-1.334 63.154,-2.509 94.733,-3.534c0,0 11.842,-0.362 11.842,11.446l0,271.65Z" style="fill:#fff;fill-rule:nonzero;"/><path d="M2418.38,514.423c-3.913,-0.362 -6.454,-3.596 -5.638,-8c18.209,-90.312 36.409,-180.566 54.605,-270.771c-0,0 2.966,-11.525 -5.896,-12.391c-8.85,-0.971 -88.563,-8.363 -97.434,-9.029c-11.825,-1.025 -14.579,10.558 -14.579,10.554c0.004,-0.084 -74.766,314.008 -77.212,324.379c-2.746,11.592 3.158,17.95 3.158,17.95c15.758,16.987 31.517,34.008 47.275,51.067c0,-0 5.929,6.395 17.729,7.4c11.829,0.67 153.534,13.987 153.513,14.291c-0.004,-0.004 11.8,1.209 11.8,13.017l-0,153.542c-0,-0 -0,11.804 11.8,13.02c11.808,1.138 82.587,8.821 94.371,10.246c11.791,1.342 11.787,-10.462 11.787,-10.462c0.004,-0.004 0.004,-401.575 0,-413.388c0,-11.816 -11.787,-13.158 -11.787,-13.158c0.008,-0.1 -82.559,-9.142 -94.371,-10.242c-11.8,-1.221 -11.8,10.592 -11.8,10.592l-0,118.117c-0,-0 -0,11.8 -11.8,10.604c-9.484,-1.034 -75.513,-7.404 -75.521,-7.338" style="fill:#fff;fill-rule:nonzero;"/></g></svg>