<svg width="190" height="42" viewBox="0 0 190 42" fill="none" xmlns="http://www.w3.org/2000/svg">
<path d="M62.0708 41.5338L58.8608 36.0258H53.9488V41.5338H49.2178V20.7798H57.9608C62.1668 20.7798 65.5978 24.2098 65.5978 28.4168C65.5978 30.6318 64.6288 32.6228 63.1358 34.0048L67.5328 41.5338H62.0708ZM53.9488 31.3228H58.0438C59.7038 31.3228 60.8718 30.0218 60.8718 28.3608C60.8718 26.6998 59.7038 25.3738 58.0438 25.3738H53.9488V31.3228Z" fill="white"/>
<path d="M107.364 28.7908V20.7798H112.094V41.5338H107.364V33.5218H99.3345V41.5338H94.6055V20.7798H99.3345V28.7908H107.364Z" fill="white"/>
<path d="M169.339 33.6598C169.339 35.1538 170.431 36.8098 172.8 36.8098C175.163 36.8098 176.257 35.1538 176.257 33.6598V20.7798H180.987V33.3428C180.987 37.9068 177.309 41.5328 172.799 41.5328C168.233 41.5328 164.608 37.9068 164.608 33.3428V20.7798H169.338L169.339 33.6598Z" fill="white"/>
<path d="M42.1879 25.5118H34.0259V28.6978H42.1879V33.4298H34.0259V36.8008H42.1879V41.5338H29.2949V20.7798H42.1879V25.5118Z" fill="white"/>
<path d="M150.479 20.7842C144.752 20.7842 140.11 25.4272 140.11 31.1512C140.11 36.8792 144.753 41.5202 150.479 41.5202C156.204 41.5202 160.846 36.8782 160.846 31.1512C160.846 25.4272 156.203 20.7842 150.479 20.7842ZM150.477 36.7572C147.375 36.7572 144.858 34.2402 144.858 31.1382C144.858 28.0342 147.376 25.5192 150.477 25.5192C153.582 25.5192 156.096 28.0342 156.096 31.1382C156.096 34.2402 153.582 36.7572 150.477 36.7572Z" fill="white"/>
<path d="M21.851 20.7622V41.5342H16.367V30.4952L10.925 35.7882L5.482 30.4962V41.5342H0V20.7622H2.724L10.925 28.7312L19.126 20.7622H21.851Z" fill="white"/>
<path d="M85.7227 35.106C84.7057 36.126 83.2987 36.756 81.7447 36.756C78.6407 36.756 76.1247 34.241 76.1247 31.138C76.1247 28.034 78.6407 25.518 81.7447 25.518C83.2927 25.518 84.6937 26.144 85.7107 27.157L89.0507 23.792C87.1727 21.91 84.5997 20.775 81.7517 20.775C76.0297 20.775 71.3857 25.422 71.3857 31.143C71.3857 36.868 76.0297 41.511 81.7517 41.511C84.6277 41.511 87.2277 40.322 89.1057 38.442L85.7227 35.106ZM187.523 23.966L187.918 24.642H188.496L187.961 23.725L187.988 23.697C188.177 23.522 188.287 23.277 188.287 23.022C188.287 22.514 187.873 22.1 187.365 22.1H186.302V24.642H186.804V23.941H187.507L187.523 23.966ZM186.804 23.442V22.584H187.376C187.608 22.584 187.784 22.769 187.784 23.015C187.784 23.259 187.608 23.443 187.376 23.443H186.804V23.442ZM187.279 20.776C185.849 20.776 184.685 21.94 184.685 23.37C184.685 24.8 185.849 25.963 187.279 25.963C188.707 25.963 189.871 24.8 189.871 23.37C189.871 21.94 188.706 20.776 187.279 20.776ZM189.351 23.37C189.351 24.514 188.421 25.443 187.279 25.443C186.134 25.443 185.205 24.513 185.205 23.37C185.205 22.227 186.135 21.296 187.279 21.296C188.421 21.296 189.351 22.226 189.351 23.37ZM138.971 0H136.251L128.081 7.943L119.911 0H117.196V20.702L125.727 31.017V41.383H130.44V31.017L138.973 20.702V0H138.971ZM128.077 26.262L122.657 20.031V9.702L128.083 14.976L133.507 9.711V20.004L128.077 26.262Z" fill="white"/>
</svg>
