<svg width="686" height="149" viewBox="0 0 686 149" fill="none" xmlns="http://www.w3.org/2000/svg">
<path d="M686 0H0V149H686V0Z" fill="white"/>
<path d="M124.971 17.5322L38.3133 17.5327C35.344 17.5327 32.9371 19.9396 32.9371 22.9095V37.5778H87.1736C89.5394 37.5778 91.4574 39.4962 91.4574 41.8624C91.4574 44.2287 89.5394 46.1466 87.1736 46.1466L32.9371 46.1471V62.2768H101.583C103.949 62.2768 105.867 64.1952 105.867 66.5615C105.867 68.9277 103.949 70.8461 101.583 70.8461H32.9371V86.9758H80.2358C82.6016 86.9758 84.5196 88.8942 84.5196 91.261C84.5196 93.6268 82.6016 95.5457 80.2358 95.5457H32.9371V109.585C32.9371 112.553 35.3434 114.962 38.3133 114.962H94.5559L91.5321 133.98L113.454 114.962H124.971C127.939 114.962 130.346 112.554 130.346 109.585V22.9095C130.346 19.9391 127.939 17.5322 124.971 17.5322Z" fill="black"/>
<path d="M175.962 91.2854L182.691 90.749V54.4509L175.962 53.914V50.2389H187.068L187.522 58.0438C188.953 55.2911 190.887 53.1646 193.322 51.6635C195.759 50.163 198.642 49.4131 201.972 49.4131C206.816 49.4131 210.504 50.8932 213.037 53.852C215.569 56.8118 216.835 61.4295 216.835 67.7063V90.749L223.565 91.2854V94.9199H205.151V91.2854L211.881 90.749V67.7479C211.881 62.6273 210.924 59.0073 209.011 56.8871C207.098 54.7674 204.38 53.7079 200.857 53.7079C197.389 53.7079 194.561 54.6228 192.373 56.4537C190.184 58.285 188.609 60.7143 187.646 63.7419V90.749L194.375 91.2854V94.9199H175.962V91.2854Z" fill="black"/>
<path d="M249.948 53.6251C246.315 53.6251 243.252 55.0225 240.762 57.8163C238.271 60.6107 236.818 64.1139 236.406 68.3259L236.489 68.5319H262.664V67.2935C262.664 63.412 261.522 60.1638 259.237 57.5478C256.952 54.9328 253.856 53.6251 249.948 53.6251ZM250.608 95.7872C244.993 95.7872 240.342 93.729 236.654 89.6131C232.965 85.4982 231.121 80.2601 231.121 73.9007V71.6294C231.121 65.2428 232.958 59.9428 236.633 55.7308C240.308 51.5188 244.746 49.4131 249.948 49.4131C255.425 49.4131 259.733 51.1473 262.871 54.6158C266.008 58.0848 267.577 62.71 267.577 68.4914V72.7035H236.034V73.9007C236.034 78.9118 237.376 83.1164 240.06 86.5166C242.743 89.9167 246.259 91.6158 250.608 91.6158C253.664 91.6158 256.278 91.1893 258.453 90.3357C260.626 89.4828 262.485 88.2577 264.027 86.6607L266.132 90.047C264.453 91.809 262.334 93.2058 259.774 94.2383C257.214 95.2711 254.159 95.7872 250.608 95.7872Z" fill="black"/>
<path d="M289.705 53.9144L284.091 54.3687L291.316 80.4256L293.008 88.3959H293.256L295.362 80.4256L304.899 50.2393H309.11L318.647 80.4256L320.794 88.6021H321.042L322.9 80.4256L329.919 54.3687L324.303 53.9144V50.2393H339.331V53.9144L334.996 54.2448L323.147 94.9198H318.936L308.986 64.362L307.046 56.6399H306.798L304.857 64.362L295.073 94.9198H290.861L279.054 54.2448L274.718 53.9144V50.2393H289.705V53.9144Z" fill="black"/>
<path d="M378.595 64.0316H374.549L373.971 57.7133C372.733 56.42 371.171 55.4149 369.285 54.699C367.399 53.9833 365.232 53.6251 362.783 53.6251C359.176 53.6251 356.473 54.4034 354.67 55.9582C352.867 57.5142 351.966 59.3382 351.966 61.43C351.966 63.4947 352.744 65.2018 354.299 66.5506C355.853 67.8994 358.956 69.0839 363.609 70.1019C368.92 71.2857 372.898 72.9036 375.54 74.9544C378.183 77.0052 379.504 79.7925 379.504 83.3166C379.504 87.0327 377.997 90.0411 374.983 92.3391C371.969 94.6381 367.985 95.7873 363.031 95.7873C359.728 95.7873 356.72 95.3255 354.01 94.4038C351.298 93.4819 348.952 92.1811 346.97 90.5018V81.4995H350.975L351.677 87.859C352.997 89.1796 354.67 90.1366 356.693 90.7286C358.716 91.3211 360.828 91.6163 363.031 91.6163C366.608 91.6163 369.43 90.8321 371.494 89.2623C373.558 87.693 374.59 85.7938 374.59 83.5637C374.59 81.4724 373.73 79.6405 372.01 78.0717C370.29 76.5023 367.186 75.2223 362.7 74.2311C357.388 73.075 353.445 71.5409 350.871 69.6267C348.298 67.7137 347.011 65.0368 347.011 61.5949C347.011 58.1815 348.456 55.2974 351.346 52.9435C354.236 50.59 358.049 49.4131 362.783 49.4131C366.058 49.4131 369.051 49.9159 371.763 50.9204C374.473 51.9255 376.682 53.2814 378.389 54.9878L378.595 64.0316Z" fill="black"/>
<path d="M387.802 54.287V50.2403H395.192V43.7154C395.192 39.2285 396.321 35.76 398.577 33.3094C400.834 30.8594 403.986 29.6338 408.032 29.6338C408.913 29.6338 409.821 29.7027 410.757 29.8404C411.693 29.9787 412.642 30.1708 413.606 30.4184L412.986 34.5067C412.326 34.3417 411.651 34.2109 410.963 34.1143C410.275 34.0183 409.463 33.9697 408.528 33.9697C405.829 33.9697 403.759 34.8238 402.314 36.5302C400.869 38.2372 400.147 40.6328 400.147 43.7154V50.2403H410.798V54.287H400.147V90.7505L406.876 91.2863V94.9208H388.462V91.2863L395.192 90.7505V54.287H387.802Z" fill="black"/>
<path d="M436.479 53.6251C432.845 53.6251 429.784 55.0225 427.293 57.8163C424.801 60.6107 423.349 64.1139 422.937 68.3259L423.019 68.5319H449.195V67.2935C449.195 63.412 448.053 60.1638 445.768 57.5478C443.483 54.9328 440.386 53.6251 436.479 53.6251ZM437.139 95.7872C431.525 95.7872 426.873 93.729 423.185 89.6131C419.496 85.4982 417.652 80.2601 417.652 73.9007V71.6294C417.652 65.2428 419.49 59.9428 423.164 55.7308C426.838 51.5188 431.276 49.4131 436.479 49.4131C441.956 49.4131 446.264 51.1473 449.402 54.6158C452.539 58.0848 454.109 62.71 454.109 68.4914V72.7035H422.566V73.9007C422.566 78.9118 423.907 83.1164 426.591 86.5166C429.274 89.9167 432.79 91.6158 437.139 91.6158C440.195 91.6158 442.809 91.1893 444.984 90.3357C447.157 89.4828 449.016 88.2577 450.558 86.6607L452.663 90.047C450.984 91.809 448.865 93.2058 446.305 94.2383C443.745 95.2711 440.69 95.7872 437.139 95.7872Z" fill="black"/>
<path d="M481.976 53.6251C478.342 53.6251 475.281 55.0225 472.79 57.8163C470.298 60.6107 468.846 64.1139 468.434 68.3259L468.516 68.5319H494.692V67.2935C494.692 63.412 493.549 60.1638 491.265 57.5478C488.98 54.9328 485.883 53.6251 481.976 53.6251ZM482.636 95.7872C477.022 95.7872 472.37 93.729 468.682 89.6131C464.993 85.4982 463.149 80.2601 463.149 73.9007V71.6294C463.149 65.2428 464.987 59.9428 468.661 55.7308C472.335 51.5188 476.773 49.4131 481.976 49.4131C487.453 49.4131 491.761 51.1473 494.899 54.6158C498.036 58.0848 499.606 62.71 499.606 68.4914V72.7035H468.063V73.9007C468.063 78.9118 469.404 83.1164 472.088 86.5166C474.771 89.9167 478.287 91.6158 482.636 91.6158C485.692 91.6158 488.306 91.1893 490.481 90.3357C492.654 89.4828 494.513 88.2577 496.054 86.6607L498.16 90.047C496.481 91.809 494.362 93.2058 491.802 94.2383C489.242 95.2711 486.187 95.7872 482.636 95.7872Z" fill="black"/>
<path d="M513.436 73.8184C513.436 79.2137 514.516 83.5092 516.677 86.7027C518.838 89.8958 522.092 91.4923 526.441 91.4923C529.606 91.4923 532.256 90.7765 534.389 89.3454C536.522 87.9139 538.18 85.9457 539.364 83.4397V62.2967C538.263 59.7645 536.673 57.6998 534.595 56.1027C532.517 54.5062 529.827 53.7076 526.524 53.7076C522.174 53.7076 518.907 55.4905 516.718 59.0551C514.53 62.6213 513.436 67.2524 513.436 72.951V73.8184ZM539.488 88.478C538.002 90.8187 536.088 92.6218 533.749 93.8879C531.409 95.1534 528.657 95.7871 525.492 95.7871C520.152 95.7871 515.976 93.7913 512.961 89.7992C509.948 85.808 508.441 80.481 508.441 73.8184V72.951C508.441 65.8218 509.948 60.1157 512.961 55.8342C515.976 51.5539 520.179 49.4128 525.574 49.4128C528.684 49.4128 531.381 50.0673 533.667 51.3745C535.951 52.6822 537.85 54.5479 539.364 56.9701V34.712L532.634 34.1756V30.5H544.318V90.7492L551.048 91.2858L551.048 94.9196H539.901L539.488 88.478Z" fill="black"/>
<path d="M566.282 88.1484H560.627V94.9211H566.282V88.1484Z" fill="black"/>
<path d="M596.959 91.6167C600.234 91.6167 603.124 90.6816 605.629 88.809C608.133 86.9366 609.386 84.3355 609.386 81.0041H613.762L613.845 81.2519C613.982 85.3811 612.337 88.8363 608.911 91.6167C605.485 94.3983 601.501 95.7877 596.959 95.7877C590.903 95.7877 586.21 93.7022 582.88 89.5318C579.549 85.3604 577.885 79.9996 577.885 73.4475V71.7126C577.885 65.2161 579.549 59.8755 582.88 55.6908C586.21 51.5064 590.89 49.4141 596.918 49.4141C600.358 49.4141 603.509 50.061 606.373 51.3544C609.235 52.6493 611.56 54.4102 613.35 56.6403L613.556 66.3856H609.344L608.56 58.4573C607.239 56.9707 605.594 55.7938 603.627 54.9269C601.658 54.0595 599.421 53.6261 596.918 53.6261C592.128 53.6261 588.584 55.3395 586.286 58.7669C583.987 62.1943 582.839 66.5099 582.839 71.7126V73.4475C582.839 78.7329 583.98 83.0833 586.266 86.4962C588.55 89.9102 592.115 91.6167 596.959 91.6167Z" fill="black"/>
<path d="M629.906 90.7493H654.182L654.554 82.2841H658.972V94.9198H623.837V91.2858L650.755 54.4924H628.709L628.379 62.9165H623.96V50.2393H656.989V53.9143L629.906 90.7493Z" fill="black"/>
</svg>
