<?xml version="1.0" encoding="UTF-8" standalone="no"?><!DOCTYPE svg PUBLIC "-//W3C//DTD SVG 1.1//EN" "http://www.w3.org/Graphics/SVG/1.1/DTD/svg11.dtd"><svg width="100%" height="100%" viewBox="0 0 5356 1182" version="1.1" xmlns="http://www.w3.org/2000/svg" xmlns:xlink="http://www.w3.org/1999/xlink" xml:space="preserve" xmlns:serif="http://www.serif.com/" style="fill-rule:evenodd;clip-rule:evenodd;stroke-linejoin:round;stroke-miterlimit:2;"><g><rect x="0" y="0" width="5355.98" height="1181.08" style="fill:#3c629f;"/><path d="M975.716,136.855l-676.583,0.004c-23.183,0 -41.975,18.788 -41.975,41.971l-0,114.5l423.454,0c18.471,0 33.446,14.975 33.446,33.446c-0,18.471 -14.975,33.442 -33.446,33.442l-423.454,0.004l-0,125.908l535.954,0c18.471,0 33.446,14.975 33.446,33.446c-0,18.471 -14.975,33.446 -33.446,33.446l-535.954,-0l-0,125.908l369.287,0c18.471,0 33.446,14.975 33.446,33.45c0,18.467 -14.975,33.446 -33.446,33.446l-369.287,-0l-0,109.587c-0,23.175 18.787,41.975 41.975,41.975l439.117,0l-23.609,148.459l171.159,-148.459l89.916,0c23.171,0 41.967,-18.796 41.967,-41.975l-0,-676.583c-0,-23.187 -18.792,-41.975 -41.967,-41.975" style="fill:#fff;fill-rule:nonzero;"/><path d="M1373.83,712.577l52.541,-4.187l0,-283.342l-52.542,-4.191l0,-28.688l86.713,0l3.546,60.925c11.171,-21.487 26.271,-38.087 45.287,-49.804c19.021,-11.713 41.529,-17.567 67.534,-17.567c37.816,0 66.612,11.554 86.387,34.65c19.767,23.104 29.654,59.15 29.654,108.146l0,179.871l52.546,4.187l0,28.371l-143.767,0l0,-28.371l52.542,-4.187l0,-179.546c0,-39.971 -7.471,-68.229 -22.404,-84.779c-14.938,-16.546 -36.158,-24.817 -63.663,-24.817c-27.079,0 -49.158,7.142 -66.241,21.434c-17.088,14.295 -29.392,33.258 -36.909,56.891l0,210.817l52.542,4.187l0,28.371l-143.766,0l-0,-28.371Z" style="fill:#fff;fill-rule:nonzero;"/><path d="M1951.48,418.602c-28.366,-0 -52.275,10.908 -71.72,32.716c-19.45,21.813 -30.788,49.159 -34.009,82.038l0.646,1.608l204.367,0l-0,-9.667c-0,-30.299 -8.921,-55.654 -26.754,-76.075c-17.842,-20.412 -42.017,-30.62 -72.53,-30.62m5.159,329.116c-43.842,0 -80.159,-16.066 -108.954,-48.195c-28.8,-32.121 -43.192,-73.009 -43.192,-122.65l-0,-17.73c-0,-49.854 14.342,-91.225 43.029,-124.104c28.692,-32.879 63.342,-49.316 103.958,-49.316c42.763,-0 76.396,13.537 100.896,40.612c24.496,27.079 36.746,63.183 36.746,108.313l0,32.879l-246.271,-0l0,9.346c0,39.116 10.475,71.937 31.429,98.479c20.95,26.541 48.4,39.804 82.359,39.804c23.854,-0 44.266,-3.329 61.246,-9.992c16.97,-6.658 31.479,-16.221 43.516,-28.687l16.438,26.433c-13.109,13.754 -29.654,24.658 -49.638,32.717c-19.987,8.062 -43.841,12.091 -71.562,12.091" style="fill:#fff;fill-rule:nonzero;"/><path d="M2261.89,420.858l-43.838,3.546l56.409,203.4l13.216,62.216l1.934,0l16.441,-62.216l74.463,-235.634l32.879,0l74.462,235.634l16.759,63.825l1.937,-0l14.504,-63.825l54.8,-203.4l-43.841,-3.546l-0,-28.688l117.333,0l0,28.688l-33.846,2.579l-92.512,317.508l-32.879,0l-77.688,-238.533l-15.146,-60.279l-1.937,-0l-15.15,60.279l-76.396,238.533l-32.879,0l-92.188,-317.508l-33.85,-2.579l0,-28.688l117.013,0l-0,28.688Z" style="fill:#fff;fill-rule:nonzero;"/><path d="M2955.9,499.833l-31.587,0l-4.513,-49.321c-9.666,-10.095 -21.866,-17.941 -36.587,-23.529c-14.725,-5.587 -31.642,-8.383 -50.767,-8.383c-28.158,-0 -49.266,6.075 -63.341,18.212c-14.075,12.146 -21.113,26.384 -21.113,42.713c0,16.117 6.071,29.442 18.213,39.971c12.137,10.529 36.366,19.775 72.687,27.721c41.471,9.241 72.525,21.87 93.154,37.879c20.634,16.008 30.95,37.766 30.95,65.275c0,29.008 -11.766,52.491 -35.3,70.429c-23.529,17.946 -54.633,26.917 -93.316,26.917c-25.788,-0 -49.271,-3.605 -70.43,-10.8c-21.17,-7.196 -39.491,-17.35 -54.966,-30.459l-0,-70.271l31.271,0l5.479,49.642c10.312,10.308 23.371,17.779 39.162,22.4c15.796,4.625 32.288,6.929 49.484,6.929c27.933,0 49.962,-6.121 66.079,-18.375c16.116,-12.25 24.175,-27.075 24.175,-44.483c-0,-16.325 -6.717,-30.625 -20.146,-42.871c-13.433,-12.25 -37.663,-22.242 -72.688,-29.979c-41.475,-9.025 -72.262,-21 -92.354,-35.942c-20.091,-14.933 -30.137,-35.829 -30.137,-62.696c-0,-26.645 11.279,-49.158 33.846,-67.533c22.562,-18.371 52.329,-27.558 89.291,-27.558c25.571,-0 48.942,3.925 70.109,11.766c21.162,7.846 38.412,18.43 51.733,31.75l1.612,70.596Z" style="fill:#fff;fill-rule:nonzero;"/><path d="M3027.78,423.759l0,-31.588l57.705,0l-0,-50.933c-0,-35.025 8.808,-62.1 26.429,-81.229c17.62,-19.125 42.225,-28.692 73.816,-28.692c6.88,0 13.967,0.538 21.275,1.613c7.309,1.079 14.721,2.579 22.246,4.512l-4.841,31.913c-5.155,-1.288 -10.425,-2.309 -15.792,-3.063c-5.375,-0.75 -11.713,-1.129 -19.017,-1.129c-21.067,-0 -37.233,6.667 -48.517,19.987c-11.279,13.325 -16.916,32.025 -16.916,56.088l-0,50.933l83.162,0l0,31.588l-83.162,-0l-0,284.633l52.537,4.183l0,28.371l-143.766,0l-0,-28.371l52.546,-4.183l-0,-284.633l-57.705,-0Z" style="fill:#fff;fill-rule:nonzero;"/><path d="M3407.83,418.602c-28.371,-0 -52.271,10.908 -71.721,32.716c-19.45,21.813 -30.787,49.159 -34.008,82.038l0.642,1.608l204.37,0l0,-9.667c0,-30.299 -8.92,-55.654 -26.758,-76.075c-17.837,-20.412 -42.017,-30.62 -72.525,-30.62m5.158,329.116c-43.837,0 -80.158,-16.066 -108.95,-48.195c-28.8,-32.121 -43.195,-73.009 -43.195,-122.65l-0,-17.73c-0,-49.854 14.345,-91.225 43.033,-124.104c28.683,-32.879 63.337,-49.316 103.954,-49.316c42.767,-0 76.4,13.537 100.896,40.612c24.496,27.079 36.75,63.183 36.75,108.313l-0,32.879l-246.271,-0l0,9.346c0,39.116 10.471,71.937 31.429,98.479c20.946,26.541 48.396,39.804 82.354,39.804c23.855,-0 44.263,-3.329 61.246,-9.992c16.971,-6.658 31.479,-16.221 43.517,-28.687l16.437,26.433c-13.108,13.754 -29.654,24.658 -49.641,32.717c-19.988,8.062 -43.838,12.091 -71.559,12.091" style="fill:#fff;fill-rule:nonzero;"/><path d="M3763.05,418.602c-28.371,-0 -52.271,10.908 -71.721,32.716c-19.45,21.813 -30.788,49.159 -34.008,82.038l0.641,1.608l204.371,0l0,-9.667c0,-30.299 -8.921,-55.654 -26.758,-76.075c-17.838,-20.412 -42.017,-30.62 -72.525,-30.62m5.158,329.116c-43.837,0 -80.158,-16.066 -108.95,-48.195c-28.8,-32.121 -43.196,-73.009 -43.196,-122.65l0,-17.73c0,-49.854 14.346,-91.225 43.034,-124.104c28.683,-32.879 63.337,-49.316 103.954,-49.316c42.766,-0 76.4,13.537 100.896,40.612c24.495,27.079 36.75,63.183 36.75,108.313l-0,32.879l-246.271,-0l-0,9.346c-0,39.116 10.471,71.937 31.429,98.479c20.946,26.541 48.396,39.804 82.354,39.804c23.854,-0 44.263,-3.329 61.25,-9.992c16.967,-6.658 31.475,-16.221 43.513,-28.687l16.437,26.433c-13.108,13.754 -29.654,24.658 -49.642,32.717c-19.987,8.062 -43.837,12.091 -71.558,12.091" style="fill:#fff;fill-rule:nonzero;"/><path d="M4008.68,576.229c0,42.116 8.43,75.646 25.3,100.575c16.871,24.925 42.28,37.387 76.238,37.387c24.708,0 45.396,-5.587 62.054,-16.758c16.65,-11.175 29.596,-26.538 38.842,-46.1l-0,-165.042c-8.6,-19.766 -21.013,-35.883 -37.234,-48.35c-16.225,-12.462 -37.229,-18.696 -63.02,-18.696c-33.959,0 -59.471,13.917 -76.555,41.742c-17.087,27.838 -25.625,63.988 -25.625,108.471l0,6.771Zm203.4,114.433c-11.604,18.271 -26.545,32.346 -44.804,42.229c-18.271,9.879 -39.762,14.825 -64.471,14.825c-41.691,0 -74.3,-15.579 -97.837,-46.741c-23.525,-31.155 -35.292,-72.738 -35.292,-124.746l0,-6.771c0,-55.65 11.767,-100.192 35.292,-133.613c23.537,-33.412 56.358,-50.125 98.479,-50.125c24.283,0 45.338,5.109 63.183,15.313c17.834,10.208 32.659,24.771 44.484,43.679l-0,-173.746l-52.546,-4.187l-0,-28.692l91.225,0l-0,470.304l52.542,4.188l-0.001,28.366l-87.029,0l-3.225,-50.283Z" style="fill:#fff;fill-rule:nonzero;"/><rect x="4377.12" y="688.079" width="44.158" height="52.867" style="fill:#fff;"/><path d="M4660.79,715.157c25.571,0 48.129,-7.3 67.691,-21.917c19.546,-14.616 29.33,-34.92 29.33,-60.925l34.17,0l0.646,1.934c1.071,32.233 -11.771,59.204 -38.521,80.908c-26.754,21.713 -57.858,32.558 -93.316,32.558c-47.284,0 -83.929,-16.279 -109.921,-48.833c-26.008,-32.562 -39.004,-74.408 -39.004,-125.554l-0,-13.542c-0,-50.712 12.996,-92.4 39.004,-125.066c25.992,-32.663 62.533,-48.996 109.596,-48.996c26.862,-0 51.462,5.05 73.821,15.146c22.345,10.108 40.5,23.854 54.475,41.262l1.612,76.071l-32.887,-0l-6.121,-61.888c-10.317,-11.604 -23.159,-20.791 -38.517,-27.558c-15.371,-6.771 -32.837,-10.154 -52.383,-10.154c-37.396,-0 -65.063,13.375 -83.009,40.129c-17.945,26.754 -26.912,60.442 -26.912,101.054l-0,13.542c-0,41.258 8.912,75.217 26.758,101.858c17.829,26.65 45.663,39.971 83.488,39.971" style="fill:#fff;fill-rule:nonzero;"/><path d="M4918.02,708.39l189.542,0l2.9,-66.079l34.496,0l-0,98.634l-274.317,-0l0,-28.367l210.163,-287.208l-172.125,-0l-2.579,65.758l-34.5,-0l-0,-98.958l257.879,-0l-0,28.687l-211.459,287.533Z" style="fill:#fff;fill-rule:nonzero;"/></g></svg>