<svg width="215" height="67" viewBox="0 0 215 67" fill="none" xmlns="http://www.w3.org/2000/svg">
<path d="M52.243 44.0867L51.8802 42.4959C51.8802 43.0541 52.6616 44.9797 59.3594 51.6496C64.9409 57.2312 69.2108 61.5847 68.4852 61.9754C67.7317 62.3661 64.3828 60.4126 61.2572 57.5939C57.2385 53.9381 54.057 49.2775 52.243 44.0867ZM87.2391 65.9662C83.6669 66.3569 79.9552 66.1616 76.4389 65.4081C78.7273 65.7709 76.1877 61.7801 74.4016 59.38C71.8062 55.8637 67.8433 51.2868 64.2154 47.3798C58.1873 40.8773 50.3453 33.2585 50.3453 33.2585C50.3174 29.2678 51.0151 25.4165 52.3267 21.8164C52.3267 21.8164 64.6061 33.7051 74.904 45.2588C81.546 52.7101 85.6763 58.2358 87.5461 61.5847C88.6066 63.4266 89.2764 65.6592 87.2391 65.9662ZM106.607 14.3651C100.579 7.69519 94.523 1.83459 94.523 1.83459C105.881 5.79747 114.449 15.6209 116.375 27.7607L116.319 28.7654C116.57 28.1514 116.319 25.1374 106.607 14.3651ZM116.458 37.8354C115.956 41.7145 114.533 45.6774 112.914 48.6635C113.137 48.217 113.137 46.8774 111.212 43.5564C107.472 37.2214 97.7045 26.0863 92.095 20.142C84.0856 11.6581 73.7597 1.4718 73.7597 1.4718C73.7597 1.4718 76.4389 0.634569 79.118 0.299678C83.36 -0.230566 85.3135 0.104326 85.3135 0.104326C85.3135 0.104326 101.751 16.5698 107.305 23.3792C112.914 30.2166 116.737 35.6307 116.458 37.8354ZM106.467 57.0637C103.816 59.5475 100.607 61.7243 97.4812 63.1476C97.9277 62.8406 98.737 61.4731 95.4718 56.5893C92.095 51.538 85.7042 43.389 79.8715 37.1377C72.8946 29.7422 56.8198 13.5 56.8198 13.5C56.8198 13.5 58.4385 11.2115 60.8664 8.95103C63.2107 6.80214 65.2479 5.49049 65.2479 5.49049C65.2479 5.49049 74.5412 15.007 88.3833 29.5468C97.3696 39.0075 102.812 46.6263 105.351 50.7845C106.719 53.0171 107.835 55.752 106.467 57.0637Z" fill="white"/>
<path d="M0.0558164 9.76023H11.777V15.872C15.0143 11.5463 20.1493 8.86719 26.3727 8.86719C37.5357 8.86719 45.1824 16.9604 45.1824 28.0397V56.1426H33.4612V30.1049C33.4612 23.9094 28.9402 19.4721 22.633 19.4721C16.3259 19.4721 11.7212 23.9094 11.7212 30.1049V56.1426H0V9.76023H0.0558164Z" fill="white"/>
<path d="M115.9 9.75977H128.514L141.296 43.9186L154.189 9.75977H165.994L147.519 56.1701H134.375L115.9 9.75977Z" fill="white"/>
<path d="M203.279 50.3937C199.595 54.524 194.46 57.0636 188.237 57.0636C175.539 57.0636 165.799 46.6261 165.799 32.9235C165.799 19.3046 175.539 8.86719 188.237 8.86719C194.432 8.86719 199.595 11.3789 203.279 15.6208V9.76023H215V56.1426H203.279V50.3937ZM190.581 46.3471C197.809 46.3471 203.279 40.5702 203.279 32.9235C203.279 25.3606 197.809 19.5837 190.581 19.5837C183.381 19.5837 177.967 25.3606 177.967 32.9235C177.967 40.5702 183.381 46.3471 190.581 46.3471Z" fill="white"/>
</svg>
