<svg width="100" height="64" viewBox="0 0 100 64" fill="none" xmlns="http://www.w3.org/2000/svg">
<g clip-path="url(#clip0_292_655)">
<mask id="mask0_292_655" style="mask-type:luminance" maskUnits="userSpaceOnUse" x="0" y="0" width="100" height="64">
<path d="M100 0H0V64H100V0Z" fill="white"/>
</mask>
<g mask="url(#mask0_292_655)">
<path d="M23.9717 47.0373C10.84 47.0373 0.157227 36.4872 0.157227 23.5186C0.157227 10.5501 10.84 0 23.9717 0C37.1034 0 47.7862 10.5501 47.7862 23.5186C47.7862 36.4872 37.1034 47.0373 23.9717 47.0373ZM23.9717 8.20695C15.4234 8.20695 8.4674 15.075 8.4674 23.5186C8.4674 31.9623 15.4218 38.8303 23.9717 38.8303C32.5201 38.8303 39.476 31.9623 39.476 23.5186C39.476 15.075 32.5216 8.20695 23.9717 8.20695Z" fill="white"/>
<path d="M73.068 13.2156L61.118 1.41699L55.2415 7.22051L73.068 24.8241V13.2156Z" fill="white"/>
<path d="M82.1736 33.8214L94.1236 45.6199L100 39.8164L82.1736 22.2129V33.8214Z" fill="white"/>
<path d="M67.1884 28.0166L55.2415 39.8166L61.118 45.6201L78.943 28.0166H67.1884Z" fill="white"/>
<path d="M88.0532 19.0221L100 7.22051L94.1236 1.41699L76.2986 19.0221H88.0532Z" fill="white"/>
<path d="M3.76347 56.5029C5.41085 56.5029 6.75135 57.3744 7.2506 58.8762H5.5391C5.18794 58.1721 4.54976 57.8268 3.75279 57.8268C2.45504 57.8268 1.53134 58.7616 1.53134 60.2528C1.53134 61.744 2.45656 62.6789 3.75279 62.6789C4.54976 62.6789 5.18794 62.3321 5.5391 61.6189H7.2506C6.75135 63.1312 5.41085 63.9922 3.76347 63.9922C1.626 63.9922 0 62.4482 0 60.2543C0 58.0605 1.62753 56.5059 3.76347 56.5059V56.5029Z" fill="white"/>
<path d="M12.889 56.5986V62.7625H15.3349V63.928H11.4004V56.5986H12.889Z" fill="white"/>
<path d="M19.1304 56.5986H20.6189V61.1341C20.6189 62.1428 21.1716 62.6675 22.1182 62.6675C23.0648 62.6675 23.6282 62.1428 23.6282 61.1341V56.5986H25.1275V61.125C25.1275 63.0565 23.7244 64.0019 22.0969 64.0019C20.4693 64.0019 19.1304 63.0565 19.1304 61.125V56.5986Z" fill="white"/>
<path d="M32.6361 63.928H29.436V56.5986H32.4987C34.0514 56.5986 34.9125 57.3962 34.9125 58.4894C34.9125 59.382 34.3705 59.9384 33.6468 60.1691C34.4865 60.3153 35.082 61.0828 35.082 61.9438C35.082 63.1093 34.1781 63.928 32.6361 63.928ZM32.285 57.7853H30.9246V59.6233H32.285C32.9873 59.6233 33.3903 59.3081 33.3903 58.7095C33.3903 58.1109 32.9857 57.7853 32.285 57.7853ZM32.3918 60.7571H30.9246V62.7308H32.4239C33.146 62.7308 33.572 62.384 33.572 61.7643C33.572 61.1446 33.1155 60.7556 32.3918 60.7556V60.7571Z" fill="white"/>
<path d="M47.2793 61.1126H46.035V63.9261H44.5464V56.5967H47.2793C49.0656 56.5967 49.9588 57.5949 49.9588 58.8644C49.9588 59.9772 49.1939 61.1111 47.2793 61.1111V61.1126ZM47.2152 59.9259C48.0549 59.9259 48.4274 59.5158 48.4274 58.8659C48.4274 58.2161 48.0549 57.7954 47.2152 57.7954H46.035V59.9274H47.2152V59.9259Z" fill="white"/>
<path d="M56.6688 56.5986C58.4551 56.5986 59.3483 57.6179 59.3483 58.8452C59.3483 59.7379 58.849 60.641 57.6581 60.9562L59.4338 63.928H57.7116L56.0749 61.0723H55.3726V63.928H53.884V56.5986H56.6688ZM56.6154 57.8169H55.3711V59.9701H56.6154C57.4444 59.9701 57.8169 59.5388 57.8169 58.8784C57.8169 58.218 57.4444 57.8184 56.6154 57.8184V57.8169Z" fill="white"/>
<path d="M68.1211 62.5296H65.1653L64.6767 63.9258H63.1133L65.7821 56.5859H67.5149L70.1837 63.9258H68.6096L68.1211 62.5296ZM66.6432 58.2882L65.5698 61.355H67.718L66.6447 58.2882H66.6432Z" fill="white"/>
<path d="M80.9352 58.8028H79.2237C78.8832 58.1831 78.2664 57.8574 77.4801 57.8574C76.1518 57.8574 75.2266 58.7923 75.2266 60.2518C75.2266 61.7114 76.1625 62.6673 77.5442 62.6673C78.6924 62.6673 79.4268 62.0159 79.6497 60.9771H77.0984V59.8538H81.1184V61.1354C80.8207 62.6266 79.471 63.9912 77.4923 63.9912C75.3335 63.9912 73.6968 62.4472 73.6968 60.2533C73.6968 58.0595 75.3335 56.5049 77.4817 56.5049C79.1397 56.5049 80.4588 57.3342 80.9367 58.8043L80.9352 58.8028Z" fill="white"/>
<path d="M85.0728 56.5986H86.5614V61.1341C86.5614 62.1428 87.1141 62.6675 88.0607 62.6675C89.0073 62.6675 89.5707 62.1428 89.5707 61.1341V56.5986H91.07V61.125C91.07 63.0565 89.6669 64.0019 88.0393 64.0019C86.4118 64.0019 85.0728 63.0565 85.0728 61.125V56.5986Z" fill="white"/>
<path d="M99.6824 57.7851H96.864V59.6231H99.3633V60.7886H96.864V62.7306H99.6824V63.9278H95.377V56.5879H99.6824V57.7851Z" fill="white"/>
</g>
</g>
<defs>
<clipPath id="clip0_292_655">
<rect width="100" height="64" fill="white"/>
</clipPath>
</defs>
</svg>
