<svg width="637" height="637" viewBox="0 0 637 637" fill="none" xmlns="http://www.w3.org/2000/svg">
<rect width="637" height="637" fill="black"/>
<g clip-path="url(#clip0_305_667)">
<path d="M428.979 313.163L273.512 207.163C271.342 205.693 268.544 205.531 266.226 206.753C263.915 207.976 262.467 210.378 262.467 213V425C262.467 427.622 263.915 430.024 266.233 431.247C267.265 431.798 268.403 432.067 269.533 432.067C270.925 432.067 272.318 431.65 273.512 430.837L428.979 324.837C430.908 323.523 432.067 321.339 432.067 319C432.067 316.661 430.908 314.477 428.979 313.163ZM276.6 411.623V226.377L412.457 319L276.6 411.623Z" fill="#22FFAF"/>
<path d="M319 107C202.103 107 107 202.103 107 319C107 435.897 202.103 531 319 531C435.897 531 531 435.897 531 319C531 202.103 435.897 107 319 107ZM319 516.867C209.898 516.867 121.133 428.102 121.133 319C121.133 209.898 209.898 121.133 319 121.133C428.102 121.133 516.867 209.898 516.867 319C516.867 428.102 428.102 516.867 319 516.867Z" fill="#22FFAF"/>
</g>
<defs>
<clipPath id="clip0_305_667">
<rect width="424" height="424" fill="white" transform="translate(107 107)"/>
</clipPath>
</defs>
</svg>
