<?xml version="1.0" encoding="UTF-8" standalone="no"?><!DOCTYPE svg PUBLIC "-//W3C//DTD SVG 1.1//EN" "http://www.w3.org/Graphics/SVG/1.1/DTD/svg11.dtd"><svg width="100%" height="100%" viewBox="0 0 1963 1100" version="1.1" xmlns="http://www.w3.org/2000/svg" xmlns:xlink="http://www.w3.org/1999/xlink" xml:space="preserve" xmlns:serif="http://www.serif.com/" style="fill-rule:evenodd;clip-rule:evenodd;stroke-linejoin:round;stroke-miterlimit:2;"><g><path d="M714,925.096l8.175,-32.492c-1.329,-0.775 -2.904,-1.546 -4.754,-2.254l-7.304,29.475c1.546,2.012 2.904,3.9 3.883,5.271" style="fill:#fff;fill-rule:nonzero;"/><path d="M917.162,865.444l-5.313,-4.062l-0.746,0.462l10.254,7.742l42.896,-18.596l-8.691,-18.892l-1.688,1.142l6.183,13.583l-42.895,18.621Z" style="fill:#fff;fill-rule:nonzero;"/><path d="M535.125,840.335l-0.871,0.625l42.325,29.45l42.938,-29.45l-5.53,-3.288l-41.604,28.538l-37.258,-25.875Z" style="fill:#fff;fill-rule:nonzero;"/><path d="M37.683,805.406c12.171,14.25 31.963,14.345 41.213,0.516c6.533,-9.833 2.441,-21.312 -5.679,-27.671c5.054,6.521 6.791,15.555 1.533,23.513c-8.229,12.321 -24.95,13.612 -37.067,3.642" style="fill:#fff;fill-rule:nonzero;"/><path d="M1936.3,863.746c-4.796,0 -9.25,-1.658 -12.837,-4.358c3.887,5.158 10.079,8.554 16.979,8.554c11.762,0 21.258,-9.533 21.258,-21.271c0,-6.954 -3.421,-13.066 -8.583,-16.962c2.771,3.583 4.454,8.012 4.454,12.792c-0,11.683 -9.563,21.245 -21.271,21.245" style="fill:#fff;fill-rule:nonzero;"/><path d="M1451.79,928.857l0,77.112c0,8.559 5.867,14.559 9.754,18.025c-2.896,-3.491 -5.571,-8.083 -5.571,-13.829l0,-77.137c0,-14.155 2.405,-27.78 -7.825,-36.88l-1.275,-1.016c6.859,8.95 4.917,21.121 4.917,33.725" style="fill:#fff;fill-rule:nonzero;"/><path d="M1073.04,805.373c12.075,14.275 32,14.438 41.225,0.558c6.492,-9.833 2.404,-21.325 -5.733,-27.67c5.162,6.508 6.845,15.541 1.52,23.512c-8.216,12.321 -24.937,13.596 -37.012,3.6" style="fill:#fff;fill-rule:nonzero;"/><path d="M1357.33,887.164c-4.196,10.35 -8.517,20.592 -12.292,31.146c1.288,2.05 2.35,4.196 3.434,6.1c4.146,-11.721 9.062,-22.959 13.558,-34.463c-1.479,-1.1 -3.029,-2.008 -4.7,-2.783" style="fill:#fff;fill-rule:nonzero;"/><path d="M1337.38,909.857c3.954,-10.771 8.396,-21.284 12.646,-31.946c-6.509,-4.958 -15.404,-6.454 -23.471,-4.525c-9.321,2.187 -16.221,10.475 -21.475,17.646l-0,-14.575l-26.775,-0c5.312,-12.796 8.733,-26.338 10.012,-40.3c4.755,-52.013 -13,-115.838 -55.025,-155.013c38.971,39.404 55.459,100.638 50.842,150.788c-1.4,15.579 -5.596,30.508 -11.804,44.483l-4.321,0c0.871,1.142 1.796,2.417 2.663,3.846c-16.313,34.133 -44.838,62.442 -76.705,79.692c-0.012,14.629 -0.933,79.012 2.313,90.325c3.475,12.295 8.392,22.82 17.683,31.054c-6.696,-7.513 -10.633,-16.534 -13.541,-26.896c-3.167,-11.3 -2.363,-75.646 -2.296,-90.329c31.175,-16.8 59.112,-44.309 75.562,-77.409c1.984,5.459 3.259,11.642 3.259,17.263c-0,27.562 -0.067,85.087 -0,92.379c0.258,11.75 -0.746,17.046 -5.309,20.417l43.575,-0c0,-0 -10.133,-7.296 -10.133,-22.209l-0,-63.937c-0,-14.425 1.737,-17.875 3.817,-21.813c2.158,-3.925 9.22,-11.558 16.775,-8.925c3.883,1.155 6.341,4.55 8.258,7.975l-0.379,-0.15c-7.554,-2.595 -14.671,5.038 -16.763,8.938c-2.104,3.979 -3.846,7.417 -3.846,21.842l0,63.92c0,14.913 10.134,22.209 10.134,22.209l-35.942,-0c-0.854,1.737 -1.912,3.071 -3.433,4.196l43.516,-0c0,-0 -10.104,-7.334 -10.104,-22.221l0,-63.879c0,-14.496 1.738,-17.934 3.817,-21.871c1.942,-3.642 8.15,-10.284 15.05,-9.263l0.475,0.8l0.312,-0.691l0.925,0.191l2.5,1.154l-2.812,-3.166Z" style="fill:#fff;fill-rule:nonzero;"/><path d="M1554.95,1024.86c-24.846,1.792 -44.933,-1.954 -75.508,-0.3c-0.313,1.483 -0.571,3.017 -0.763,4.512c33.483,-2.42 54.333,1.859 80.4,0l6.763,-30.225c-1.888,1.442 -3.83,2.584 -5.934,3.63l-4.958,22.383Z" style="fill:#fff;fill-rule:nonzero;"/><path d="M1462.37,1024.83l-30.671,-0c0.612,1.412 1.371,2.812 2.133,4.196l32.871,-0c-1.225,-1.113 -2.812,-2.5 -4.333,-4.196" style="fill:#fff;fill-rule:nonzero;"/><path d="M1088.64,1081.18c-1.221,-1.004 -2.35,-2.008 -3.425,-3.029c2.146,2.404 4.608,4.783 7.608,7.2c44.634,35.996 79.909,-9.1 126.05,0.812c-1.533,-1.3 -2.975,-2.741 -4.291,-4.196c-46.1,-9.75 -81.309,35.125 -125.942,-0.787" style="fill:#fff;fill-rule:nonzero;"/><path d="M1682.05,834.954l-4.142,0l0,168.417c0,13.5 4.713,17.483 8.638,21.487l-31.434,0c0.396,1.388 0.967,2.746 1.634,4.213l33.995,-0c-3.991,-4.05 -8.691,-8.013 -8.691,-21.45l-0,-172.667Z" style="fill:#fff;fill-rule:nonzero;"/><path d="M1899.9,958.733c0.667,-25.442 -8.42,-47.8 -22.887,-60.812c12.008,13.341 19.371,33.687 18.633,56.641c-1.208,40.179 -26.716,72.779 -56.991,72.779c-11.1,0 -21.313,-4.429 -29.709,-11.954c9.104,10.054 20.867,16.125 33.904,16.125c30.317,0 55.771,-32.571 57.05,-72.779" style="fill:#fff;fill-rule:nonzero;"/><path d="M1784.97,887.164c-4.146,10.35 -8.638,20.158 -12.471,30.658c1.262,1.954 2.337,4.1 3.479,6.029c4.087,-11.666 9.183,-22.4 13.692,-33.904c-1.425,-1.1 -3.071,-2.008 -4.7,-2.783" style="fill:#fff;fill-rule:nonzero;"/><path d="M1957.88,884.064l-4.146,-0l0.575,136.087c7.358,29.913 2.796,39.746 -3.329,49.813c-8.234,13.433 -22.959,21.625 -41.267,24.067c-5.879,0.22 -16.613,-1.1 -25.563,-5.513l0,1.792c9.563,6.383 22.913,8.125 29.759,7.879c18.312,-2.433 32.925,-10.638 41.2,-24.083c6.191,-10.025 10.741,-19.846 3.341,-49.767l-0.57,-140.275Z" style="fill:#fff;fill-rule:nonzero;"/><path d="M952.09,897.4l-34.204,128.621c-13.608,50.121 -25.317,60.087 -43.371,60.346c-4.154,0.083 -12.604,-1.913 -18.279,-4.629l0,1.587c4.358,3.913 17.058,7.283 22.479,7.188c18.05,-0.234 29.704,-10.175 43.354,-60.309l34.205,-128.646c2.295,-8.437 5.937,-12.387 9.358,-13.529l-9.358,0c-1.63,2.188 -3.071,5.229 -4.184,9.371" style="fill:#fff;fill-rule:nonzero;"/><path d="M1764.78,909.646c3.938,-10.866 8.638,-20.958 12.875,-31.729c-6.533,-4.971 -15.387,-6.466 -23.47,-4.525c-9.25,2.175 -16.192,10.475 -21.409,17.634l0,-14.575l-37.066,-0.042c5.108,5.962 8.937,17.646 8.937,27.546c0,27.562 -0.15,85.1 0,92.379c0.217,11.75 -0.758,17.058 -5.312,20.429l43.55,0c-0,0 -10.109,-7.296 -10.109,-22.221l0,-63.925c0,-14.425 1.671,-17.875 3.834,-21.825c2.145,-3.925 9.154,-11.546 16.72,-8.925c4.142,1.221 6.438,4.604 8.434,8.054l-0.517,-0.229c-7.604,-2.583 -14.667,5.05 -16.817,8.95c-2.141,3.979 -3.841,7.404 -3.841,21.842l-0,63.908c-0,14.913 10.187,22.221 10.187,22.221l-35.996,0c-0.816,1.742 -1.954,3.071 -3.425,4.183l43.55,0c0,0 -10.12,-7.333 -10.12,-22.22l-0,-63.867c-0,-14.508 1.737,-17.929 3.9,-21.883c1.887,-3.655 8.12,-10.38 15.062,-9.263l0.15,0.271l0.121,-0.217l1.412,0.242l2.513,1.225c-0.921,-1.292 -1.942,-2.488 -3.163,-3.438" style="fill:#fff;fill-rule:nonzero;"/><path d="M287.198,835.857l-4.196,0c-0.083,26.025 -0.354,164.888 -0.15,171.692c0.15,7.55 3.396,12.796 8.488,17.604l-37.992,0c-1.275,1.521 -2.633,2.933 -3.937,4.142l46.016,-0c-5.037,-4.784 -8.229,-9.996 -8.445,-17.575c-0.138,-7.542 0.216,-175.863 0.216,-175.863" style="fill:#fff;fill-rule:nonzero;"/><path d="M345.979,995.133c-3.558,-0.229 -7.116,-0.517 -10.62,-0.829c14.912,-41.55 49.687,-71.458 58.391,-118.279l-82.625,-0l-7.566,32.908c12.933,-17.929 54.02,-14.492 54.02,-14.492c-0.041,2.025 -0.816,4.646 -2.145,7.609c-10.53,0.187 -26.884,1.671 -37.463,8.679l-2.35,10.225c7.538,-10.513 24.75,-13.65 37.692,-14.479c-12.484,23.854 -48,68.554 -53.596,110.529c33.521,-2.392 54.346,1.9 80.462,-0l6.7,-30.158c-9.633,7.283 -22.237,8.845 -34.87,8.533c16.408,-36.092 45.829,-64.738 53.762,-107.35l-5.121,-0c-9.346,41.825 -39.158,70.296 -54.671,107.104" style="fill:#fff;fill-rule:nonzero;"/><path d="M388.002,1024.86c-24.787,1.792 -44.92,-1.954 -75.495,-0.3c-0.313,1.483 -0.559,3.017 -0.721,4.512c33.441,-2.42 54.279,1.859 80.387,0l6.696,-30.225c-1.85,1.442 -3.846,2.584 -5.937,3.63l-4.93,22.383Z" style="fill:#fff;fill-rule:nonzero;"/><path d="M497.384,980.898c3.017,6.179 2.146,19.058 -4.345,28.104c-8.125,11.421 -22.959,18.488 -34.963,18.242c-7.825,-0.108 -16.775,-2.321 -24.6,-9.004c8.583,9.966 19.571,13.066 28.783,13.187c11.967,0.234 26.784,-6.858 34.975,-18.271c7.309,-10.17 7.567,-25.154 3.071,-30.083l-2.921,-2.175Z" style="fill:#fff;fill-rule:nonzero;"/><path d="M53.327,1081.18c-1.221,-1.004 -2.35,-2.008 -3.48,-3.029c2.146,2.404 4.713,4.783 7.621,7.2c44.675,35.996 79.896,-9.1 126.121,0.812c-1.592,-1.3 -3.017,-2.741 -4.375,-4.196c-46.075,-9.75 -81.308,35.125 -125.887,-0.787" style="fill:#fff;fill-rule:nonzero;"/><path d="M497.238,892.177c9.563,13.421 9.4,46.317 -12.212,61.3c-15.7,10.867 -40.45,11.384 -40.45,11.384c-0.15,7.47 1.129,21.991 7.158,31.77c-12.946,-7.091 -15.242,-29.637 -14.983,-39.62c-0,-0 24.696,-0.505 40.383,-11.384c21.883,-15.116 21.788,-48.521 12.021,-61.679c-7.658,-10.325 -44.483,-24.979 -69.642,13.338c-14.612,22.25 -17.629,71.937 -4.846,98.395c8.896,18.5 23.621,23.484 35.588,23.73c11.912,0.216 26.783,-6.888 34.962,-18.255c7.267,-10.187 7.513,-25.2 3.071,-30.129c-2.091,-2.296 -5.516,-3.979 -8.587,-1.521c5.462,11.98 -10.279,32.125 -23.838,28.784l-1.629,-0.517c-4.592,-9.575 -5.625,-22.004 -5.475,-28.729c0,-0 24.75,-0.504 40.45,-11.383c21.883,-15.117 21.775,-48.45 11.967,-61.692c-0.921,-1.196 -2.254,-2.488 -3.938,-3.792m-47.704,44.879c1.071,-12.687 3.071,-22.55 10.471,-29.204c2.054,-1.791 5.121,-4.008 8.546,-4.441c1.016,10.812 -5.367,26.475 -19.017,33.645m-1.533,-41.195c3.625,-3.288 10.429,-7.921 17.179,-1.034c1.075,1.209 2,2.784 2.608,4.629c-4.808,-1.329 -9.262,1.809 -11.966,4.267c-8.596,7.663 -9.93,19.654 -10.892,35.25c-2.596,0.921 -5.313,1.575 -8.383,1.792c1.225,-20.429 1.183,-35.738 11.454,-44.904" style="fill:#fff;fill-rule:nonzero;"/><path d="M687.307,911.957c4.196,-4.196 8.746,-3.734 12.93,-1.263l1.808,2.392l0.246,-1.1l1.641,1.371l-1.575,-1.738l7.755,-31.025c-12.659,-7.362 -48.384,-15.146 -61.463,15.075c-14.654,34.096 40.396,57.2 33.958,85.954c-1.845,8.463 -9.1,12.538 -15.7,11.984c-0.245,-1.725 -0.354,-3.588 -0.095,-5.746c0.758,-6.971 5.975,-12.188 5.77,-13.138c-2.35,-0.312 -4.779,0.18 -7.308,1.155c-1.179,2.12 -2.362,4.795 -2.662,7.783c-0.405,3.683 -0,6.712 0.925,9.225c-5.53,-1.917 -9.846,-7.525 -8.842,-17.063c0.867,-6.995 6.042,-12.183 5.854,-13.175c-3.912,-0.42 -8.312,0.938 -12.567,4.075c-3.72,2.788 -7.454,6.821 -9.141,13.95c-10.429,46.046 66.371,57.742 73.212,3.655c5.925,-46.917 -51.587,-69.6 -36.808,-84.421c7.867,-7.821 16.937,0.6 22.754,7.812c-4.717,-3.408 -10.054,-4.783 -14.887,0.079c-14.767,14.755 42.745,37.45 36.82,84.434c-4.82,37.937 -44.129,43.466 -63.5,27.425c17.13,20.921 62.471,17.712 67.7,-23.254c5.921,-46.971 -51.604,-69.655 -36.825,-84.446" style="fill:#fff;fill-rule:nonzero;"/><path d="M855.44,1024.86l-28.729,-0c-3.529,-0 -6.467,-1.263 -8.95,-3.15c3.246,4.058 7.362,7.362 13.121,7.362l31.254,0c-2.025,-0.733 -4.213,-2.079 -6.696,-4.212" style="fill:#fff;fill-rule:nonzero;"/><path d="M624.725,931.403c0.109,-15.646 -5.108,-29.505 -10.529,-35.305c-1.275,-1.275 -2.458,-2.429 -3.583,-3.395c5.229,6.154 9.971,19.437 9.971,34.529c-0.042,22.887 -0.096,67.358 -0.096,75.808c-0,8.896 4.958,17.7 9.821,22.238l-30.563,-0c0.65,1.558 1.479,2.958 2.554,4.166l32.192,0c-4.85,-4.521 -9.808,-13.325 -9.808,-22.246c-0,-8.408 0.041,-52.879 0.041,-75.795" style="fill:#fff;fill-rule:nonzero;"/><path d="M569.984,1025.2l-35.479,-0c-1.171,1.791 -2.704,3.041 -4.863,4.141c0,0 40.75,0.042 44.946,0.042c-1.533,-0.938 -3.125,-2.321 -4.604,-4.183" style="fill:#fff;fill-rule:nonzero;"/><path d="M952.284,838.953l-8.734,-18.921l-44.487,29.759l10.258,7.758l42.963,-18.596Z" style="fill:#fff;fill-rule:nonzero;"/><path d="M607.453,828.906l-12.879,-7.771l-30.005,15.175l-30.52,-15.175l-11.817,7.771l42.337,29.421l42.884,-29.421Z" style="fill:#fff;fill-rule:nonzero;"/><path d="M1928.39,855.896c11.804,-0 21.312,-9.55 21.312,-21.259c0,-11.775 -9.508,-21.283 -21.312,-21.283c-11.763,-0 -21.217,9.508 -21.217,21.283c0,11.709 9.454,21.259 21.217,21.259" style="fill:#fff;fill-rule:nonzero;"/><path d="M1547.08,1017.01l6.75,-30.154c-9.658,7.279 -22.25,8.829 -34.921,8.529c16.421,-36.104 45.908,-64.75 53.788,-107.358l-5.121,-0c-9.304,41.82 -39.213,70.304 -54.659,107.116c-3.57,-0.233 -7.104,-0.533 -10.579,-0.829c14.834,-41.567 49.604,-71.462 58.392,-118.296l-82.733,0l-7.555,32.913c12.934,-17.917 54.088,-14.496 54.088,-14.496c-0.054,2.037 -0.867,4.658 -2.2,7.621c-10.471,0.191 -26.892,1.671 -37.475,8.679l-2.35,10.229c7.567,-10.512 24.696,-13.65 37.721,-14.479c-12.417,23.85 -47.988,68.554 -53.571,110.525c33.442,-2.392 54.304,1.9 80.425,-0" style="fill:#fff;fill-rule:nonzero;"/><path d="M1206.86,1074.12c-9.792,-8.312 -14.875,-19.096 -18.446,-31.729c-3.233,-11.275 -2.363,-75.633 -2.363,-90.3c46.059,-24.858 85.18,-72.779 90.23,-127.996c5.041,-55.2 -15.292,-123.767 -63.08,-162.071c-47.783,-38.279 -114.845,-38.212 -152.633,-12.391c0,-0 4.7,5.029 10.488,12.145c17.183,21.175 -6.9,56.684 -13.721,74.746c-6.884,18.054 -9.342,36.813 0.625,52.621c11.454,18.367 34.204,19.833 44.229,4.742c8.583,-12.796 -1.075,-28.496 -14.113,-31.838c3.884,-28.812 26.934,-50.979 49.634,-53.966c23.783,-3.125 46.046,1.766 67.046,18.825c15.087,19.533 25.412,54.566 25.929,85.833c-0.871,-0 -1.959,0.025 -3.234,0.054c-4.795,11.992 -18.595,13.529 -33.887,18.379c-0.058,8.079 -0.058,54.329 -0.058,79.717c-2.35,2.933 -4.955,5.871 -7.713,8.842c0,-0 -0.15,-85.18 0,-96.425c16.871,-5.421 31.946,-6.588 35.071,-22.655c-0,0 -11.275,0.109 -23.188,0.95c-0.12,-16.654 0.492,-39.758 6.425,-45.641l-6.708,-0c-3.983,10.108 -4.092,31.771 -3.887,45.925c-2.592,0.233 -5.255,0.475 -7.713,0.721c-0.15,-13.38 -1.467,-50.98 6.288,-58.734l-68.321,0c24.187,16.109 19.312,49.05 19.312,63.921c-43.696,9.538 -89.146,31.163 -102.904,65.458c-7.308,18.296 -8.787,43.738 13.446,67.25c22.196,23.513 64.317,30.317 89.104,24.655l0,9.154c-23.808,2.662 -57.508,-4.05 -77.954,-22.75l0.871,0.975c18.866,20.037 52.296,27.929 77.029,26.258c-0.054,15.417 -0.108,39.663 -0.054,50.542c-0,17.454 -7.304,31.308 -17.454,36.225c0.912,-2.538 1.712,-5.271 2.079,-8.338c0.871,-7.512 -3.259,-15.662 -9.863,-21.054c4.092,4.958 6.346,11.083 5.679,16.925c-0.666,5.717 -2.608,10.704 -5.12,14.329c-3.98,0.284 -8.121,-0.666 -12.363,-3.166c4.592,-3.15 8.6,-10.2 9.658,-19.03c2.038,-18.404 -25.208,-40.258 -45.558,-18.404c-7.525,8.138 -12.671,27.275 11.154,46.454c44.634,36.05 79.896,-9.02 126.038,0.842m-73.35,-370.221c-23.646,3.125 -47.634,27.042 -49.984,57.513c-2.662,-0.054 -5.312,0.379 -7.975,1.479c-2.35,-34.867 24.125,-63.446 50.096,-66.858c25.984,-3.355 50.254,2.704 72.925,23.841c1.579,1.534 3.125,3.217 4.659,5.05c-21.759,-18.837 -44.971,-24.258 -69.721,-21.025m64.275,131.459c14.304,-4.58 27.25,-6.167 32.833,-16.205c-0.192,5.988 -0.708,11.746 -1.729,17.155c-1.438,8.12 -4.033,35.058 -31.104,69.504c-0.025,-26.079 -0.079,-63.271 -0,-70.454m-115.429,60.633c0.408,-26.896 33.483,-50.788 61.179,-62.592c-0,3.763 -0.109,7.579 -0.109,11.504c-25.645,12.73 -52.854,34.559 -53.204,58.967c-0.204,11.042 1.425,17.904 5.621,23.688c-10.008,-8.042 -13.746,-15.2 -13.487,-31.567m16.395,33.754c-3.22,-5.446 -4.483,-11.846 -4.333,-21.721c0.3,-23.021 24.679,-43.846 49.008,-56.762c-0.041,26.296 -0.245,55.571 -0.083,84.908c-11.775,5.258 -32.817,1.713 -44.592,-6.425" style="fill:#fff;fill-rule:nonzero;"/><path d="M910.03,1018.18l34.175,-128.617c2.35,-8.479 5.992,-12.404 9.413,-13.545l-33.646,-0c5.883,3.07 6.033,8.112 5.583,14.52c-0.216,3.342 -3.479,15.105 -6.046,26.884l-10.145,39.537l-13.68,-38.341c-2.525,-8.438 -5.158,-17.971 -5.104,-20.43c0.134,-5.908 3.217,-8.437 7.104,-10.162l-9.616,-0c-0.967,1.537 -1.659,3.425 -1.713,6.017c-0.041,2.433 2.646,11.929 5.188,20.404l16.775,46.929l-2.2,8.175l-22.438,-62.954c-2.571,-8.479 -5.216,-18.013 -5.175,-20.417c0.163,-5.921 3.246,-8.462 7.117,-10.162l-83.046,-0c3.013,1.55 4.263,10.054 -0.9,16.966l-21.258,27.084l0.204,-84.2l-4.221,-0l-0.233,89.554l-7.825,10.025l0.204,-111.6l-41.25,-0c5.254,5.866 12.321,12.062 12.417,21.95c0.145,9.875 -0,141.196 -0,153.787c-0,7.867 -4.555,13.734 -8.942,17.688l46.062,-0c-5.037,-4.825 -8.287,-10.025 -8.433,-17.55c-0.058,-2.8 -0.112,-57.525 -0.112,-57.525c-0,-0 3.383,6.275 7.854,14.683c-0,14.725 0.025,48.517 0.079,50.679c0.179,7.55 3.45,12.796 8.529,17.588l-38.029,-0c-1.279,1.521 -2.554,2.937 -3.913,4.158l46.088,0c-5.054,-4.796 -8.275,-10.012 -8.421,-17.592c-0.112,-1.995 -0.112,-31.037 -0.167,-47.104c7.975,14.684 17.171,31.85 19.384,35.709c3.983,6.983 9.196,16.695 19.166,16.695l28.813,0c1.504,1.78 2.933,3.138 4.317,4.317c-1.071,-1.233 -2.2,-2.717 -3.325,-4.317l1.412,0l-2.079,-0.912c-1.575,-2.375 -3.192,-5.013 -4.933,-8.188l-36.375,-67.212c-0,-0 26.787,-34.8 31.145,-40.463c2.392,-3.125 5.925,-6.466 9.292,-7.537l38.538,110.675c3.462,11.246 3.583,15.879 3.083,18.608c-1.754,9.209 -6.346,29.679 -22.604,29.679c-10.596,0 -16.788,-8.529 -21.95,-14.658l-0,34.283c4.375,3.942 17.1,7.309 22.454,7.213c18.05,-0.271 29.704,-10.171 43.383,-60.321m-76.391,-122.137c-4.375,5.687 -31.188,40.45 -31.188,40.45l36.429,67.25c2.379,4.508 4.7,8.133 6.971,11.029c-4.242,-2.975 -9.292,-8.588 -14.821,-18.921l-36.458,-67.171c-0,0 26.842,-34.8 31.229,-40.475c2.963,-3.833 7.525,-7.946 11.408,-7.946c2.663,0 5.8,3.529 7.975,7.892l-0.095,-0.029c-3.913,-0 -8.53,4.104 -11.45,7.921" style="fill:#fff;fill-rule:nonzero;"/><path d="M612.617,995.188c-0,-8.433 0.096,-52.92 0.096,-75.791c0.054,-15.704 -5.109,-29.546 -10.571,-35.334c-9.504,-10.02 -16.463,-10.129 -21.475,-10.35c-12.821,0.15 -20.7,10.35 -27.817,19.275l0,-16.775l-42.379,0c11.467,7.5 14.425,36.213 14.425,43.971c0,0 0.204,68.538 0.15,75.996c0,14.4 -1.737,18.175 -7.458,21.121l44.987,-0c-4.4,-2.729 -9.604,-8.746 -9.725,-20.946c-0.15,-17.154 0.054,-60.987 0,-76.921c0,-13.133 15.296,-19.15 21.584,-16.504c3.575,1.55 6.533,4.146 8.437,8.15l-0.558,-0.296c-6.288,-2.691 -21.625,3.379 -21.625,16.559c0.041,15.904 -0.163,59.708 -0,76.837c0.096,11.354 4.646,17.304 8.787,20.333c-2.554,-3.491 -4.55,-8.65 -4.604,-16.108c-0.15,-17.171 0.054,-60.987 0,-76.95c0,-11.679 12.171,-17.75 19.275,-17.058c0.721,2.596 1.129,5.5 1.129,9.004c0,7.921 -0.096,55.296 -0.096,71.979c-0.108,11.438 1.575,17.929 4.996,22.004l32.263,0c-4.809,-4.496 -9.821,-13.312 -9.821,-22.196" style="fill:#fff;fill-rule:nonzero;"/><path d="M1454.7,1016.95c-3.829,-3.246 -10.783,-9.575 -10.783,-18.842l-0,-77.096c-0,-14.141 2.429,-27.75 -7.825,-36.891c-19.425,-17.279 -43.75,-11.613 -65.867,-2.296l-8.042,26.692c18.704,-9.996 41.146,-18.842 51.1,-8.896c1.279,1.316 2.038,2.837 2.554,4.587c-9.833,-3.408 -25.129,1.85 -39.416,8.846l-2.254,7.508c14.341,-7.67 30.791,-14.6 42.229,-13.025c0.366,3.6 0.162,7.934 0.271,13.3c-41.784,6.763 -64.563,35.371 -64.534,57.959c0.029,18.812 7.334,27.887 14.384,33.237c16.462,12.484 34,7.634 50.912,-7.171c-0.096,3.234 1.792,7.388 3.829,11.138c-15.662,12.154 -31.729,15.404 -46.821,3.912l-1.616,-1.291c1.821,2.158 3.775,3.991 5.716,5.446c15.65,11.816 32.192,8.07 48.234,-4.971l-0.704,-2.146l28.633,-0Zm-67.875,-53.938c4.821,-7.758 17.833,-17.891 29.733,-20.687l0,10.704c-9.346,4.371 -18.146,11.788 -21.871,17.821c-3.95,6.287 -3.8,13.896 -1.058,19.654l-2.308,-1.221c-7.375,-4.716 -10.271,-17.008 -4.496,-26.271m9.821,28.484c-1.521,-5.204 -1.059,-11.246 2.241,-16.463c3.163,-5.096 9.971,-11.275 17.671,-15.687l0,17.383c0,11.179 -10.433,17.05 -19.912,14.767" style="fill:#fff;fill-rule:nonzero;"/><path d="M1887.84,946.693c1.183,-40.204 -22.329,-72.833 -52.608,-72.833c-30.263,-0 -55.729,32.629 -57.009,72.833c-1.183,40.208 22.346,72.804 52.609,72.804c30.262,0 55.771,-32.596 57.008,-72.804m-32.925,0c-0.925,28.904 -11.342,52.363 -23.471,52.363l-1.575,-0.205c-4.5,-9.616 -7.121,-23.958 -6.604,-40.125c0.871,-28.916 11.3,-52.362 23.429,-52.362l1.579,0.162c4.442,9.605 7.117,24.005 6.642,40.167m-43.712,0c0.87,-28.946 11.358,-52.337 23.404,-52.337c4.508,-0 8.654,3.25 11.912,8.816c-1.316,-0.571 -2.65,-0.975 -4.033,-0.975c-12.008,0 -22.604,23.442 -23.404,52.363c-0.625,18.2 2.854,34.212 8.366,43.571c-10.008,-4.467 -17.07,-25.738 -16.245,-51.438" style="fill:#fff;fill-rule:nonzero;"/><path d="M1943.1,1062.08c6.196,-10.025 10.692,-19.887 3.313,-49.796l-0.608,-140.246l-36.663,0c0,0 7.988,5.938 7.988,18.963c-0,12.987 0.558,112.754 0.558,112.754c-0.096,15.742 4.196,30.888 2.567,37.925c-2.663,12.113 -9.009,14.708 -20.092,15.729c-13.038,1.196 -24.504,-15.458 -28.021,-17.279c-0.054,9.263 0,27.888 0,38.154c9.496,6.346 22.888,8.138 29.704,7.85c18.3,-2.429 32.967,-10.579 41.254,-24.054" style="fill:#fff;fill-rule:nonzero;"/><path d="M237.344,1017.27l46.113,-0c-5.067,-4.821 -8.296,-10.038 -8.475,-17.563c-0.163,-7.512 0.179,-175.862 0.179,-175.862l-21.612,-0c1.183,-49.496 -16.817,-106.613 -55.675,-142.796c36.97,37.366 53.637,94.212 51.408,142.796l-8.392,-0c4.996,-55.159 -15.308,-123.605 -63.025,-161.813c-47.854,-38.279 -114.875,-38.225 -152.608,-12.404c-0,-0 4.7,5.042 10.487,12.146c17.184,21.187 -6.9,56.696 -13.762,74.758c-6.842,18.042 -9.358,36.813 0.571,52.608c11.562,18.38 34.246,19.846 44.325,4.742c8.529,-12.796 -1.075,-28.483 -14.117,-31.837c3.888,-28.813 26.938,-50.98 49.633,-53.967c23.771,-3.113 45.996,1.779 66.955,18.825c15.104,19.546 25.479,54.55 25.97,85.833c-0.87,0 -1.945,0.025 -3.245,0.067c-4.784,11.979 -18.53,13.529 -33.771,18.367c-0.15,8.091 -0.054,54.37 -0.025,79.729c-2.488,2.921 -5.042,5.871 -7.838,8.829c0,-0 -0.162,-85.179 0,-96.425c16.871,-5.404 32.042,-6.575 35.059,-22.642c-0,0 -11.221,0.096 -23.213,0.938c-0.096,-16.654 0.567,-39.746 6.504,-45.629l-6.75,-0c-3.996,10.108 -4.05,31.758 -3.887,45.912c-2.621,0.229 -5.2,0.488 -7.713,0.733c-0.162,-13.391 -1.496,-50.979 6.275,-58.733l-68.283,0c24.137,16.108 19.329,49.05 19.329,63.921c-43.75,9.525 -89.2,31.146 -102.904,65.458c-7.363,18.284 -8.788,43.725 13.392,67.25c22.195,23.513 64.358,30.304 89.05,24.654l-0,9.155c-23.771,2.65 -57.442,-4.063 -77.9,-22.78l0.87,1.005c18.963,20.037 52.242,27.916 77.03,26.258c-0.042,15.404 -0.096,39.65 -0.096,50.529c0.096,17.467 -7.213,31.321 -17.438,36.225c0.975,-2.525 1.738,-5.271 2.104,-8.337c0.867,-7.513 -3.275,-15.65 -9.766,-21.096c3.991,5.012 6.233,11.137 5.516,16.966c-0.612,5.717 -2.5,10.7 -5.012,14.33c-3.967,0.283 -8.113,-0.655 -12.363,-3.167c4.55,-3.138 8.6,-10.2 9.605,-19.017c2.104,-18.416 -25.196,-40.271 -45.492,-18.416c-7.567,8.133 -12.725,27.287 11.1,46.466c44.621,36.038 79.896,-9.033 126.062,0.829c-9.791,-8.3 -14.9,-19.083 -18.47,-31.716c-3.234,-11.288 -2.313,-75.629 -2.313,-90.3c44.2,-23.867 81.879,-69.004 89.325,-121.434c3.367,4.184 6.179,8.925 6.263,15.13l0.012,1.537c-10.175,48.625 -46.058,90.108 -87.733,112.617c-0,14.629 -0.909,79.012 2.308,90.329c3.45,12.292 8.383,22.871 17.767,31.062c-6.696,-7.512 -10.663,-16.541 -13.584,-26.908c-3.216,-11.3 -2.32,-75.629 -2.295,-90.325c37.179,-20.062 69.762,-55.258 83.604,-97.204c-0,40.179 -0.079,123.067 -0.079,132.667c-0,7.866 -4.605,13.733 -8.98,17.7m-139.187,-313.375c-23.663,3.125 -47.596,27.058 -49.946,57.508c-2.7,-0.038 -5.308,0.383 -8.025,1.496c-2.35,-34.867 24.138,-63.459 50.146,-66.871c25.975,-3.342 50.233,2.704 72.929,23.854c1.592,1.521 3.138,3.246 4.604,5.054c-21.704,-18.841 -44.916,-24.275 -69.708,-21.041m-51.167,192.091c0.409,-26.896 33.467,-50.775 61.179,-62.591c0,3.762 -0.054,7.591 -0.054,11.504c-25.712,12.729 -52.891,34.558 -53.262,58.979c-0.146,11.029 1.537,17.904 5.679,23.687c-10.067,-8.054 -13.746,-15.212 -13.542,-31.579m16.409,33.754c-3.221,-5.445 -4.442,-11.845 -4.346,-21.72c0.312,-23.009 24.679,-43.834 49.062,-56.75c-0.096,26.283 -0.246,55.554 -0.096,84.895c-11.762,5.259 -32.858,1.713 -44.62,-6.425m99.02,-23.92c-0.025,-26.08 -0.025,-63.271 0.03,-70.467c14.287,-4.567 27.245,-6.154 32.816,-16.208c-0.179,5.991 -0.708,11.75 -1.712,17.17c-1.479,8.121 -4.034,35.046 -31.134,69.505" style="fill:#fff;fill-rule:nonzero;"/><path d="M1678.72,1017.01c-3.98,-4.046 -8.734,-8 -8.734,-21.421l0,-172.683l-41.375,-0c6.763,5.462 12.388,8.029 12.388,20.458l-0,39.213c-7.825,-6.938 -23.729,-8.705 -34.663,-3.342c-36.608,18.15 -54.308,106.858 -9.671,135.383c13.867,8.871 33.442,3.575 44.388,-12.779c-0,2.892 0.654,7.946 3.071,13.758c-11.263,11.63 -27.563,14.575 -39.584,6.888c-2.35,-1.467 -4.454,-3.15 -6.395,-4.958c3.029,3.504 6.545,6.545 10.595,9.129c12.617,8.15 30.059,4.358 41.305,-8.871l-0.163,-0.775l28.838,-0Zm-73.771,-40.45c-7.771,-21.175 -3.421,-56.113 10.337,-72.804c7.825,-9.509 18.596,-8.6 23.459,2.05c-5,-1.85 -10.842,-0 -15.592,5.787c-13.75,16.746 -18.108,51.667 -10.379,72.817c0.8,2.158 1.791,3.996 2.812,5.667c-4.254,-2.338 -8.125,-6.617 -10.637,-13.517m36.35,-3.613c-0,13.788 -12.267,22.071 -23.159,18.296l-1.17,-2.675c-7.771,-21.137 -3.396,-56.058 10.325,-72.737c3.895,-4.754 8.487,-6.821 12.683,-6.496c0.804,2.854 1.321,6.183 1.321,10l-0,53.612Z" style="fill:#fff;fill-rule:nonzero;"/><path d="M581.959,59.644l-2.284,0.837l2.284,-0.837Z" style="fill:#fff;fill-rule:nonzero;"/><path d="M930.607,358.586c7.075,-15.166 12.058,-30.395 14.579,-49.966c1.25,-9.7 2.183,-20.384 1.45,-30.609c-1.425,-19.895 -9.363,-33.166 -19.363,-45.387c-9.775,-11.958 -21.358,-21.792 -31.641,-33.092c-5.334,-5.866 -10.175,-11.996 -13.746,-18.533c-1.946,-3.583 -3.579,-7.379 -4.579,-11.45c-1.063,-4.367 -1,-9.075 -1.25,-14.992c-0.813,-19.258 -9.663,-33.375 -21.446,-43.3c-17.338,-14.604 -42.042,-23.079 -56.621,-40.396c-4.904,-5.816 -8.388,-12.604 -13.742,-18.733c-9.787,-11.187 -22.371,-21.221 -42.054,-22.483c-10.446,-0.675 -20.446,0.737 -30.396,1.875c-9.737,1.121 -19.571,1.971 -30.608,1.458c-10.833,-0.512 -19.746,-1.921 -27.683,-4.579c-8.117,-2.721 -14.63,-6.604 -21.234,-11.25c-12.783,-8.988 -25.029,-18.138 -47.683,-17.063c-27.075,1.275 -48.746,9.813 -69.117,18.113c-15.241,6.204 -30.396,13.533 -45.8,19.558c-5.316,2.1 -11.033,4.096 -16.65,5.209c-3.358,0.675 -6.766,0.65 -10,0.833c-38.146,2.262 -47.796,32.196 -61.825,58.296c-5.366,9.975 -10.312,18.087 -18.112,25.6c-7.663,7.391 -18.05,10.912 -27.063,16.454c-9.037,5.567 -17.187,11.771 -24.566,19.158c-5.53,5.521 -10.746,11.588 -15.255,17.95c-19.233,27.138 -24.012,61.917 -18.47,94.259c0.508,3.033 0.983,6.079 1.658,9.162c0.65,2.933 1.787,6.054 2.083,8.95c0.663,6.529 -1.133,13.579 -2.496,19.371c-2.208,9.4 -4.966,18.675 -7.312,28.05c-1.175,4.742 -2.263,9.5 -3.133,14.292l-1.825,12.683c-1.471,5.729 -2.246,15.529 -2.346,18.887c-0.1,3.184 -0.175,6.375 -0.2,9.559c-0.188,18.675 1.225,37.262 9.812,54.337c10.909,21.684 26.688,37.921 42.892,54.125c10.921,10.934 22.017,20.521 31.854,32.692c4.792,5.929 10,12.608 11.233,21.233c0.413,2.771 0.188,5.204 0.425,7.5c0.688,6.954 3.234,13.021 6.042,18.313c3.583,6.779 8.188,13.133 13.317,18.95c9.962,11.296 22.108,21.071 35.604,29.146c13.717,8.2 28.883,14.666 46.633,18.112c9.138,1.788 19.596,2.858 29.771,2.083c5.092,-0.383 10.225,-1.045 15.404,-0.833c25.65,1.083 33.392,20.921 54.125,26.65c18.809,5.204 39.629,-1.625 54.138,-6.867c4.129,-1.508 7.925,-3.008 12.691,-3.333c4.959,-0.337 9.975,0.213 14.992,1.25c8.575,1.758 17.225,4.954 25.604,6.863c8.738,2 18.471,3.283 28.534,3.758c10.05,0.462 20.383,-0.663 29.558,-2.496c17.387,-3.496 33.167,-9.5 48.096,-16.45c14.916,-6.954 27.262,-15.404 37.062,-27.7c9.746,-12.233 15.617,-27.687 21.842,-42.879c6.204,-15.104 13.558,-28.933 26.862,-37.896c6.705,-4.508 14.134,-7.579 22.484,-9.787c4.529,-1.184 8.537,-2.021 12.283,-3.746c3.617,-1.659 6.763,-3.642 9.996,-6.238c11.971,-9.637 19.787,-23.608 23.942,-40.808c4.433,-18.325 3.258,-40.654 -0.425,-58.092c-1.771,-8.425 -4.13,-16.891 -6.863,-25.391c-2.721,-8.488 -3.958,-18.463 -1.25,-27.896c2.296,-7.992 6.379,-15.167 9.788,-22.484m-201.942,-316.445c1.558,-0.35 7.575,-0.338 9.371,-0l2.5,1.25l2.658,0.745l0.858,0.288l0.013,-0l1.125,1.087l0.175,0.313l0.487,1.146l0.05,0.187l-0.85,2.784l-0.075,0.125l-0.362,0.187l-0.5,0.275l-1.121,0.263l-0.312,0.012l-1.675,-0.125l-0.059,0l-0.029,-0.012c-1.883,-0.338 -3.992,-1.071 -5.942,-1.721c-2.033,0.2 -3.416,0.821 -4.654,-0.975c-4.496,0.712 -5.429,-4.979 -1.658,-5.829m-439.775,359.883c-0.1,1.962 -0.263,3.908 -0.5,5.858c-2.233,18.159 7.304,30.729 10.983,47.509l0.213,2.295c0.425,1.584 2.496,3.359 1.05,5.392c-2.396,3.383 -13.271,-12.183 -13.979,-13.579c-3.359,-6.617 -5.409,-13.746 -8.455,-20.488c-5.629,-12.454 -6.775,-26.187 -6.587,-39.704c0.425,-29.971 13.254,-55.887 16.625,-85.371c0.875,-7.55 0.862,-14.591 -0.3,-22.104c-0.721,-4.783 -3.158,-23.891 3.308,-23.179c7.242,0.796 6.704,19.296 7.825,23.879c1.163,4.679 3.109,8.85 3.521,13.679c1.038,12.159 -0.05,25.688 -2.033,37.784c-1.038,6.366 -3.771,10.387 -6.329,16.204c-2.634,5.967 -3.259,12.508 -4.217,18.962c-1.663,11.259 -0.563,22.155 -1.125,32.863m21.971,-189.558c-8.179,13.033 -10.438,14.816 -12.434,29.745c-0.187,1.784 -1.075,1.896 -2.087,2.084l-4.367,-2.496c-5.591,-8.388 -2.233,-21.108 -0.187,-30.333c2.083,-9.438 7.7,-17.475 12.796,-25.575c4.904,-7.788 13.091,-14.43 20.033,-20.446c20.233,-17.563 42.279,-29.246 59.379,-50.829c10.821,-13.646 17.9,-29.934 29.746,-42.817c14.642,-15.917 32.317,-17.888 52.217,-22.729c18.608,-4.521 34.7,-14.517 52.137,-21.996c20.458,-8.763 51.567,-17.788 73.996,-12.421c0.712,0.975 0.45,3.483 0.212,4.783c-0.387,2.109 -36.995,11.684 -41.254,13.805c-12.346,6.141 -24.229,13.22 -37.075,18.325c-25.225,10 -52.462,12.995 -75.741,27.975c-22.309,14.366 -32.567,38.195 -50.992,56.22c-15.554,15.23 -33.429,27.188 -48.433,43.213c-9.921,10.6 -20.196,21.133 -27.946,33.492m43.9,138.433c-0,-138.733 113.016,-251.738 251.733,-251.738c138.721,0 251.75,113.005 251.75,251.738c0,139.204 -113.029,251.733 -251.75,251.733c-138.717,0 -251.733,-112.529 -251.733,-251.733m464.637,211.679c-2.633,6.642 -9.112,12.679 -13.204,18.525c-17.079,24.363 -40.508,37.483 -68.842,45.371c-10.412,2.896 -21.008,5.096 -31.633,7.129c-8.187,1.558 -16.087,4.492 -24.104,6.792c-2.183,0.608 -8.213,2.696 -10.421,1.446c-1,-0.55 -1.225,-1.771 0.013,-4.08c1.645,-3.12 7.475,-4.933 10.433,-6.166c7.742,-3.271 15.892,-5.271 23.967,-7.529c17.512,-4.905 36.25,-13.967 51.579,-23.78c12.646,-8.087 25.737,-17.05 38.308,-25.6c3.196,-2.187 30.158,-27.937 23.904,-12.108m77.904,-126.762c-1.77,19.037 -7.316,42.829 -17.8,58.954c-9.987,15.379 -24.741,26.7 -36.962,40.158c-3.479,3.821 -9.708,10.038 -10.296,0.625c-0.375,-6.117 7.067,-11.996 10.283,-16.467c13.609,-18.92 23.659,-40.616 33.117,-61.812c2.996,-6.742 5.892,-13.396 8.738,-20.621c0.925,-2.333 2.075,-4.758 2.708,-7.079c1.012,-3.671 1.312,-21.183 6.667,-21.296l0.3,0.013c5.766,0.562 3.595,23.666 3.245,27.525m5.767,-108.621c-0.525,1.508 -7.412,13.616 -8.687,6.4c-0.575,-3.229 -0.238,-7.538 -0.575,-11.071c-0.425,-4.292 -0.613,-8.425 -0.984,-12.733c-1.687,-18.821 -4.446,-38.146 -11.312,-55.834c-4.342,-11.146 -16.275,-22.441 -16.575,-34.575l2.383,-0.487c1.613,-0.363 10.775,7.987 13.108,10.446c3.805,3.995 7.5,8.166 10.609,12.758c6.416,9.475 10.487,20.183 12.083,31.521c1.6,11.421 2.708,23.054 2.446,34.587c-0.138,6.279 -0.438,13.009 -2.496,18.988" style="fill:#fff;fill-rule:nonzero;"/><path d="M712.711,168.516l-8.225,8.25l5.329,2.908l2.896,-11.158Z" style="fill:#fff;fill-rule:nonzero;"/><rect x="599.71" y="389.206" width="11.158" height="3.396" style="fill:#fff;"/><path d="M606.502,508.042c86.342,-0 156.667,-70.325 156.667,-157.142c-0,-86.342 -70.325,-156.671 -156.667,-156.671c-86.842,0 -157.167,70.329 -157.167,156.671c0,86.817 70.325,157.142 157.167,157.142m7.75,-84.384l-17.95,0c-2.908,0 -5.329,-2.433 -5.329,-5.341l2.908,-4.842l0,-17.475l2.421,0l-0,-39.283l17.95,-0l-0,39.283l1.95,0l-0,17.475l2.896,4.842c-0,2.908 -1.938,5.341 -4.846,5.341m-3.879,-172.195l1.933,1.458l1.458,0.475l0.988,-0.475l-0,-2.433l-1.471,-0l1.471,-1.446l1.45,0.487l-0,3.392l0.958,0.962l0.988,1.95l0.475,2.421l0.475,1.459l-0.95,0.962l-1.459,-0.962l-1.937,0.487l-2.446,-1.458l-0.475,-1.95l-0.971,-3.396l-1.937,-0.958l-0.988,-0.488l-0.471,-1.462l0,-0.488l1.946,0l0.475,0.488l0.488,0.975Zm-0.963,4.854l-0.975,3.883l-0.971,-1.458l-0.962,-1.95l-1.946,-0.959l-1.937,0.959l-0.488,-0.959l2.908,-1.95l4.371,2.434Zm-4.854,-13.104l0.971,-2.421l0.975,-0l-0.488,1.458l0,1.45l0.963,-0.487l1.946,-0.963l0.487,1.45l-0.975,1.458l0,0.963l0.488,1.471l-1.459,0.475l-0.962,0.975l-0.975,1.446l-1.933,-0.488l1.445,-2.408l0,-1.946l-0.483,-2.433Zm-98.462,105.737c-0,-1.446 1.445,-8.725 9.695,-10.183l0,-2.421l1.95,-2.425l3.396,-3.879l-1.475,-2.896c0,-1.488 0.988,-4.383 4.854,-4.871l0,-18.437l-3.379,-0l0,-4.842l-2.437,-3.396l-0,-2.433l6.316,-0l1.925,-3.871l0,-11.158l-0.962,-2.921l4.354,-3.859l0,-2.433l1.475,-1.458l0.963,-0l-0,-1.45l-0.963,-1.459l-0.975,-1.462l-0.971,-4.354l1.946,-3.409l4.842,0l1.95,3.409l-0.988,4.354l-0.962,1.462l-0.971,1.934l-0,0.975l0.971,-0l1.45,1.458l-0,1.938l1.446,0.97l3.408,3.884l41.229,-0l0,-3.884l3.883,0l0,-1.945l0.975,-0l2.421,-4.846l1.45,0.975l0,2.908l0.484,0l0.975,-3.383l-0,-3.409l0.487,-3.879l-0.975,0.959l-0.971,1.462l-1.45,0.488l0.975,-3.384l0.959,-2.446l1.462,-1.937l0.475,-1.446l1.471,-3.396l1.45,1.446l-0,1.463l-0.975,0.487l-0.475,0.971l0.475,0.475l0.475,0.487l-0,1.45l0.5,0.984l0.958,-1.946l-0.458,-1.45l1.446,-0.971l1.933,-0.487l1.463,0.487l-0.975,1.446c-0.488,0.487 -2.921,1.937 -2.421,4.858c-0,3.396 1.933,5.829 4.841,5.829c3.396,0 4.371,-1.475 4.846,-2.92l1.459,-1.45l-0,2.42l0.962,0l0.5,-0.97l1.946,0.97l2.896,0l-0.488,2.425l0.488,3.88l-3.884,-0l-1.458,0.487l-0.475,0.963l7.267,-0l-0.475,-1.45l-0,-2.421l1.933,1.45l0.975,1.458l0.488,0.488l-0,0.475l0.487,-0l0,1.945l3.867,0l-0,3.884l40.758,-0l3.396,-3.884l1.446,-0.97l-0,-1.938l1.45,-1.458l1.471,-0l-0,-0.975l-1.471,-1.934l-0.475,-1.462l-0.975,-4.354l1.45,-3.409l5.341,0l1.446,3.409l-0.958,4.354l-0.488,1.462l-0.962,1.459l-0,1.45l0.962,-0l1.446,1.458l0,2.433l4.384,3.859l-0.975,2.921l-0,11.158l1.933,3.871l5.821,-0l-0,2.433l-1.95,3.396l-0,4.842l-3.384,-0l0,18.437c3.884,0.488 4.371,3.383 4.371,4.871l-0.987,2.896l3.421,3.879l1.933,2.425l-0,2.421c8.242,1.458 9.7,8.737 9.7,10.183l0.487,1.95l8.738,0l-0,72.758l-53.375,0c-2.408,-0.5 -4.842,-2.433 -4.842,-5.341l3.879,-4.842l0,-16.517l2.909,0l-0,-37.82l-2.909,-2.421l0,-6.304l5.33,-0c-0,-0 -0.471,-5.817 -3.88,-10.675c-2.895,-4.855 -6.291,-10.184 -16.979,-12.592l-2.421,2.408l-5.816,0l-2.421,-2.408c-0,-0 -7.279,0.958 -13.096,6.775c-5.829,6.304 -8.25,11.633 -8.25,19.4l-13.579,-0c-0,-7.767 -1.95,-13.096 -7.767,-19.4c-5.816,-5.817 -13.566,-6.775 -13.566,-6.775l-1.938,2.408l-5.842,0l-2.408,-2.408c-10.683,2.408 -14.079,7.737 -17.475,12.592c-2.921,4.858 -3.396,10.675 -3.396,10.675l5.342,-0l-0,6.304l-2.908,2.421l-0,37.82l2.908,0l-0,16.517l3.883,4.842c0,2.908 -2.433,4.841 -4.866,5.341l-53.338,0l0,-72.758l8.738,0l0.475,-1.95Z" style="fill:#fff;fill-rule:nonzero;"/><path d="M680.702,153.971c-0,-1.458 -0,-2.908 -0.963,-3.896l-2.908,-1.446l-4.854,-1.462l-1.946,6.804l3.879,1.45c2.446,0.971 5.342,1.458 6.792,-1.45" style="fill:#fff;fill-rule:nonzero;"/><rect x="599.71" y="367.872" width="11.158" height="3.396" style="fill:#fff;"/><rect x="599.71" y="360.597" width="11.158" height="2.896" style="fill:#fff;"/><path d="M738.44,511.448l5.804,-4.854l-7.75,-8.725l1.946,13.579Z" style="fill:#fff;fill-rule:nonzero;"/><rect x="599.71" y="381.939" width="11.158" height="3.383" style="fill:#fff;"/><rect x="599.71" y="374.664" width="11.158" height="3.871" style="fill:#fff;"/><path d="M640.437,143.785c0.5,-3.396 -2.396,-3.883 -4.842,-4.367l-3.396,-0.475l-0.95,7.263l2.896,0.475c2.896,0.487 5.829,0.487 6.292,-2.896" style="fill:#fff;fill-rule:nonzero;"/><path d="M761.224,233.043c1.459,0.475 2.421,0.475 3.396,0c2.909,0 5.342,-1.458 7.275,-2.933c1.938,-1.921 3.884,-4.342 4.359,-7.267c0.975,-2.921 -0.475,-3.879 -1.921,-6.3l-0.975,-0.975l-16.004,13.108l0.962,1.434c0.963,1.475 1.446,1.946 2.908,2.933" style="fill:#fff;fill-rule:nonzero;"/><path d="M606.502,114.678c-130.479,0 -236.708,106.213 -236.708,236.221c-0,130.467 106.229,236.696 236.708,236.696c129.992,0 236.208,-106.229 236.208,-236.696c0,-130.008 -106.216,-236.221 -236.208,-236.221m225.062,222.642l-23.308,2.421c-3.867,0.483 -8.225,0.971 -11.633,-0.963c-3.867,-2.433 -4.829,-6.329 -5.329,-10.187l-0,-7.763l9.7,-0.987c-0.488,1.475 -0.488,2.921 -0.488,4.383c0,1.434 0.488,2.921 1.958,3.884c0.963,0.483 2.909,0.483 4.834,0.483l23.291,-2.433l0.975,11.162Zm-7.291,-44.154c2.433,11.646 -4.842,19.9 -16.017,21.833c-10.646,1.946 -20.858,-2.908 -22.767,-14.054c-2.433,-11.646 4.855,-19.9 16.005,-22.321c11.145,-1.946 20.845,2.921 22.779,14.542m-15.517,-39.767c1.463,2.921 2.908,6.313 2.433,10.196c-0.495,3.396 -2.933,6.292 -5.816,8.238c-4.379,2.437 -8.263,1.937 -12.146,-1.446l-11.621,14.054l-6.317,-11.646l10.2,-11.633l-1.475,-3.384l-13.091,6.78l-5.829,-10.675l34.45,-17.938l9.212,17.454Zm-27.15,-41.716c3.383,4.366 5.792,8.25 5.321,14.091c-0.488,5.804 -3.383,10.171 -7.767,14.054c-3.871,2.896 -8.712,4.842 -14.066,4.346c-5.33,0 -9.225,-2.896 -12.609,-7.266l-9.7,-11.634l29.584,-24.266l9.237,10.675Zm-38.333,-36.85l22.808,19.883l-4.858,5.817l-26.663,5.816l12.596,11.15l-5.817,6.8l-24.254,-20.858l4.854,-5.817l27.638,-5.341l-12.108,-10.671l5.804,-6.779Zm-18.45,-12.609l-8.725,39.771l-10.171,-6.317l1.946,-7.279l-9.225,-5.316l-5.804,5.316l-8.25,-4.841l29.583,-27.163l10.646,5.829Zm-42.663,-20.383c3.392,0.975 6.3,2.908 8.738,5.329c2.421,2.908 2.421,6.804 1.458,10.2c-1.946,4.854 -4.867,7.263 -9.712,7.75l0.975,17.963l-12.134,-4.38l-0.958,-15.516l-3.396,-0.963l-4.858,13.571l-11.159,-3.871l12.621,-36.387l18.425,6.304Zm-60.629,-13.596l15.517,2.438c3.879,0.5 7.775,1.445 11.158,3.395c2.908,2.921 4.854,6.788 3.883,11.171c-0.487,3.384 -1.937,6.779 -5.333,8.725c-3.404,1.934 -7.287,1.934 -10.671,1.446l-6.316,-0.971l-1.946,14.067l-11.621,-1.933l5.329,-38.338Zm156.667,222.654c-0,95.067 -77.129,171.696 -171.696,171.696c-95.079,0 -171.713,-76.629 -171.713,-171.696c0,-94.579 76.634,-171.225 171.713,-171.225c94.567,0 171.696,76.646 171.696,171.225m-197.896,-229.904l2.921,4.842l-14.084,3.883l-1.445,-2.908l12.608,-5.817Zm-11.163,10.671l8.742,11.637l4.367,-13.583l10.662,-1.475l-9.212,23.783l2.433,16.013l-11.646,1.925l-2.433,-15.029l-15.517,-21.821l12.604,-1.45Zm-40.254,10.662l5.329,15.042l4.871,-18.437l10.171,-3.396l-4.854,16.491l19.896,19.409l-12.609,3.871l-11.158,-11.634l-1.933,6.775l2.896,8.254l-10.663,3.88l-12.133,-36.859l10.187,-3.396Zm-42.691,24.255c1.95,-3.396 4.858,-5.817 8.25,-8.255c5.345,-3.391 12.62,-4.354 17.937,0l-6.762,7.78c-2.434,-1.963 -4.859,-1.475 -7.292,-0c-1.446,0.945 -2.896,2.408 -1.946,3.858c0.988,1.958 3.408,0.983 4.854,0.483c3.884,-1.446 7.279,-2.908 11.146,-3.396c4.383,0 7.779,1.95 10.213,5.346c4.841,8.25 -1.459,16 -8.263,20.384c-6.792,4.354 -14.542,4.841 -20.846,-0.988l8.225,-7.262c2.921,2.42 5.829,1.92 8.738,-0c0.975,-0.475 3.396,-2.425 2.433,-4.371c-0.983,-1.946 -3.879,-0.988 -5.817,-0c-6.8,2.421 -15.041,5.329 -19.895,-2.434c-1.934,-3.383 -2.409,-7.279 -0.975,-11.145m-34.913,14.066l5.817,0.475l-0,-5.816l3.883,-3.871l0.488,10.671l-4.371,3.883l-10.188,-1.458l4.371,-3.884Zm3.883,6.792l23.767,7.75l-7.767,-7.75l-6.787,-7.767l6.787,-6.304l25.717,28.625l-7.279,6.292l-19.883,-5.829l-6.43,-2.559l4.48,4.029l11.65,13.571l-7.28,6.325l-25.229,-28.633l8.254,-7.75Zm-15.516,15.017l6.779,5.366l-10.663,14.054l4.359,3.396l8.725,-11.158l6.8,5.329l-8.738,11.158l5.346,3.884l10.658,-14.067l7.28,5.817l-17.938,22.804l-30.558,-23.767l17.95,-22.816Zm-23.279,31.066l6.775,3.384l11.645,24.741l7.755,-15.029l8.25,4.354l-15.03,28.625l-6.304,-3.383l-11.646,-25.725l-7.762,14.067l-7.767,-4.359l14.084,-26.675Zm-22.321,50.442l27.65,9.2l4.841,-14.542l8.725,2.921l-8.725,25.704l-36.375,-12.133l3.884,-11.15Zm-8.25,34.917c0.475,-3.396 0.975,-7.767 3.408,-10.675c2.408,-3.396 6.775,-4.842 10.658,-4.367c3.884,0.487 6.78,2.433 8.725,5.329c1.95,3.408 1.95,7.275 1.95,11.171l-0.962,5.817l13.567,1.95l-1.446,11.633l-38.321,-4.846l2.421,-16.012Zm19.396,88.75l-12.109,-12.109l12.109,-12.133l12.133,12.133l-12.133,12.109Zm18.925,75.683c-6.305,-9.7 -2.909,-19.888 6.304,-26.204c9.225,-6.788 20.371,-5.804 26.675,3.883c6.791,9.713 3.396,19.896 -5.817,26.188c-9.212,6.316 -20.371,5.816 -27.162,-3.867m56.27,31.517c-3.395,3.883 -8.25,6.304 -13.591,6.304c-5.329,0.5 -9.7,-1.934 -13.584,-5.817l-10.67,-10.187l26.675,-28.121l10.2,10.171c3.879,3.895 6.775,7.291 6.775,13.12c0.5,5.33 -1.934,10.659 -5.805,14.53m43.655,27.65l-1.45,17.95l-11.659,-5.83l1.446,-15.504l-3.379,-1.95l-6.304,13.109l-10.675,-5.342l16.979,-34.442l17.937,8.729c2.921,1.934 5.83,3.88 7.775,6.788c1.934,3.396 1.45,6.792 0,10.2c-2.433,4.829 -5.829,6.292 -10.67,6.292m46.558,11.645c-2.908,10.184 -11.646,16.975 -22.792,14.067c-11.646,-2.908 -15.529,-13.104 -13.096,-23.754c2.896,-11.171 11.621,-17.488 22.78,-14.567c11.645,2.909 16.004,12.609 13.108,24.254m26.2,21.846l-5.829,-15.054l-4.367,5.342l-0.475,8.725l-11.15,-0.488l1.938,-38.808l11.145,0.975l-0.487,16l11.175,-15.517l10.658,0.488l-10.2,13.583l10.675,25.225l-13.083,-0.471Zm46.55,-5.346c-2.908,3.396 -6.779,4.359 -10.663,4.846c-3.883,0.5 -8.25,0 -11.645,-1.45c-4.355,-2.433 -5.342,-5.829 -6.292,-10.671l-2.446,-25.229l11.646,-0.975l2.921,23.771l0.95,3.879c0.983,1.463 2.921,1.463 4.379,1.463c1.45,-0 2.908,-0.975 3.883,-1.95c1.45,-1.446 0.963,-3.392 0.963,-4.842l-2.909,-23.779l9.213,-0.963l2.908,24.742c0.496,4.358 0.496,7.754 -2.908,11.158m33.475,-5.829l-3.404,-7.762l8.737,-3.871l-7.266,-16.5l-6.317,5.817l-3.383,-8.242c3.383,-2.433 6.779,-5.817 7.754,-10.196l7.75,-3.383l11.658,28.608l8.238,-3.867l3.383,8.25l-27.15,11.146Zm48.983,-22.804c-2.896,1.946 -6.304,3.883 -9.212,3.883c-3.884,0.484 -7.275,-0.962 -9.7,-3.883c-1.934,-3.383 -1.934,-7.267 -0,-10.671c-3.392,0.484 -6.788,-0.962 -8.725,-3.871c-1.934,-2.908 -2.421,-6.791 -1.459,-10.187c0.959,-3.396 3.88,-5.817 6.792,-8.238c5.342,-3.395 13.092,-5.829 17.45,0.475c2.446,2.921 1.958,5.817 0.496,9.213c4.358,-0.475 7.754,0.487 10.662,3.879c5.355,7.767 0,15.042 -6.304,19.4m29.596,-22.792l-5.829,-6.304l-11.633,10.184l-5.83,-5.817l-3.87,-26.675l8.725,-7.763l15.029,16.975l4.371,-3.883l5.341,6.317l-4.358,3.396l5.817,6.791l-7.763,6.779Zm16.963,-16.491l-6.775,-5.829l0.487,-15.992c0,-3.408 -0.487,-6.8 -2.912,-9.213c-1.946,-0.97 -3.892,-0.97 -5.342,0.475c-2.421,2.896 -0,6.305 1.937,8.242l-7.279,6.313c-5.816,-5.817 -6.291,-14.067 -0.962,-20.384c4.346,-6.291 11.646,-8.725 18.437,-3.383c3.396,2.425 4.371,5.817 4.846,10.187l-0.475,11.146l0,0.975l9.213,-11.633l7.275,5.817l-18.45,23.279Zm31.058,-94.579l-12.133,-12.609l12.608,-12.133l12.133,12.608l-12.608,12.134Z" style="fill:#fff;fill-rule:nonzero;"/><path d="M555.562,538.122c-4.855,-0.975 -7.75,5.817 -8.238,9.713c-1.462,3.383 -2.433,10.646 2.433,12.121c5.33,0.958 7.738,-5.83 8.725,-9.213c0.95,-3.408 1.934,-11.158 -2.92,-12.621" style="fill:#fff;fill-rule:nonzero;"/><path d="M713.7,516.295c-1.463,-2.421 -4.383,-1.933 -6.304,-0.487c-1.471,0.987 -2.434,2.908 -1.471,4.37c0.971,1.934 3.392,1.459 4.842,0.959l2.933,-0.484c0.962,-1.45 0.962,-3.383 -0,-4.358" style="fill:#fff;fill-rule:nonzero;"/><path d="M718.549,529.874l-3.883,0.975c-0.488,1.458 -0.959,3.396 -0,4.842c1.937,2.433 4.846,1.462 7.279,-0c1.446,-0.963 3.383,-3.384 1.933,-5.33c-0.971,-1.45 -3.396,-0.975 -5.329,-0.487" style="fill:#fff;fill-rule:nonzero;"/><path d="M520.648,525.508l-4.371,-1.934l-3.392,6.304l3.879,1.934c2.434,0.975 5.334,2.433 6.78,-0.975l-0.475,-3.384l-2.421,-1.945Z" style="fill:#fff;fill-rule:nonzero;"/><path d="M610.864,395.996l-11.158,-0l0,3.408l-2.421,0l0,1.921l0.971,0.975l0,8.738l-0.971,0.962l0,1.471l3.867,4.846l-1.446,3.879l11.158,-0l-1.45,-3.879l3.871,-4.846l0,-1.471l-0.971,-0.962l0,-8.738l0.971,-0.975l0,-1.921l-2.421,0l0,-3.408Zm-2.92,18.925l-5.805,-0l0,-1.45l5.805,-0l-0,1.45Zm1.47,-4.858l-8.737,-0l-0,-6.292l8.737,-0l0,6.292Z" style="fill:#fff;fill-rule:nonzero;"/><path d="M799.058,261.163c1.45,-0.487 1.934,-1.946 1.934,-3.383l-0.959,-2.921l-1.95,-4.367l-6.775,3.392l1.934,3.896c1.445,2.421 2.908,4.833 5.816,3.383" style="fill:#fff;fill-rule:nonzero;"/><path d="M794.212,298.994c0.963,5.329 8.25,4.371 11.646,3.883c3.884,-0.975 11.146,-2.908 10.175,-7.766c-1.437,-5.33 -8.725,-4.355 -12.133,-3.88c-3.871,0.971 -10.663,2.434 -9.688,7.763" style="fill:#fff;fill-rule:nonzero;"/><path d="M398.897,315.486c-3.396,-0.488 -4.371,2.433 -4.842,5.341l-0.5,3.396l7.762,0.963l0.488,-3.396c-0,-2.421 0.475,-5.804 -2.908,-6.304" style="fill:#fff;fill-rule:nonzero;"/><path d="M471.664,491.551l-14.567,15.042l1.458,1.45c0.975,0.983 1.463,1.945 3.409,2.433l3.383,-0c2.421,-0.975 4.842,-2.433 6.317,-4.371c1.933,-1.933 3.87,-4.842 3.87,-7.262c0.488,-2.921 -0.975,-4.371 -2.92,-6.305l-0.95,-0.987Z" style="fill:#fff;fill-rule:nonzero;"/><path d="M437.217,467.295c-2.921,1.958 -8.738,6.804 -5.342,11.158c2.921,4.371 9.225,0.488 12.121,-1.446c2.921,-1.95 8.738,-6.791 5.829,-11.146c-2.908,-4.383 -9.212,-0.5 -12.608,1.434" style="fill:#fff;fill-rule:nonzero;"/><path d="M672.466,350.897l9.7,0l-0,-5.341l-12.134,-0c0,-0 -0.487,-8.725 -9.225,-16.492c-8.225,-7.75 -14.054,-7.75 -16.479,-8.238l0,2.896c0,0 5.817,0.5 12.134,5.342c5.816,4.871 12.12,12.621 12.12,24.254l-6.304,0l0,0.963l3.384,2.433l45.1,-0l-0,-3.396l-13.08,0c0,-12.108 -9.7,-10.671 -9.7,-10.671l0,7.763c2.909,-0 2.909,2.908 2.909,2.908l-18.425,0l-0,-2.421Z" style="fill:#fff;fill-rule:nonzero;"/><rect x="665.664" y="389.206" width="23.767" height="3.396" style="fill:#fff;"/><rect x="703.014" y="418.801" width="7.75" height="3.396" style="fill:#fff;"/><rect x="703.014" y="411.035" width="7.75" height="3.883" style="fill:#fff;"/><path d="M665.663,399.406l-3.383,-0l-0,1.921l0.962,0.975l0,8.737l-0.962,0.963l-0,1.471l3.383,4.845l-1.45,3.88l21.346,-0l0,-7.275l-16.975,-0l0,-1.45l16.975,-0l0,-1.471l-0.971,-0.963l0,-8.737l0.971,-1.434l0,-1.462l3.871,-0l-0,-3.408l-23.767,-0l0,3.408Zm5.329,4.358l11.171,0l0,6.292l-11.171,-0l0,-6.292Zm-2.408,6.3l-2.921,0l0,-6.291l2.921,-0l0,6.291Z" style="fill:#fff;fill-rule:nonzero;"/><rect x="703.014" y="403.76" width="7.75" height="3.396" style="fill:#fff;"/><path d="M510.451,364.955l-0,2.921l-3.384,3.396l0,9.7l15.53,-0l-0,-9.7l-3.896,-3.396l-0,-2.921l-8.25,0Zm9.712,13.579l-10.671,0l0,-4.358l10.671,-0l0,4.358Z" style="fill:#fff;fill-rule:nonzero;"/><rect x="665.664" y="381.939" width="45.1" height="3.383" style="fill:#fff;"/><rect x="703.014" y="389.206" width="7.75" height="3.396" style="fill:#fff;"/><rect x="703.014" y="395.993" width="7.75" height="3.408" style="fill:#fff;"/><rect x="687.022" y="418.801" width="2.408" height="3.396" style="fill:#fff;"/><rect x="499.781" y="374.664" width="4.358" height="3.383" style="fill:#fff;"/><path d="M504.144,369.815l1.946,-1.946l-6.304,-0l0,3.396l4.358,-0l0,-1.45Z" style="fill:#fff;fill-rule:nonzero;"/><rect x="499.785" y="381.939" width="45.112" height="3.383" style="fill:#fff;"/><path d="M635.107,326.157l1.458,0.987l3.409,0l1.45,-0.987l-0,-9.213l-6.317,0l-0,9.213Z" style="fill:#fff;fill-rule:nonzero;"/><rect x="687.022" y="403.76" width="2.408" height="3.396" style="fill:#fff;"/><rect x="687.022" y="411.035" width="2.408" height="3.883" style="fill:#fff;"/><path d="M615.708,329.061c-7.763,7.763 -10.188,16.988 -10.659,19.884c0,-2.896 -2.437,-12.121 -10.187,-19.884c-7.763,-7.262 -16.492,-8.237 -16.492,-8.237l0,2.421c5.321,1.471 11.15,3.408 17.454,11.146c4.842,6.316 6.305,12.62 6.788,16.504l5.333,-0c0.496,-3.884 1.946,-10.188 6.8,-16.504c6.292,-7.738 11.634,-9.675 17.45,-11.146l-0.483,-2.421c-0,-0 -8.242,0.975 -16.004,8.237" style="fill:#fff;fill-rule:nonzero;"/><rect x="499.785" y="360.597" width="45.112" height="2.896" style="fill:#fff;"/><path d="M666.643,311.119l-3.396,-0l-0,-4.358l3.396,-0l-0,-2.917l-46.559,-0l0,2.917l5.817,-0l0,4.358l-5.817,-0l0,2.921l46.559,-0l-0,-2.921Zm-30.071,-0l-5.817,-0l0,-4.358l5.817,-0l-0,4.358Zm11.133,-0l-6.291,-0l-0,-4.358l6.291,-0l0,4.358Zm10.675,-0l-5.804,-0l0,-4.358l5.804,-0l0,4.358Z" style="fill:#fff;fill-rule:nonzero;"/><path d="M622.506,273.773l-10.2,-0l-0.471,1.945l10.671,0l-0,-1.945Z" style="fill:#fff;fill-rule:nonzero;"/><rect x="527.918" y="338.276" width="12.133" height="4.842" style="fill:#fff;"/><path d="M682.168,303.839l-12.133,-0l-0,32.029l12.133,0l0,-32.029Zm-1.462,22.317l-1.446,-0l-1.95,0.5l-0,2.408l-2.408,-0l-0,-2.408l-1.471,-0.5l-1.938,-0l2.425,-0.975l-0.487,-0.471l-1.938,-5.346l3.409,-2.908l-0,-2.909l-0.984,-1.458l0.984,-1.45l2.408,-0l1.45,1.45l-1.45,1.458l-0,2.909l3.883,2.908l-2.433,5.346l-0,0.471l1.946,0.975Z" style="fill:#fff;fill-rule:nonzero;"/><path d="M548.295,354.282l0,-0.963l-6.304,0c0,-11.646 6.304,-19.383 12.121,-24.254c6.304,-4.842 12.133,-5.342 12.133,-5.342l-0.5,-2.895c-2.408,0.487 -7.762,0.487 -16.487,8.237c-8.242,7.767 -9.213,16.492 -9.213,16.492l-12.133,-0l-0,5.341l9.7,0l-0,2.421l-17.95,0c-0,0 -0,-2.908 2.933,-2.908l0,-7.775c0,-0 -10.212,-1.425 -10.212,10.683l-12.596,0l-0,3.396l45.112,0l3.396,-2.433Z" style="fill:#fff;fill-rule:nonzero;"/><path d="M540.052,303.839l-12.134,-0l0,32.029l12.134,0l-0,-32.029Zm-1.446,22.317l-1.475,-0l-1.459,0.5l0,0.487l-0.475,1.921l-1.945,-0l-0.488,-1.921l0,-0.487l-1.45,-0.5l-1.446,-0l1.934,-0.975l-0,-0.471l-2.434,-5.346l3.396,-2.908l0.488,-2.909l-1.45,-1.458l0.962,-1.45l2.908,-0l0.975,1.45l-0.975,1.458l0,2.909l3.409,2.908l-1.95,5.346l-0.484,0.471l1.959,0.975Z" style="fill:#fff;fill-rule:nonzero;"/><path d="M532.275,321.315l1.946,2.908l1.938,-2.908l-1.938,-3.396l-1.946,3.396Z" style="fill:#fff;fill-rule:nonzero;"/><path d="M600.193,268.438l0.475,0.975l0,0.475l10.671,-0l0,-5.334l-0.475,-0.475l-2.921,1.463l-5.329,-0l-2.908,-1.946l-0.488,1.458l0.488,1.438l0.487,1.946Z" style="fill:#fff;fill-rule:nonzero;"/><path d="M607.939,276.681l1.471,-2.908l-8.25,-0l1.45,2.908l0.488,0.975l4.366,-0l0.475,-0.975Z" style="fill:#fff;fill-rule:nonzero;"/><path d="M606.502,290.27l2.908,1.933l57.721,0l2.421,-2.908l1.933,-0l-1.446,5.816l-5.816,0l2.421,3.884l5.329,-0l-0,2.433l8.725,0l-0,-2.433l5.829,-0l1.933,-3.884l-6.3,0l-0.962,-5.816l-0,-11.159l0.475,-1.458c-0,0 -2.421,-3.396 -5.317,-3.396c-2.933,0 -4.871,0.984 -5.829,2.934l-0,1.92l-63.063,0l-0.962,12.134Zm66.921,-8.725l5.829,-0l-0,7.75l-5.829,-0l-0,-7.75Zm-60.142,1.933l1.946,-1.933l48.996,-0l2.421,1.933l-0,3.871l-2.421,1.471l-48.996,-0c-0,-0 0.475,-1.471 -1.946,-1.471l0,-3.871Z" style="fill:#fff;fill-rule:nonzero;"/><path d="M665.663,371.269l19.896,0l0,-1.946l2.425,-1.45l-22.321,0l0,3.396Z" style="fill:#fff;fill-rule:nonzero;"/><rect x="706.422" y="374.676" width="4.346" height="3.383" style="fill:#fff;"/><rect x="665.664" y="374.676" width="19.896" height="3.383" style="fill:#fff;"/><path d="M706.419,369.815l0,1.45l4.346,-0l0,-3.396l-6.279,-0l1.933,1.946Z" style="fill:#fff;fill-rule:nonzero;"/><path d="M691.373,364.955l0,2.921l-3.396,3.396l0,9.7l15.53,-0l-0,-9.7l-3.871,-3.396l-0,-2.921l-8.263,0Zm9.7,13.579l-10.658,0l-0,-4.358l10.658,-0l0,4.358Z" style="fill:#fff;fill-rule:nonzero;"/><rect x="670.035" y="338.276" width="12.133" height="4.842" style="fill:#fff;"/><path d="M674.411,321.315l1.946,2.908l1.925,-2.908l-1.925,-3.396l-1.946,3.396Z" style="fill:#fff;fill-rule:nonzero;"/><path d="M529.862,301.429l8.238,0l-0,-2.433l5.829,-0l2.408,-3.883l-6.287,-0l-0.963,-5.817l1.934,-0l2.421,2.908l57.72,0l2.909,-1.933l-0.975,-12.133l-63.546,-0l-0,-1.925c-0.95,-1.946 -2.413,-2.934 -5.329,-2.934c-2.9,0 -5.334,3.396 -5.334,3.396l0.475,1.463l0,11.158l-1.445,5.817l-5.817,-0l1.946,3.883l5.816,-0l0,2.433Zm14.067,-17.95l1.938,-1.933l49.466,-0l1.946,1.933l0,3.871c-2.921,0 -1.946,1.471 -1.946,1.471l-49.466,-0l-1.938,-1.471l0,-3.871Zm-12.608,-1.933l5.816,-0l0,7.75l-5.816,-0l-0,-7.75Z" style="fill:#fff;fill-rule:nonzero;"/><rect x="665.664" y="360.597" width="45.1" height="2.896" style="fill:#fff;"/><rect x="588.06" y="273.781" width="10.188" height="1.946" style="fill:#fff;"/><rect x="521.143" y="389.206" width="23.754" height="3.396" style="fill:#fff;"/><path d="M544.894,395.996l-23.754,-0l-0,3.408l3.871,0l-0,1.459l0.971,1.437l-0,8.738l-0.971,0.962l-0,1.471l16.487,-0l0,1.45l-16.487,-0l-0,7.275l21.333,-0l-1.45,-3.879l3.396,-4.846l-0,-1.471l-1.45,-0.962l-0,-8.738l1.45,-0.975l-0,-1.921l-3.396,0l0,-3.408Zm-5.817,14.067l-10.683,-0l0,-6.292l10.683,-0l0,6.292Zm5.817,-0l-3.396,-0l0,-6.292l3.396,-0l0,6.292Z" style="fill:#fff;fill-rule:nonzero;"/><path d="M544.894,371.269l0,-3.396l-22.308,0l2.425,1.45l-0,1.946l19.883,0Z" style="fill:#fff;fill-rule:nonzero;"/><rect x="525.014" y="374.664" width="19.883" height="3.383" style="fill:#fff;"/><rect x="521.143" y="403.76" width="2.408" height="3.396" style="fill:#fff;"/><path d="M605.046,321.315c-2.433,-0.488 -6.792,1.45 -6.792,6.791c0,6.292 6.792,6.788 6.792,6.788c0,-0 7.263,-0.496 7.263,-6.788c-0,-5.341 -4.367,-7.279 -7.263,-6.791m2.421,3.396l0.475,0.95l0.5,0.495l0.971,0.988l-0.971,1.921l-0.5,0.487l0.5,0.988l-0.5,0.475l-0.963,-0.475l-0.475,-0l-0.483,0.95l-0.975,0.496l-0.5,-0.496l-0.475,-0.95l-0.487,-0l-0.971,0.475l-0.475,-0.475l0.475,-0.988l-0.475,-0.487l-0.975,-1.921l0.487,-0.988l0.963,-0.495l0.487,-0.95l0.484,-0.488l1.462,-0.5l1.933,0.5l0.488,0.488Z" style="fill:#fff;fill-rule:nonzero;"/><rect x="521.143" y="418.801" width="2.408" height="3.396" style="fill:#fff;"/><rect x="521.143" y="411.035" width="2.408" height="3.883" style="fill:#fff;"/><rect x="499.785" y="395.997" width="7.762" height="3.408" style="fill:#fff;"/><path d="M568.661,326.157l1.933,0.987l2.908,0l1.475,-0.987l0,-9.213l-6.316,0l-0,9.213Z" style="fill:#fff;fill-rule:nonzero;"/><rect x="499.785" y="389.206" width="7.762" height="3.396" style="fill:#fff;"/><rect x="499.785" y="403.76" width="7.762" height="3.396" style="fill:#fff;"/><path d="M662.277,301.429l-0,-2.433l0.962,-0l-2.908,-3.883l-110.113,-0l-3.379,3.883l1.458,-0l0,2.433l3.396,0l0,-2.433l6.292,-0l-0,2.433l4.854,0l0,-2.433l6.304,-0l0,2.433l4.842,0l-0,-2.433l5.833,-0l0,2.433l4.854,0l0,-2.433l5.317,-0l0,2.433l3.896,0l-0,12.609l22.804,-0l0,-12.609l3.383,0l0,-2.433l5.817,-0l0,2.433l4.858,0l0,-2.433l5.83,-0l-0,2.433l4.841,0l0,-2.433l6.292,-0l-0,2.433l4.867,0l-0,-2.433l5.804,-0l-0,2.433l3.896,0Zm-64.025,-2.433l13.579,-0l-0,2.433l-13.579,0l-0,-2.433Zm15.516,12.121l-16.962,-0l-0,-4.359l16.962,0l0,4.359Z" style="fill:#fff;fill-rule:nonzero;"/><rect x="499.785" y="418.801" width="7.762" height="3.396" style="fill:#fff;"/><path d="M589.994,311.119l-5.33,-0l0,-4.358l5.33,-0l-0,-2.917l-46.075,-0l-0,2.917l2.92,-0l0,4.358l-2.92,-0l-0,2.921l46.075,-0l-0,-2.921Zm-32.005,-0l-6.291,-0l-0,-4.358l6.291,-0l0,4.358Zm11.159,-0l-6.304,-0l-0,-4.358l6.304,-0l-0,4.358Zm10.671,-0l-5.83,-0l0,-4.358l5.83,-0l-0,4.358Z" style="fill:#fff;fill-rule:nonzero;"/><rect x="499.785" y="411.039" width="7.762" height="3.883" style="fill:#fff;"/></g></svg>