<?xml version="1.0" encoding="utf-8"?>
<svg version="1.1" xmlns="http://www.w3.org/2000/svg" xmlns:xlink="http://www.w3.org/1999/xlink" x="0px" y="0px" viewBox="0 0 436.5 71.9" xml:space="preserve">
<style type="text/css">
	.st0{fill:#fff;}
</style>
<path class="st0" d="M101.7,68.6v3.2h-1.6v-8.9h6.9c3.1,0,4.5,1.2,4.5,2.8c0,1.7-1.4,2.9-4.4,2.9H101.7z M101.7,64.2v3.1h5.2c2.1,0,3-0.5,3-1.6c0-1.1-0.9-1.6-3-1.6H101.7z"/>
<path class="st0" d="M151.3,68.3h-4.6v3.5h-1.6v-8.9h7.2c2.8,0,4.2,1.1,4.2,2.7c0,1.5-1.1,2.5-3.4,2.7l3.6,3.5l0,0h-1.9L151.3,68.3zM146.8,64.2V67h5.5c1.8,0,2.7-0.4,2.7-1.4c0-1-0.9-1.4-2.7-1.4H146.8z"/>
<path class="st0" d="M199.6,69.7h-7.2l-1.4,2.1h-1.8l5.9-8.9h1.7l5.8,8.9H201L199.6,69.7z M196.1,64.2l-2.8,4.3h5.6L196.1,64.2z"/>
<path class="st0" d="M241.4,71.9c-4.1,0-6.7-1.7-6.7-4.6c0-2.9,2.6-4.6,6.7-4.6c2.1,0,3.9,0.5,5.5,1.4v1.4l-0.1,0c-1.7-1-3.4-1.6-5.3-1.6c-3.3,0-5.2,1.3-5.2,3.4c0,2.1,1.8,3.4,5.2,3.4c1.4,0,2.6-0.3,3.8-0.8v-2h-5.9v-1.1h7.5v3.8C245.2,71.5,243.5,71.9,241.4,71.9z"/>
<path class="st0" d="M281,67v-4.1h1.6v4.3c0,2.3,1.3,3.5,3.8,3.5c2.6,0,3.8-1.1,3.8-3.5v-4.3h1.6V67c0,3.4-1.8,4.9-5.4,4.9C282.8,71.9,281,70.4,281,67z"/>
<path class="st0" d="M325.9,62.9h10.8v1.3h-9.3v2.5h8.7V68h-8.7v2.6h9.3v1.3h-10.8V62.9z"/>
<path class="st0" d="M247.5,46c-5.1-1.3-5.7-5.2-0.3-7.8l18.9-9l15.3,9.4c4.6,2.8,2.9,6.5-1.5,7.3v0.4h51.8v-0.5c-5.7-1.8-10.9-4.2-15.9-7.3l-29-17.8l21.1-10.1c9.8-4.7,14.2-6.2,18.3-6.2c5.7,0,9.9,3.1,16.7,7.5l27,17.6v5.8c0,6.1-3,9.6-9.1,10.5v0.5h44.1v-0.5c-6.1-0.9-9.1-4.4-9.1-10.5v-6.2l21.9-17.6c5.4-4.4,11-6.7,19-7.5V3.5h-26.2v0.3c4.6,0.9,5.1,4.3,1.3,7.3l-18.4,14.6l2.2-0.1l-23.2-14.5c-4.2-2.6-3.3-6.6,1.4-7.3V3.5h-77.8v0.3c4.8,1.2,5.1,5.1-0.1,7.6L282,18l-10.9-6.6c-4.7-2.9-3.6-6.7,2.3-7.5V3.5h-51.9v0.4c5.3,1.8,9.6,3.9,15.4,7.4l24.4,15l-27.6,13.2c-6.2,3-11.6,4.9-16,6.4v0.4h29.8V46z M9.1,14.5v20.9c0,6.1-3,9.6-9.1,10.5v0.5h44.2v-0.5c-6.1-0.9-9.1-4.4-9.1-10.5v-8.7c0-0.2,0.2-0.3,0.4-0.2l36,19.9h39.2v-0.6L68.3,24.6L68,25.7c19.5-1.5,27.6-4.9,27.6-11.7c0-7.3-14.5-10.5-46.8-10.5H0V4C6.1,4.9,9.1,8.4,9.1,14.5 M35.1,13.1c0-5.6,3.6-7.5,14.2-7.5c11.3,0,17.2,3,17.2,8.9c0,7.2-6.2,10-22.3,10h-9.1V13.1z M132.5,37.4c-14,0-23.3-5.2-23.3-12.4c0-7,9.7-12.3,22.2-12.3c9,0,16.7,2.1,22.3,6.1c-4.7-1.5-12.6-2.3-22.1-2.3c-13.5,0-21.2,3.1-21.2,8.7c0,4.6,5.6,7.8,13.7,7.8c19.4,0,38.3-20.2,70-20.2c15.4,0,26.8,5.4,26.8,12.6c0,7-9.7,12.1-24.6,12.1c-10.8,0-19.8-2.3-25.1-6.5c3.5,1.6,13.4,2.6,24.5,2.6c15.6,0,24.1-2.9,24.1-8.4c0-4.7-6.7-7.9-16.9-7.9C176.7,17.2,160.5,37.4,132.5,37.4 M101.7,25.1c0,14.5,26.7,25.1,63.3,25.1c36.6,0,63.3-10.6,63.3-25.1C228.4,10.6,201.6,0,165,0C128.4,0,101.7,10.6,101.7,25.1"/>
</svg>
