<svg width="111" height="26" viewBox="0 0 111 26" fill="none" xmlns="http://www.w3.org/2000/svg">
<path d="M39.69 13.91H27.12C27.7 16.27 29.61 18.05 32.1 18.05C33.5 18.05 34.88 17.45 35.8 16.41L38.84 16.48C37.5 19.02 34.95 20.65 31.99 20.65C27.67 20.65 24.27 16.9 24.27 12.66C24.27 8.28 27.61 4.69 32.05 4.69C36.35 4.69 39.78 8.23 39.78 12.5C39.77 12.96 39.74 13.46 39.69 13.91ZM32.01 7.28C29.55 7.28 27.27 9.22 27.11 11.72H36.91C36.76 9.24 34.49 7.28 32.01 7.28ZM52.28 20.27V12.03C52.28 9.46 51.51 7.29 48.49 7.29C45.7 7.29 44.49 9.45 44.49 12.01V20.28H41.65V5.1H44.31V6.71H44.36C45.46 5.26 47.05 4.68 48.8 4.68C50.96 4.68 52.99 5.53 54.17 7.39C54.9 8.54 55.13 9.93 55.13 11.28V20.27H52.28ZM70.27 20.27V18.11H70.22C68.96 19.87 66.96 20.65 64.85 20.65C60.3 20.65 56.96 17.26 56.96 12.74C56.96 8.19 60.25 4.68 64.85 4.68C66.76 4.68 68.79 5.41 70 6.95H70.05V0H72.89V20.27H70.27ZM65.01 7.28C62 7.28 59.81 9.74 59.81 12.71C59.81 15.55 62.09 18.06 64.99 18.06C67.95 18.06 70.27 15.65 70.27 12.71C70.27 9.67 68.11 7.28 65.01 7.28ZM81.14 25.34H78.19L80.4 19.97L74.35 5.1H77.42L81.89 16.88L86.46 5.1H89.53L81.14 25.34ZM97.63 20.65C93.16 20.65 89.44 17.06 89.44 12.57C89.44 8.1 93.25 4.68 97.63 4.68C102.07 4.68 105.82 8.13 105.82 12.62C105.82 16.95 102.23 20.65 97.63 20.65ZM97.63 7.28C94.67 7.28 92.28 9.69 92.28 12.65C92.28 15.61 94.66 18.05 97.63 18.05C100.62 18.05 102.98 15.59 102.98 12.63C102.97 9.67 100.58 7.28 97.63 7.28ZM108.14 20.27V0H111V20.27H108.14ZM2.82 17.28C2.94 17.76 3.1 18.16 3.28 18.46C3.46 18.76 3.7 19.02 3.97 19.27C4.87 20.06 6.01 20.46 7.36 20.46C8.7 20.46 9.95 20.13 11.09 19.5V16.77C9.91 17.46 8.78 17.82 7.72 17.82C6.28 17.82 5.53 16.94 5.53 15.2V7.77H10.31V5.14H5.56V0.27H2.74V5.13H0V7.76H2.62V14.5C2.62 15.87 2.69 16.8 2.82 17.28ZM20.05 7.64C20.93 7.64 21.9 8.12 22.93 9.09L24.48 6.52C23.22 5.37 21.7 4.84 20.81 4.84H20.61C19.59 4.84 17.88 4.84 16.5 7.09L16.45 7.18L16.46 5.14H13.51V20.18H16.46V12.32C16.46 11.06 16.81 9.96 17.52 9.03C18.23 8.11 19.08 7.64 20.05 7.64Z" fill="white"/>
</svg>
