<svg width="220" height="65" viewBox="0 0 220 65" fill="none" xmlns="http://www.w3.org/2000/svg">
<g clip-path="url(#clip0_224_129)">
<path d="M20.482 63.8772L40.3615 35.4347L60.241 63.8772L80.723 0.592773H0L20.482 63.8772Z" fill="white"/>
<path d="M113.735 64.4696C131.834 64.4696 146.506 50.0375 146.506 32.2347C146.506 14.432 131.834 0 113.735 0C95.636 0 80.9639 14.432 80.9639 32.2347C80.9639 50.0375 95.636 64.4696 113.735 64.4696Z" fill="white"/>
<path d="M187.228 64.4696C205.328 64.4696 220 50.0375 220 32.2347C220 14.432 205.328 0 187.228 0C169.13 0 154.457 14.432 154.457 32.2347C154.457 50.0375 169.13 64.4696 187.228 64.4696Z" fill="white"/>
</g>
<defs>
<clipPath id="clip0_224_129">
<rect width="220" height="64.7059" fill="white"/>
</clipPath>
</defs>
</svg>
