<svg width="194" height="57" viewBox="0 0 194 57" fill="none" xmlns="http://www.w3.org/2000/svg">
<g clip-path="url(#clip0_264_387)">
<path d="M18.7183 56.2698L36.1581 31.2145L53.5978 56.2698L71.5661 0.521973H0.75L18.7183 56.2698Z" fill="#F00065"/>
<path d="M100.526 56.7919C116.404 56.7919 129.276 44.0785 129.276 28.3959C129.276 12.7133 116.404 0 100.526 0C84.6488 0 71.7773 12.7133 71.7773 28.3959C71.7773 44.0785 84.6488 56.7919 100.526 56.7919Z" fill="#F00065"/>
<path d="M165 56.7919C180.878 56.7919 193.75 44.0785 193.75 28.3959C193.75 12.7133 180.878 0 165 0C149.123 0 136.251 12.7133 136.251 28.3959C136.251 44.0785 149.123 56.7919 165 56.7919Z" fill="#F00065"/>
</g>
<defs>
<clipPath id="clip0_264_387">
<rect width="193" height="57" fill="white" transform="translate(0.75)"/>
</clipPath>
</defs>
</svg>
